<svg width="18" height="16" viewBox="0 0 18 16" fill="none" xmlns="http://www.w3.org/2000/svg">
<path d="M10.4259 15.1304L16.7009 8.88377C17.1726 8.41377 17.1726 7.58207 16.7009 7.11037L10.4259 0.863767C9.93591 0.377067 9.14431 0.378767 8.65761 0.868767C8.17091 1.35877 8.17091 2.14877 8.66091 2.63707L12.7893 6.74877H2.19761C1.50591 6.74877 0.947613 7.30877 0.947613 7.99877C0.947613 8.68877 1.50591 9.24877 2.19761 9.24877H12.7893L8.66091 13.3588C8.41591 13.6038 8.29431 13.9238 8.29431 14.2454C8.29431 14.5638 8.41591 14.8838 8.65761 15.1271C9.14431 15.6154 9.93591 15.6171 10.4259 15.1304Z" fill="white"/>
</svg>
