<svg width="220" height="220" viewBox="0 0 220 220" fill="none" xmlns="http://www.w3.org/2000/svg">
<path d="M157.306 0.835938C194.305 0.835938 219.161 26.797 219.161 65.4268V154.578C219.161 193.208 194.305 219.169 157.295 219.169H62.684C25.6842 219.169 0.828125 193.208 0.828125 154.578V65.4268C0.828125 26.797 25.6842 0.835938 62.684 0.835938H157.306ZM169.344 116.007C157.642 108.707 148.608 118.959 146.171 122.237C143.821 125.403 141.802 128.896 139.672 132.388C134.469 141.006 128.508 150.943 118.189 156.722C103.194 165.025 91.8099 157.376 83.6206 151.81C80.5469 149.737 77.561 147.777 74.5861 146.47C67.2531 143.305 60.6556 146.91 50.8636 159.347C45.7261 165.848 40.6325 172.292 35.4731 178.713C32.3884 182.555 33.1239 188.481 37.2844 191.05C43.9258 195.139 52.0272 197.336 61.1825 197.336H153.185C158.378 197.336 163.581 196.626 168.543 195.004C179.718 191.354 188.588 182.994 193.22 171.954C197.128 162.671 199.028 151.405 195.372 142.032C194.154 138.922 192.331 136.027 189.773 133.481C183.066 126.823 176.798 120.604 169.344 116.007ZM71.774 44.5026C56.7238 44.5026 44.4948 56.7482 44.4948 71.7943C44.4948 86.8404 56.7238 99.0859 71.774 99.0859C86.8132 99.0859 99.0532 86.8404 99.0532 71.7943C99.0532 56.7482 86.8132 44.5026 71.774 44.5026Z" fill="white"/>
</svg>
