<svg width="36" height="36" viewBox="0 0 36 36" fill="none" xmlns="http://www.w3.org/2000/svg">
<path fill-rule="evenodd" clip-rule="evenodd" d="M16.6965 0.919653C13.6278 1.36063 10.9601 3.30064 9.60575 6.07624C9.00487 7.30759 8.75691 8.29407 8.6274 9.96814C8.59327 10.4099 8.55825 10.526 8.40856 10.6935C8.04719 11.098 7.39151 10.9999 7.15731 10.5062C7.05798 10.2968 7.04577 10.1514 7.08239 9.61431C7.17535 8.24979 7.51626 6.86038 8.03652 5.7261C8.30165 5.14813 8.32821 4.78988 8.12693 4.5071C7.8557 4.1261 7.43806 4.13355 6.36207 4.5387C3.59887 5.57905 1.62864 7.90743 0.974979 10.9051C0.808244 11.6698 0.810927 13.3802 0.980143 14.1684C1.50885 16.6319 2.99773 18.7412 5.02571 19.8998L5.50981 20.1765L5.51196 23.4707L5.51411 26.7649L5.66736 26.9928C5.75489 27.1231 5.92021 27.2551 6.05301 27.3009C6.35462 27.4047 29.4934 27.4245 29.8653 27.3212C29.9971 27.2845 30.1782 27.1766 30.2677 27.0814L30.4304 26.9082L30.4494 23.5423L30.4684 20.1765L30.9524 19.8944C35.2919 17.3656 36.4751 11.5064 33.466 7.4468C31.8122 5.21576 29.3232 3.96354 26.5739 3.97951C26.1128 3.98226 25.5997 4.00601 25.4337 4.03231L25.1319 4.08021L24.471 3.45669C23.0864 2.15047 21.4237 1.29408 19.6718 0.984931C18.8345 0.837201 17.4777 0.807413 16.6965 0.919653ZM9.90783 16.6751C10.076 16.8433 10.1407 16.9776 10.1745 17.2286C10.3123 18.2522 10.9228 19.4487 12.2556 21.3075C12.658 21.8688 12.5225 22.4624 11.9529 22.6331C11.4503 22.7837 11.1952 22.5636 10.2497 21.1643C9.14733 19.5327 8.47341 17.7534 8.67757 17.0138C8.76516 16.6965 9.08569 16.453 9.41601 16.453C9.63197 16.453 9.73009 16.4973 9.90783 16.6751ZM18.4927 16.6751C18.6505 16.8329 18.7274 16.9834 18.7585 17.195C18.7826 17.3589 18.7929 18.5359 18.7813 19.8105C18.7578 22.4082 18.7594 22.3996 18.2688 22.6057C18.0553 22.6954 17.9878 22.6969 17.7604 22.6169C17.6161 22.5661 17.435 22.4394 17.358 22.3352C17.2231 22.1532 17.2169 22.0573 17.1967 19.8194C17.1852 18.5398 17.1955 17.3589 17.2195 17.195C17.2826 16.7656 17.6068 16.453 17.989 16.453C18.2185 16.453 18.3119 16.4942 18.4927 16.6751ZM27.0363 16.625C27.1487 16.7197 27.2676 16.8946 27.3005 17.0138C27.4365 17.5065 27.1461 18.6009 26.5812 19.7244C25.9853 20.9094 24.9292 22.4016 24.5462 22.5998C24.2679 22.7437 23.9176 22.6677 23.6785 22.4117C23.3992 22.1126 23.4141 21.7375 23.7225 21.3075C25.0553 19.4487 25.6657 18.2522 25.8036 17.2286C25.8958 16.5433 26.5555 16.2204 27.0363 16.625ZM5.93805 29.0398C5.5581 29.2272 5.51397 29.4268 5.51511 30.9544C5.51619 32.4932 5.58956 32.9555 5.92585 33.5434C6.32632 34.2437 7.06448 34.8252 7.828 35.042C8.11077 35.1223 9.7091 35.1373 18.0226 35.1373C27.4326 35.1373 27.8979 35.1316 28.2368 35.0135C29.3326 34.6315 30.1132 33.7999 30.3603 32.7511C30.5061 32.1324 30.5075 29.6129 30.3622 29.3319C30.1401 28.9023 31.0408 28.9314 18.0091 28.9331C7.37843 28.9344 6.1292 28.9455 5.93805 29.0398Z" fill="white"/>
</svg>
