<svg width="32" height="32" viewBox="0 0 32 32" fill="none" xmlns="http://www.w3.org/2000/svg">
<path fill-rule="evenodd" clip-rule="evenodd" d="M0.666832 1.08487C0.37943 1.21165 0.078508 1.58045 0.0258629 1.87057C0.00261603 1.99858 -0.0066825 3.24685 0.00511975 4.64459C0.0257916 7.0808 0.0327298 7.19422 0.174142 7.3853C0.255256 7.49496 0.410473 7.65172 0.519125 7.73365L0.716688 7.88261H16.0133H31.31L31.5075 7.73365C31.6162 7.65172 31.7714 7.49496 31.8525 7.38522C31.9954 7.19198 32 7.10037 32 4.45112C32 1.80187 31.9954 1.71027 31.8525 1.51702C31.7714 1.40728 31.6162 1.25052 31.5075 1.1686L31.31 1.01963L16.0975 1.0041C3.55924 0.991387 0.846655 1.00555 0.666832 1.08487ZM1.15251 20.2668C1.17104 30.2762 1.17154 30.3037 1.3186 30.5026C1.39972 30.6123 1.55493 30.7691 1.66359 30.851L1.86115 31H16.0133H30.1655L30.3631 30.851C30.4717 30.7691 30.6269 30.6123 30.708 30.5026C30.8551 30.3037 30.8556 30.2762 30.8741 20.2668L30.8928 10.2305H16.0133H1.13384L1.15251 20.2668ZM22.1883 16.1084C22.6747 16.3136 22.9518 16.8656 22.8483 17.4229C22.7802 17.7888 16.8338 25.0031 16.4755 25.1542C16.168 25.284 15.8579 25.2847 15.564 25.1561C15.4374 25.1008 14.4752 24.1825 13.4258 23.1153C11.3677 21.0225 11.3515 20.9998 11.4692 20.3659C11.5353 20.0104 11.9632 19.5782 12.3152 19.5115C12.9232 19.3963 13.0084 19.4528 14.5273 20.978C15.3033 21.7573 15.95 22.3805 15.9643 22.3629C19.5661 17.9687 21.0647 16.2002 21.259 16.1149C21.5507 15.9868 21.8943 15.9843 22.1883 16.1084Z" fill="white"/>
</svg>
