<svg width="42" height="42" viewBox="0 0 42 42" fill="none" xmlns="http://www.w3.org/2000/svg">
<path fill-rule="evenodd" clip-rule="evenodd" d="M26.0209 0.148088C23.8057 0.411508 22.3969 0.811743 20.7438 1.64717C16.6702 3.70585 13.8782 7.34537 12.9473 11.81C12.8019 12.5077 12.7275 13.1807 12.6929 14.1127C12.5626 17.6262 13.4815 20.6391 15.5326 23.4235L16.0809 24.168L14.5989 25.6335L13.1168 27.099L12.5533 26.9062C11.4399 26.5253 10.1065 26.6902 9.12409 27.3306C8.89443 27.4803 6.91969 29.3987 4.7357 31.5937C1.17236 35.1752 0.738844 35.6392 0.510407 36.1157C-0.953806 39.1706 1.76464 42.5673 5.05324 41.7918C6.1202 41.5402 6.13874 41.5245 10.4874 37.1893C14.4141 33.2749 14.5663 33.1117 14.8785 32.4809C15.3849 31.4578 15.4466 30.3104 15.0504 29.2859L14.8961 28.8869L16.3657 27.4047L17.8352 25.9225L18.5796 26.4708C20.2319 27.6883 21.6889 28.3816 23.6525 28.8851C26.371 29.5822 29.3951 29.4641 32.0295 28.5577C34.7751 27.6133 37.2066 25.8482 38.9463 23.5368C42.2394 19.1614 42.8258 13.3407 40.4686 8.42593C38.2629 3.8269 33.9016 0.739864 28.8214 0.181659C28.0798 0.100142 26.5757 0.0821719 26.0209 0.148088ZM33.9719 8.48629C34.0852 8.57091 34.2538 8.7417 34.3464 8.86578C34.5121 9.08762 34.5151 9.18082 34.5369 14.6236L34.5589 20.156L34.3715 20.5105C34.123 20.9805 33.7441 21.1893 33.2224 21.1437C32.7609 21.1033 32.4475 20.899 32.2486 20.5089C32.1168 20.2504 32.1057 19.8029 32.1057 14.714C32.1055 9.49856 32.1138 9.184 32.257 8.91675C32.575 8.32374 33.4575 8.10214 33.9719 8.48629ZM25.8047 10.9367C25.918 11.0213 26.0866 11.1921 26.1792 11.3161C26.3436 11.5362 26.3482 11.644 26.3701 15.848L26.3926 20.1544L26.2047 20.5098C25.9558 20.9806 25.5772 21.1893 25.0553 21.1437C24.5937 21.1033 24.2803 20.899 24.0814 20.5089C23.9508 20.2527 23.9386 19.8617 23.9385 15.9392C23.9383 11.0675 23.913 11.2603 24.6003 10.8926C25.0161 10.6701 25.4698 10.6867 25.8047 10.9367ZM29.8883 12.5703C30.0016 12.6549 30.1702 12.8257 30.2628 12.9497C30.4258 13.168 30.432 13.2863 30.4541 16.664L30.477 20.1529L30.2887 20.5089C30.0394 20.9806 29.6611 21.1893 29.1389 21.1437C28.6773 21.1033 28.3639 20.899 28.165 20.5089C28.0356 20.2552 28.0222 19.9008 28.0221 16.756C28.0219 12.8039 28.0088 12.8874 28.6839 12.5262C29.0996 12.3037 29.5534 12.3203 29.8883 12.5703ZM21.7211 15.0207C21.8344 15.1054 22.003 15.2761 22.0956 15.4001C22.2547 15.613 22.2653 15.7504 22.288 17.8872C22.3117 20.1175 22.3094 20.1538 22.1226 20.5069C21.8721 20.9806 21.4948 21.1894 20.9717 21.1437C20.5101 21.1033 20.1967 20.899 19.9978 20.5089C19.8721 20.2623 19.855 19.9596 19.8549 17.9812C19.8547 15.4046 19.8731 15.321 20.5167 14.9766C20.9325 14.7541 21.3862 14.7707 21.7211 15.0207Z" fill="white"/>
</svg>
