<svg width="38" height="38" viewBox="0 0 38 38" fill="none" xmlns="http://www.w3.org/2000/svg">
<path d="M20.0925 3.76562C21.2449 3.76562 22.2883 4.40562 22.8645 5.35039C23.1448 5.80753 23.3317 6.37134 23.2849 6.96562C23.2538 7.42277 23.394 7.87991 23.6431 8.30658C24.4373 9.60181 26.197 10.0894 27.5674 9.35801C29.1091 8.4742 31.0557 9.00753 31.9434 10.5161L32.9867 12.3142C33.8899 13.8228 33.3916 15.758 31.8343 16.6266C30.5107 17.4037 30.0435 19.1256 30.8377 20.4361C31.0869 20.8475 31.3672 21.198 31.8032 21.4113C32.3482 21.7009 32.7687 22.158 33.0646 22.6151C33.6408 23.5599 33.5941 24.718 33.0334 25.739L31.9434 27.5675C31.3672 28.5428 30.2927 29.1523 29.187 29.1523C28.6419 29.1523 28.0346 28.9999 27.5363 28.6951C27.1314 28.4361 26.6642 28.3447 26.1659 28.3447C24.6242 28.3447 23.3317 29.6094 23.2849 31.118C23.2849 32.8704 21.8523 34.2418 20.0614 34.2418H17.9435C16.1371 34.2418 14.7044 32.8704 14.7044 31.118C14.6732 29.6094 13.3807 28.3447 11.839 28.3447C11.3251 28.3447 10.8579 28.4361 10.4686 28.6951C9.9703 28.9999 9.34739 29.1523 8.81792 29.1523C7.69669 29.1523 6.62217 28.5428 6.04598 27.5675L4.97147 25.739C4.39528 24.7485 4.36413 23.5599 4.94032 22.6151C5.18949 22.158 5.65667 21.7009 6.18614 21.4113C6.62217 21.198 6.90248 20.8475 7.16722 20.4361C7.94585 19.1256 7.47867 17.4037 6.15499 16.6266C4.6133 15.758 4.11497 13.8228 5.00261 12.3142L6.04598 10.5161C6.9492 9.00753 8.88021 8.4742 10.4375 9.35801C11.7923 10.0894 13.552 9.60181 14.3462 8.30658C14.5954 7.87991 14.7355 7.42277 14.7044 6.96562C14.6732 6.37134 14.8445 5.80753 15.1404 5.35039C15.7166 4.40562 16.76 3.7961 17.8968 3.76562H20.0925ZM19.018 14.7066C16.5731 14.7066 14.5954 16.6266 14.5954 19.019C14.5954 21.4113 16.5731 23.3161 19.018 23.3161C21.4629 23.3161 23.394 21.4113 23.394 19.019C23.394 16.6266 21.4629 14.7066 19.018 14.7066Z" fill="white"/>
</svg>
