<svg width="31" height="31" viewBox="0 0 31 31" fill="none" xmlns="http://www.w3.org/2000/svg">
<path fill-rule="evenodd" clip-rule="evenodd" d="M15.4906 0.111512C15.3531 0.184624 15.2185 0.323942 15.1445 0.469862C15.0305 0.69483 15.0235 0.824517 15.0235 2.7124C15.0235 4.60106 15.0305 4.72984 15.1447 4.95517C15.2809 5.22394 15.6277 5.43818 15.9263 5.43818C16.225 5.43818 16.5717 5.22394 16.708 4.95517C16.8221 4.72984 16.8291 4.60106 16.8291 2.7124C16.8291 0.82373 16.8221 0.694952 16.708 0.46962C16.4859 0.0314952 15.9422 -0.128418 15.4906 0.111512ZM7.31955 2.35992C7.20369 2.43849 7.06152 2.59767 7.00368 2.71361C6.79146 3.13871 6.82679 3.23617 7.8398 5.02102C8.35765 5.93343 8.86455 6.76903 8.96621 6.87794C9.33196 7.26985 9.91072 7.26276 10.2602 6.86207C10.467 6.62517 10.5424 6.3363 10.469 6.06263C10.3777 5.72263 8.50499 2.52692 8.31817 2.39245C8.04691 2.19722 7.58172 2.18208 7.31955 2.35992ZM23.7596 2.33054C23.6487 2.38554 23.4953 2.52807 23.4187 2.64722C23.0029 3.29408 21.5309 5.93373 21.4955 6.09607C21.4355 6.37064 21.5095 6.62911 21.7155 6.86528C22.0622 7.2627 22.6424 7.26834 23.0068 6.87794C23.1084 6.76903 23.6153 5.93343 24.1332 5.02102C25.1462 3.23617 25.1815 3.13871 24.9693 2.71361C24.7502 2.27457 24.2146 2.10497 23.7596 2.33054ZM14.9031 7.31637C12.6326 7.63093 10.722 8.65576 9.19486 10.3782C8.19575 11.5051 7.4705 12.9756 7.12328 14.5785C7.002 15.1383 6.99646 15.3543 6.97504 20.324L6.95277 25.4879H15.9865H25.0202L24.9988 20.324C24.9777 15.23 24.9756 15.152 24.8421 14.5544C24.02 10.8741 21.3576 8.19807 17.762 7.43849C17.076 7.29353 15.5412 7.22799 14.9031 7.31637ZM1.50848 8.3065C0.913706 8.5778 0.782317 9.34902 1.25605 9.7883C1.33929 9.86547 2.13496 10.3528 3.02429 10.8713C4.79367 11.903 4.97881 11.9722 5.39235 11.7563C5.72525 11.5825 5.8907 11.2848 5.86109 10.9128C5.84653 10.7299 5.78598 10.533 5.71345 10.4329C5.6381 10.3288 4.93294 9.88006 3.88894 9.27185C2.09205 8.22503 1.8776 8.1381 1.50848 8.3065ZM29.8548 8.27603C29.786 8.29766 28.9777 8.75153 28.0587 9.28457C26.9784 9.91114 26.3433 10.316 26.2621 10.4299C26.1876 10.5343 26.1264 10.7317 26.1118 10.9145C26.0823 11.2846 26.2484 11.5828 26.5806 11.7563C26.9936 11.9719 27.1813 11.9026 28.9267 10.8895C29.804 10.3803 30.6102 9.87994 30.7185 9.7777C31.3983 9.13514 30.7434 7.99643 29.8548 8.27603ZM4.25 28.7915C4.25 30.1617 4.25945 30.2966 4.37116 30.517C4.44916 30.6709 4.577 30.7996 4.72993 30.8781C4.96545 30.999 5.06169 31 15.9865 31C26.9113 31 27.0076 30.999 27.2431 30.8781C27.396 30.7996 27.5238 30.6709 27.6018 30.517C27.7135 30.2966 27.723 30.1617 27.723 28.7915V27.305H15.9865H4.25V28.7915Z" fill="white"/>
</svg>
