<svg width="32" height="32" viewBox="0 0 32 32" fill="none" xmlns="http://www.w3.org/2000/svg">
<path fill-rule="evenodd" clip-rule="evenodd" d="M19.7711 2.11978C19.2155 2.32281 18.5881 2.69729 18.4003 2.93798C18.2325 3.15322 18.2351 3.33285 18.4124 3.76877C18.5009 3.98628 18.4963 4.04666 18.3738 4.27613C18.1905 4.61918 17.8253 4.7982 17.5245 4.69244C17.2478 4.59516 16.9547 4.696 16.7936 4.94388C16.6298 5.19609 16.376 6.24355 16.376 6.6678C16.376 7.07213 16.5904 7.42351 16.8371 7.42351C17.0682 7.42351 17.2648 7.55783 17.3894 7.80079C17.5876 8.18732 17.5363 8.44483 17.193 8.78757C16.9173 9.06296 16.888 9.12606 16.926 9.36213C16.9764 9.67555 17.5124 10.4597 17.9468 10.8555C18.3217 11.197 18.5865 11.2168 19.0088 10.935C19.2863 10.7498 19.3329 10.7412 19.6084 10.8245C19.9675 10.9329 20.1346 11.1657 20.1653 11.5997C20.1975 12.0559 20.4289 12.2379 21.0642 12.3065C21.3365 12.3359 21.7821 12.3359 22.0544 12.3065C22.709 12.2358 22.9192 12.0609 22.9567 11.5559C22.9889 11.1232 23.1305 10.9392 23.5226 10.8207C23.783 10.742 23.8361 10.7523 24.1097 10.935C24.5937 11.258 24.8207 11.2125 25.3228 10.6918C25.7962 10.2009 26.2149 9.52721 26.216 9.25478C26.2164 9.14879 26.0966 8.95848 25.9162 8.77833C25.5826 8.44521 25.5326 8.18406 25.7291 7.80079C25.8538 7.55783 26.0504 7.42351 26.2814 7.42351C26.5281 7.42351 26.7425 7.07213 26.7425 6.6678C26.7425 6.24355 26.4888 5.19609 26.3249 4.94388C26.1639 4.696 25.8707 4.59516 25.5941 4.69244C25.2932 4.7982 24.928 4.61918 24.7448 4.27613C24.6207 4.0437 24.617 3.98908 24.7102 3.76877C24.8668 3.39883 24.8423 3.05806 24.6436 2.84472C24.4518 2.63888 23.5668 2.18122 23.0904 2.04152C22.6954 1.92568 22.3985 2.05333 22.2311 2.41085C22.0776 2.73881 21.9699 2.79957 21.5405 2.80101C21.1754 2.80215 20.8832 2.62267 20.8832 2.39721C20.8832 2.24342 20.6378 2.05083 20.39 2.0103C20.2687 1.99045 19.9902 2.0397 19.7711 2.11978ZM22.3259 5.04116C23.4656 5.43284 24.0486 6.91236 23.4925 8.00103C22.823 9.31122 21.2091 9.63578 20.1479 8.67363C19.6383 8.21149 19.4317 7.75738 19.4242 7.08259C19.4194 6.64674 19.4561 6.47484 19.63 6.11748C19.8639 5.63724 20.3364 5.19442 20.7888 5.03161C21.1724 4.89358 21.9098 4.8982 22.3259 5.04116ZM4.73252 6.88826C4.06013 7.09532 3.44851 7.61162 3.14923 8.22482L2.96722 8.59779L2.94738 16.4958L2.92763 24.3938H15.9994H29.0712V15.7916V7.18933L28.8868 7.00342C28.7451 6.86046 28.6233 6.81743 28.361 6.81743C28.0625 6.81743 28.0195 6.83773 28.0195 6.9791C28.0195 7.30987 27.8344 7.74511 27.5602 8.05936C27.2794 8.38112 27.2782 8.38528 27.3823 8.67991C27.678 9.51676 27.3319 10.4032 26.2492 11.5827C25.6905 12.1913 25.1871 12.4415 24.5719 12.4162C24.116 12.3974 24.1159 12.3975 23.8898 12.7121C23.4173 13.37 22.8425 13.586 21.5593 13.5881C20.249 13.5902 19.7137 13.3873 19.2212 12.7016C19.0048 12.4003 18.9984 12.3975 18.557 12.4157C17.7438 12.4492 17.0152 11.9394 16.2216 10.7816C15.6453 9.94079 15.5052 9.33403 15.7362 8.67991C15.8404 8.38528 15.8391 8.38112 15.5584 8.05936C15.2841 7.74511 15.099 7.30987 15.099 6.9791V6.81743L10.0097 6.82394C7.21056 6.8275 4.83581 6.85644 4.73252 6.88826ZM11.2193 11.3441C11.2897 11.417 11.4234 11.596 11.5166 11.7418C11.9018 12.3449 12.7944 12.3237 13.1129 11.704C13.3401 11.2619 13.5711 11.153 14.0242 11.2747C14.5421 11.4138 15.4148 11.852 15.6898 12.1111C15.9605 12.3662 15.9977 12.6689 15.8044 13.0458C15.6393 13.3679 15.7628 13.7699 16.1253 14.091C16.3892 14.3247 16.4146 14.3312 16.8732 14.2816C17.3116 14.2343 17.362 14.2446 17.5322 14.4162C17.8701 14.7569 18.2132 16.2919 18.0753 16.8459C18.0244 17.0509 17.6933 17.2723 17.4381 17.2723C17.2391 17.2723 16.9191 17.6711 16.859 17.9938C16.7875 18.378 16.8676 18.5959 17.2032 18.9311C17.4128 19.1403 17.5028 19.295 17.5028 19.4455C17.5028 19.7249 17.0792 20.3672 16.5003 20.9656C15.9675 21.5165 15.7002 21.5803 15.3107 21.2497C14.9319 20.9283 14.2325 21.0332 13.9392 21.4556C13.8747 21.5484 13.822 21.7683 13.822 21.9442C13.822 22.5714 13.4156 22.7962 12.282 22.7962C11.1621 22.7962 10.8172 22.6108 10.8172 22.0091C10.8172 21.2444 9.86776 20.7689 9.30113 21.2497C8.97151 21.5294 8.63542 21.5041 8.27125 21.1724C7.91187 20.8449 7.43013 20.2189 7.21649 19.8019C7.02209 19.4224 7.08721 19.1782 7.47934 18.8159C7.7056 18.607 7.7373 18.5324 7.737 18.2091C7.73662 17.6769 7.5323 17.3745 7.09893 17.2644C6.46703 17.104 6.35848 16.7782 6.57858 15.7034C6.73415 14.9438 6.88597 14.5758 7.12049 14.3897C7.28305 14.2608 7.37905 14.2449 7.74473 14.2867C8.1168 14.3291 8.20912 14.3128 8.40894 14.1693C8.84659 13.8551 8.96708 13.4043 8.74127 12.9266C8.5093 12.436 8.69282 12.1583 9.5488 11.7046C10.4997 11.2007 10.9808 11.0969 11.2193 11.3441ZM11.4388 14.6659C10.9825 14.8352 10.4106 15.3857 10.1647 15.8929C9.99058 16.2518 9.95587 16.4202 9.9588 16.8931C9.96346 17.6492 10.1737 18.1336 10.7135 18.6311C12.2365 20.0349 14.6483 18.9686 14.6483 16.8915C14.6483 16.0238 14.1801 15.2204 13.4362 14.8116C13.0952 14.6242 12.935 14.5869 12.3947 14.5691C11.9578 14.5548 11.656 14.5853 11.4388 14.6659ZM0.338037 25.7692C0.0789505 25.9121 0 26.0771 0 26.4757C0 26.9825 0.184493 27.681 0.430584 28.106C0.949359 29.0019 1.96895 29.7463 2.92109 29.9243C3.18033 29.9728 7.88108 30 16.0004 30C24.1198 30 28.8205 29.9728 29.0798 29.9243C30.3606 29.6848 31.5604 28.5679 31.8843 27.3135C32.004 26.8499 32.0369 26.2434 31.9542 26.026C31.8173 25.6661 32.5383 25.6815 15.9854 25.684C4.91266 25.6856 0.445383 25.7099 0.338037 25.7692Z" fill="white"/>
</svg>
