<svg width="40" height="40" viewBox="0 0 40 40" fill="none" xmlns="http://www.w3.org/2000/svg">
<path fill-rule="evenodd" clip-rule="evenodd" d="M25.6908 3.18816V5.27101C25.6908 5.6053 25.5238 5.91749 25.2457 6.10297L22.2757 8.08371L19.3057 10.0644C19.0275 10.2499 18.8605 10.5621 18.8605 10.8964V12.3721V13.3828C18.8605 13.9351 19.3082 14.3828 19.8605 14.3828H29.144H38.4275C38.9797 14.3828 39.4275 13.9351 39.4275 13.3828V12.381V10.9168C39.4275 10.5811 39.259 10.2678 38.979 10.0826L35.9743 8.09615L32.9697 6.10959C32.6897 5.92444 32.5212 5.61113 32.5212 5.27542V3.19173V1.57031C32.5212 1.01803 32.0735 0.570312 31.5212 0.570312H29.106H26.6908C26.1386 0.570312 25.6908 1.01803 25.6908 1.57031V3.18816ZM0.570312 23.452V26.9676C0.570312 27.5199 1.01803 27.9676 1.57031 27.9676H8.57701H15.5837C16.136 27.9676 16.5837 27.5199 16.5837 26.9676V23.452V19.9364C16.5837 19.3841 16.136 18.9364 15.5837 18.9364H8.57701H1.57031C1.01803 18.9364 0.570312 19.3841 0.570312 19.9364V23.452ZM18.8605 29.1819V38.4275C18.8605 38.9797 19.3082 39.4275 19.8605 39.4275H29.144H38.4275C38.9797 39.4275 39.4275 38.9797 39.4275 38.4275V29.1819V19.9364C39.4275 19.3841 38.9797 18.9364 38.4275 18.9364H29.144H19.8605C19.3082 18.9364 18.8605 19.3841 18.8605 19.9364V29.1819ZM13.1685 22.5033V22.6417C13.1685 23.194 12.7208 23.6417 12.1685 23.6417H8.61496H5.06138C4.5091 23.6417 4.06138 23.194 4.06138 22.6417V22.5033V22.365C4.06138 21.8127 4.5091 21.365 5.06138 21.365H8.61496H12.1685C12.7208 21.365 13.1685 21.8127 13.1685 22.365V22.5033ZM25.6908 22.5413V22.7176C25.6908 23.2699 25.2431 23.7176 24.6908 23.7176H24.5525H24.4141C23.8618 23.7176 23.4141 23.2699 23.4141 22.7176V22.5413V22.365C23.4141 21.8127 23.8618 21.365 24.4141 21.365H24.5525H24.6908C25.2431 21.365 25.6908 21.8127 25.6908 22.365V22.5413ZM30.2444 22.5413V22.7176C30.2444 23.2699 29.7967 23.7176 29.2444 23.7176H29.106H28.9676C28.4153 23.7176 27.9676 23.2699 27.9676 22.7176V22.5413V22.365C27.9676 21.8127 28.4153 21.365 28.9676 21.365H29.106H29.2444C29.7967 21.365 30.2444 21.8127 30.2444 22.365V22.5413ZM34.798 22.5413V22.7176C34.798 23.2699 34.3503 23.7176 33.798 23.7176H33.6596H33.5212C32.9689 23.7176 32.5212 23.2699 32.5212 22.7176V22.5413V22.365C32.5212 21.8127 32.9689 21.365 33.5212 21.365H33.6596H33.798C34.3503 21.365 34.798 21.8127 34.798 22.365V22.5413ZM34.798 30.3203V33.8739C34.798 34.4262 34.3503 34.8739 33.798 34.8739H29.106H24.4141C23.8618 34.8739 23.4141 34.4262 23.4141 33.8739V30.3203V26.7667C23.4141 26.2145 23.8618 25.7667 24.4141 25.7667H29.106H33.798C34.3503 25.7667 34.798 26.2145 34.798 26.7667V30.3203ZM0.570312 34.8359V38.4275C0.570312 38.9797 1.01803 39.4275 1.57031 39.4275H8.57701H15.5837C16.136 39.4275 16.5837 38.9797 16.5837 38.4275V34.8359V31.2444C16.5837 30.6921 16.136 30.2444 15.5837 30.2444H8.57701H1.57031C1.01803 30.2444 0.570312 30.6921 0.570312 31.2444V34.8359ZM13.1685 33.7355V33.8739C13.1685 34.4262 12.7208 34.8739 12.1685 34.8739H8.61496H5.06138C4.5091 34.8739 4.06138 34.4262 4.06138 33.8739V33.7861C4.06138 33.1878 4.08415 32.6755 4.112 32.6477C4.13978 32.6199 6.18889 32.5971 8.66558 32.5971H12.1685C12.7208 32.5971 13.1685 33.0448 13.1685 33.5971V33.7355Z" fill="white"/>
</svg>
