<svg width="42" height="42" viewBox="0 0 42 42" fill="none" xmlns="http://www.w3.org/2000/svg">
<path fill-rule="evenodd" clip-rule="evenodd" d="M2.70673 2.77133C1.73115 2.89852 0.821821 3.59288 0.372379 4.55422L0.153697 5.02193L0.12881 8.15061L0.104004 11.2793H21.002H41.8999L41.8751 8.14864L41.8502 5.018L41.5831 4.47423C41.2521 3.80064 40.6072 3.18636 39.9528 2.9215L39.4839 2.73165L21.3284 2.7211C11.3428 2.71538 2.96311 2.73795 2.70673 2.77133ZM6.02401 5.87694C6.99046 6.51552 6.76468 7.95512 5.65087 8.25571C4.77214 8.49292 3.89333 7.65689 4.06387 6.74577C4.12344 6.4275 4.52726 5.90647 4.80029 5.79563C5.11885 5.66631 5.77082 5.70958 6.02401 5.87694ZM11.3537 5.88037C12.0898 6.33017 12.1612 7.46819 11.4867 7.99994C10.9236 8.44401 10.1977 8.38462 9.72089 7.85549C9.11902 7.18771 9.29462 6.2626 10.1086 5.8124C10.3804 5.66214 11.0571 5.69903 11.3537 5.88037ZM16.8973 5.87718C17.3891 6.17778 17.63 6.76229 17.4848 7.30272C17.3061 7.9682 16.5661 8.42111 15.9357 8.25089C14.4641 7.85369 14.7041 5.71637 16.2202 5.71752C16.4888 5.71768 16.729 5.77437 16.8973 5.87718ZM0.131829 24.7977L0.153697 35.6988L0.420849 36.2427C0.75181 36.9165 1.3966 37.5307 2.05109 37.7957L2.52004 37.9855H21.002H39.4839L39.9528 37.7957C40.6073 37.5307 41.2521 36.9165 41.5831 36.2427L41.8502 35.6988L41.8721 24.7977L41.894 13.8967H21.002H0.109961L0.131829 24.7977ZM6.0294 22.0412C6.4369 22.2351 6.5362 22.3853 6.92428 23.396C7.12991 23.9313 7.30102 24.2737 7.32779 24.203C7.35333 24.1355 7.48429 23.7522 7.61876 23.3512C7.75332 22.9503 7.91929 22.5367 7.98759 22.4321C8.27897 21.9863 9.15966 21.7761 9.65667 22.0338C10.0095 22.2167 10.1798 22.4828 10.5197 23.3825C10.6902 23.8338 10.851 24.2029 10.8771 24.2028C10.9032 24.2027 11.0496 23.8439 11.2025 23.4053C11.5301 22.4651 11.6815 22.2243 12.0573 22.0455C12.9315 21.6297 13.9362 22.2342 13.9268 23.1706C13.9231 23.5363 12.2847 28.4196 12.0182 28.8589C11.6756 29.4236 10.8837 29.6117 10.3141 29.2637C9.92178 29.0239 9.87225 28.9448 9.4814 27.9345C9.21808 27.2536 9.12229 27.0807 9.07349 27.1983C9.03849 27.2829 8.89471 27.6765 8.75412 28.073C8.61344 28.4694 8.40969 28.8994 8.30125 29.0286C7.92157 29.4809 7.07687 29.5633 6.58157 29.1962C6.27501 28.969 6.19806 28.7986 5.09127 25.8949C4.09847 23.2906 4.0358 22.9904 4.37802 22.4769C4.72416 21.9575 5.45063 21.7659 6.0294 22.0412ZM17.9665 22.0276C18.3521 22.2287 18.5338 22.5039 18.8865 23.4207L19.2306 24.3153L19.5465 23.4207C19.989 22.1676 20.4379 21.7885 21.2893 21.9485C21.8028 22.0451 22.0844 22.3883 22.4662 23.3827C22.6567 23.8788 22.8244 24.2848 22.8389 24.2848C22.8533 24.2848 22.9978 23.8857 23.16 23.3979C23.5424 22.2477 23.8706 21.9127 24.6156 21.9127C25.2464 21.9127 25.8055 22.4279 25.8703 23.069C25.9004 23.3661 25.7555 23.8621 25.0061 26.0282C24.5109 27.4594 24.0441 28.735 23.9688 28.8629C23.6745 29.3622 22.8392 29.5908 22.3107 29.3168C21.9702 29.1403 21.7749 28.8528 21.4855 28.1019C21.3439 27.7345 21.1919 27.3419 21.1476 27.2294C21.0753 27.0455 21.0366 27.1134 20.7627 27.9047C20.3586 29.0728 20.0074 29.4379 19.2884 29.4379C18.911 29.4379 18.5965 29.2985 18.3368 29.0162C18.2397 28.9107 17.6955 27.6098 17.1274 26.1252C16.2346 23.792 16.0996 23.3775 16.1321 23.069C16.2235 22.2019 17.2181 21.6373 17.9665 22.0276ZM29.9466 22.0455C30.3186 22.2225 30.4657 22.4525 30.84 23.4429C31.0313 23.9492 31.1802 24.239 31.2181 24.1791C31.2525 24.1248 31.3939 23.7417 31.5321 23.3279C31.6704 22.9141 31.8536 22.4863 31.9392 22.3772C32.2998 21.9176 33.1187 21.7726 33.6155 22.0804C33.9569 22.292 34.1276 22.5803 34.4714 23.5269C34.6223 23.9422 34.7699 24.2551 34.7995 24.2221C34.8291 24.1891 34.9704 23.8051 35.1136 23.3688C35.4057 22.4784 35.5603 22.2383 35.9649 22.0458C36.5532 21.7659 37.2773 21.9538 37.6259 22.4769C37.957 22.9737 37.898 23.2771 36.9139 26.136C36.4205 27.5696 35.9496 28.8347 35.8677 28.9471C35.4058 29.5813 34.2611 29.5871 33.8234 28.9575C33.7414 28.8393 33.5319 28.3662 33.358 27.9062C33.1841 27.4462 33.018 27.0965 32.9888 27.1291C32.9595 27.1618 32.8185 27.5455 32.6753 27.9818C32.5322 28.4181 32.345 28.8643 32.2594 28.9734C31.7794 29.585 30.6684 29.5748 30.2279 28.9547C29.9457 28.5574 28.078 23.5375 28.0758 23.1706C28.0702 22.2329 29.073 21.6299 29.9466 22.0455Z" fill="white"/>
</svg>
