<svg width="42" height="42" viewBox="0 0 42 42" fill="none" xmlns="http://www.w3.org/2000/svg">
<path fill-rule="evenodd" clip-rule="evenodd" d="M21.2491 1.55757C20.7183 1.8903 20.743 1.45171 20.743 10.5312V18.7774L20.9286 19.0525C21.3325 19.651 20.7093 19.6142 30.0369 19.591C38.3852 19.5703 38.3907 19.5702 38.6213 19.3999C38.7483 19.3063 38.9233 19.1092 39.0104 18.962C39.1584 18.7117 39.1625 18.6342 39.0737 17.7565C38.7812 14.8659 37.7935 12.0874 36.1796 9.61502C34.4991 7.0409 31.7645 4.62598 28.9596 3.23936C27.0125 2.27678 24.346 1.54227 22.4159 1.43681C21.598 1.39213 21.4961 1.40274 21.2491 1.55757ZM16.9005 2.83354C16.0902 2.89829 14.5141 3.19048 13.5297 3.45846C7.09157 5.21099 1.9728 10.5553 0.51516 17.0464C0.184945 18.517 0.103516 19.3138 0.104006 21.0676C0.104824 24.1113 0.640165 26.4054 1.98563 29.1311C3.47148 32.141 5.90929 34.7972 8.84574 36.6058C14.3445 39.9925 21.5468 40.1914 27.2836 37.1151C28.6233 36.3966 30.5852 34.9858 30.9007 34.514C31.1303 34.1707 31.0896 33.6164 30.8073 33.2406C30.6769 33.067 27.9153 30.3026 24.6703 27.0974C21.4253 23.8923 18.7175 21.1716 18.653 21.0514C18.5532 20.8655 18.5354 19.558 18.5338 12.3102C18.5321 4.04388 18.5273 3.77711 18.3731 3.44082C18.2517 3.17615 18.1312 3.05685 17.8639 2.93674C17.6713 2.85022 17.4585 2.78498 17.391 2.79178C17.3236 2.79858 17.1028 2.81736 16.9005 2.83354ZM25.7711 22.1161C25.5045 22.2252 25.2307 22.5691 25.1588 22.8849C25.007 23.551 24.8917 23.4185 30.2548 28.7425C33.0048 31.4724 35.4322 33.8545 35.649 34.0361C35.9614 34.2976 36.1228 34.3727 36.4257 34.3976C36.9307 34.4392 37.1151 34.3305 37.6911 33.6525C40.0094 30.9236 41.4267 27.564 41.8425 23.8117C41.9276 23.0439 41.9228 22.9232 41.7964 22.6596C41.7188 22.4977 41.5353 22.2917 41.3887 22.202C41.1262 22.0414 41.0037 22.039 33.5283 22.044C29.3517 22.0468 25.861 22.0793 25.7711 22.1161Z" fill="white"/>
</svg>
