<svg width="32" height="32" viewBox="0 0 32 32" fill="none" xmlns="http://www.w3.org/2000/svg">
<path fill-rule="evenodd" clip-rule="evenodd" d="M15.5528 0.0377134C15.4603 0.0678177 15.2849 0.143511 15.1629 0.205979C14.8182 0.382551 1.86645 9.59541 1.57663 9.8702C1.18189 10.2445 1.04369 10.5637 1.01055 11.1774C0.983581 11.6784 0.994919 11.7338 1.20765 12.1389C1.45634 12.6126 1.8961 12.9991 2.33451 13.1292C2.70611 13.2395 3.36524 13.2212 3.69263 13.0914C3.9542 12.9877 5.65452 11.7967 13.2989 6.36275C15.8252 4.56692 16.0538 4.41926 16.1836 4.49867C16.2613 4.54612 18.9716 6.46496 22.2067 8.76279C25.4419 11.0606 28.2193 12.9993 28.3787 13.071C28.7452 13.2357 29.428 13.2457 29.8805 13.0929C30.3239 12.9432 30.8539 12.4182 31.005 11.979C31.2672 11.2167 31.0768 10.3533 30.535 9.849C30.1714 9.51048 17.1119 0.24871 16.8279 0.127894C16.5551 0.0118623 15.7973 -0.0417009 15.5528 0.0377134ZM11.3085 9.40501L6.56389 12.7723L6.58052 18.0888C6.59709 23.4015 6.59723 23.4054 6.74267 23.6745C6.93951 24.0388 7.27286 24.3564 7.63694 24.5267C7.92569 24.6617 8.05033 24.6687 10.5026 24.6874L13.0663 24.707L13.0854 20.4342C13.1045 16.1722 13.1049 16.1607 13.2543 15.8432C13.4787 15.3661 14.0084 14.8484 14.4985 14.6274C14.8799 14.4554 14.9972 14.4369 15.8592 14.4128C17.2391 14.3741 17.7609 14.5305 18.3904 15.1716C18.5303 15.314 18.7265 15.595 18.8265 15.796C18.9975 16.1401 19.0095 16.2248 19.0307 17.2414C19.0432 17.8354 19.0656 18.3213 19.0807 18.3213C19.0958 18.3213 19.3448 18.1475 19.6341 17.935C20.6082 17.2196 21.9193 16.6486 23.1156 16.4189C23.4789 16.3491 24.0574 16.3037 24.6265 16.3002L25.5487 16.2945L25.5489 14.5293L25.5492 12.7641L23.3521 11.2069C22.1437 10.3503 20.038 8.85536 18.6728 7.88464C17.3075 6.91393 16.1596 6.10124 16.1218 6.07872C16.084 6.05619 13.918 7.55303 11.3085 9.40501ZM23.7043 17.664C22.7111 17.8058 21.5907 18.2317 20.7189 18.7988C20.1204 19.1883 19.1893 20.0908 18.7777 20.6806C16.8707 23.4132 17.0662 27.0252 19.2566 29.5297C21.9703 32.6324 26.7761 32.8425 29.7648 29.9891C32.7618 27.1277 32.7424 22.395 29.7221 19.5726C28.1138 18.0697 25.863 17.3559 23.7043 17.664ZM25.1347 19.4181C25.3079 19.5624 25.3405 19.6446 25.3803 20.0376L25.4262 20.4907L25.7906 20.6133C26.2961 20.7835 26.9337 21.2118 27.139 21.5191C27.4667 22.0096 27.1871 22.5745 26.6166 22.5745C26.3995 22.5745 26.3046 22.5298 26.1073 22.3343C25.6095 21.8412 24.8666 21.6272 24.2594 21.8021C23.3903 22.0524 23.0253 22.8964 23.4905 23.5805C23.7264 23.9274 24.1123 24.1013 24.8036 24.1722C26.0708 24.302 26.8874 24.8291 27.3423 25.811C27.4883 26.1261 27.5209 26.2935 27.5212 26.7296C27.5215 27.1848 27.4918 27.3258 27.3182 27.6934C26.991 28.3858 26.3734 28.899 25.5324 29.177C25.4392 29.2079 25.415 29.2927 25.415 29.5886C25.415 29.9119 25.3891 29.987 25.2189 30.1555C25.0077 30.3648 24.6602 30.4166 24.3987 30.278C24.2228 30.1847 24.0733 29.8247 24.0733 29.4942C24.0733 29.245 24.0595 29.2279 23.7825 29.1344C23.2128 28.9421 22.479 28.3825 22.3304 28.027C22.2252 27.7756 22.3368 27.4131 22.5648 27.2651C22.8663 27.0694 23.1405 27.1292 23.5935 27.4893C24.1854 27.9599 24.682 28.067 25.2892 27.8549C25.9194 27.6347 26.31 27.0067 26.16 26.4549C26.0162 25.9256 25.3564 25.4985 24.6827 25.4985C22.928 25.4985 21.5954 23.9124 22.0261 22.3366C22.2412 21.5492 22.8027 20.9525 23.6483 20.6126L24.0397 20.4553L24.0595 20.0231C24.0772 19.6348 24.1 19.5736 24.2827 19.4212C24.55 19.1985 24.8698 19.1973 25.1347 19.4181Z" fill="white"/>
</svg>
