<svg width="42" height="42" viewBox="0 0 42 42" fill="none" xmlns="http://www.w3.org/2000/svg">
<path fill-rule="evenodd" clip-rule="evenodd" d="M25.2794 0.200159C25.0903 0.261964 24.759 0.443621 24.5432 0.603777C24.3275 0.764014 21.2617 3.78506 17.7304 7.31732L11.31 13.7396H18.5138H25.7176L28.7785 10.492C30.4621 8.70582 32.0946 6.97452 32.4066 6.64465L32.9738 6.04498L30.2391 3.30541C28.2631 1.32591 27.391 0.507389 27.0955 0.355082C26.6012 0.100337 25.7953 0.0315822 25.2794 0.200159ZM32.6165 9.99189C31.4693 11.2097 30.2056 12.5511 29.8081 12.9729L29.0854 13.7396L30.994 13.7329L32.9028 13.7262L34.7431 11.7642C35.7553 10.6852 36.5927 9.77721 36.6042 9.74655C36.6156 9.71597 36.1924 9.26044 35.6636 8.73427L34.7022 7.77767L32.6165 9.99189ZM37.329 12.5764L36.2752 13.6988L38.2696 13.7527C39.3666 13.7825 40.3904 13.8463 40.5449 13.8944C40.6994 13.9426 40.8361 13.9718 40.8487 13.9592C40.8613 13.9466 40.3117 13.3777 39.6272 12.6952L38.3828 11.4541L37.329 12.5764ZM2.03815 16.2797C1.31126 16.4235 0.621341 16.996 0.276259 17.7414L0.104004 18.1135V29.0685V40.0235L0.317564 40.4786C0.570139 41.0169 1.00176 41.4598 1.52498 41.7174L1.90344 41.9038H21.002H40.1005L40.4767 41.7185C40.9889 41.4663 41.4301 41.012 41.6862 40.4731L41.8999 40.0235V29.0685V18.1135L41.6725 17.6507C41.4107 17.1178 40.9394 16.6587 40.3967 16.4078L40.0187 16.2331L21.2064 16.2211C10.8597 16.2145 2.23396 16.2408 2.03815 16.2797ZM11.41 21.2227C11.8897 21.423 12.1961 21.7006 12.4568 22.1709L12.7 22.6099V24.899V27.1881L12.4568 27.6272C12.323 27.8687 12.1001 28.1526 11.9616 28.2582C11.3945 28.6905 11.3132 28.7006 8.38229 28.7006H5.65435L5.21079 28.4758C4.70597 28.2199 4.28548 27.7218 4.15011 27.2194C4.09335 27.0086 4.07036 26.102 4.08656 24.7089C4.1106 22.6337 4.12067 22.5117 4.29464 22.1864C4.50738 21.7886 4.99773 21.3516 5.39082 21.2094C5.58475 21.1393 6.46917 21.1081 8.3881 21.1037C10.6574 21.0986 11.1602 21.1183 11.41 21.2227ZM6.52471 24.899V26.248H8.40593H10.2872V24.899V23.5501H8.40593H6.52471V24.899ZM9.95999 35.4044V36.6307H6.93367H3.90735V35.4044V34.1781H6.93367H9.95999V35.4044ZM19.3661 35.4044V36.6307H16.3398H13.3135V35.4044V34.1781H16.3398H19.3661V35.4044ZM28.6904 35.4044V36.6307H25.6641H22.6378V35.4044V34.1781H25.6641H28.6904V35.4044ZM38.0966 35.4044V36.6307H35.0703H32.0439V35.4044V34.1781H35.0703H38.0966V35.4044Z" fill="white"/>
</svg>
