<svg width="42" height="42" viewBox="0 0 42 42" fill="none" xmlns="http://www.w3.org/2000/svg">
<path fill-rule="evenodd" clip-rule="evenodd" d="M35.1862 0.273163C34.8416 0.455135 34.5527 0.9368 34.5527 1.3294C34.5527 1.69636 34.8413 2.20244 35.1454 2.36857C35.3641 2.48817 35.6861 2.52017 37.0079 2.55397L38.6061 2.59479L35.5033 6.10523C31.315 10.8438 29.6454 12.4899 27.0834 14.4069C20.2979 19.4839 11.8206 22.1698 3.57336 21.8557C0.942936 21.7555 0.965874 21.7548 0.701795 21.9506C0.57502 22.0445 0.385389 22.2466 0.280411 22.3996C-0.0799946 22.9247 0.172575 23.7634 0.777549 24.0505C1.33893 24.3169 4.3736 24.4257 6.84003 24.2679C16.5811 23.6444 25.6363 19.6632 32.4606 13.0037C33.2197 12.2628 35.0939 10.2452 36.6253 8.52001L39.4098 5.38339L39.4518 5.98923C39.476 6.33717 39.555 6.70764 39.6372 6.85957C39.8018 7.16335 40.3077 7.45226 40.6751 7.45226C41.0881 7.45226 41.5503 7.16384 41.7432 6.78569C41.9104 6.45807 41.9147 6.36435 41.8872 3.69046C41.8599 1.04391 41.8519 0.92382 41.688 0.702662C41.594 0.575878 41.3958 0.389498 41.2473 0.288511C40.9804 0.106866 40.9476 0.104825 38.2345 0.108417C35.6649 0.111846 35.4722 0.122214 35.1862 0.273163ZM37.5933 10.8176C37.4922 10.8663 37.0167 11.3689 36.5365 11.9345C36.0564 12.5001 34.8855 13.7527 33.9344 14.7181C32.9833 15.6834 32.164 16.5535 32.1137 16.6516C32.0473 16.7808 32.0221 19.9437 32.0221 28.1422V39.4544H30.7976H29.5732V30.0628C29.5732 20.8113 29.5707 20.6663 29.4088 20.349C29.2205 19.9798 28.752 19.698 28.3267 19.698C28.1548 19.698 27.8733 19.8089 27.5684 19.9967C25.7187 21.136 24.471 21.8661 23.6179 22.3085C22.957 22.6511 22.5715 22.9042 22.4494 23.0754L22.2671 23.3309L22.2455 31.3927L22.2239 39.4544H21.0006H19.7773L19.7771 32.5356C19.7771 24.8193 19.8095 25.2609 19.2142 24.8632C18.8022 24.588 18.4516 24.6273 16.8922 25.1239C16.1219 25.3692 14.9774 25.7038 14.3488 25.8674C13.0317 26.2101 12.8354 26.3062 12.6014 26.7226C12.4321 27.024 12.4304 27.0849 12.4304 33.2406V39.4544H11.206H9.98147V33.6963C9.98147 27.5106 9.98866 27.622 9.56344 27.237C9.23813 26.9424 8.89422 26.9025 7.65496 27.0158C7.0264 27.0733 5.81343 27.1501 4.95939 27.1864C3.5474 27.2466 3.38365 27.269 3.15312 27.4331C2.61541 27.8161 2.6346 27.5797 2.6346 33.8133V39.4544H1.85583C1.23648 39.4544 1.01118 39.4881 0.754937 39.6188C0.392736 39.8036 0.104004 40.2739 0.104004 40.679C0.104004 41.0841 0.392736 41.5544 0.754937 41.7392C1.07518 41.9026 1.19379 41.9036 21.0018 41.9036C40.8098 41.9036 40.9284 41.9026 41.2486 41.7392C41.6109 41.5544 41.8996 41.0841 41.8996 40.679C41.8996 40.2739 41.6109 39.8036 41.2486 39.6188C40.9924 39.4881 40.7671 39.4544 40.1478 39.4544H39.369V25.5542C39.369 12.1822 39.3633 11.6432 39.2178 11.3696C38.9171 10.8036 38.1575 10.5455 37.5933 10.8176Z" fill="white"/>
</svg>
