<svg width="31" height="31" viewBox="0 0 31 31" fill="none" xmlns="http://www.w3.org/2000/svg">
<path fill-rule="evenodd" clip-rule="evenodd" d="M13.1786 0.136282C12.9871 0.248343 12.6531 0.723524 11.2325 2.90504L9.51768 5.53855L5.07668 5.56882C0.975791 5.59679 0.62066 5.60732 0.439524 5.70631C0.21401 5.8295 0 6.20479 0 6.47692C0 6.77733 0.214132 7.1261 0.482749 7.26316C0.719099 7.38376 0.820504 7.38503 9.98917 7.38503C19.1578 7.38503 19.2592 7.38376 19.4956 7.26316C19.7642 7.1261 19.9783 6.77733 19.9783 6.47692C19.9783 6.20479 19.7643 5.8295 19.5388 5.70631C19.3588 5.60787 19.0287 5.59661 15.514 5.56882L11.6852 5.53855L12.8891 3.69206L14.0929 1.84558L15.8097 1.81531C17.3009 1.78904 17.5522 1.77093 17.7226 1.67782C17.9481 1.55462 18.1621 1.17933 18.1621 0.907204C18.1621 0.606803 17.948 0.258029 17.6794 0.120966C17.454 0.00599933 17.3265 -0.000841732 15.4251 6.63747e-05C13.4497 0.00109556 13.4051 0.00375935 13.1786 0.136282ZM1.17709 9.64016C1.19755 9.8816 1.48596 14.6151 1.81803 20.1591C2.49269 31.4218 2.41187 30.6227 2.9017 30.8725C3.13466 30.9914 3.24588 30.9958 6.02062 30.9958H8.89793L8.68749 30.6668C8.29222 30.0489 8.07186 29.3633 8.01307 28.5688C7.9693 27.9772 8.04207 27.5748 8.28581 27.0607C8.48208 26.6468 9.0764 26.0397 9.45944 25.8617C9.61763 25.7883 9.74701 25.7178 9.74701 25.705C9.74701 25.6923 9.66479 25.5061 9.5643 25.2914C9.34581 24.8245 9.20463 24.2004 9.20317 23.6952C9.2019 23.2463 9.38007 22.5218 9.59693 22.0938C9.72534 21.8405 9.74126 21.7667 9.6766 21.7257C9.63204 21.6975 9.57405 21.674 9.54765 21.6735C9.45193 21.6717 8.85065 21.1909 8.64808 20.9543C8.04643 20.2514 7.87916 19.4105 8.08039 18.1007C8.20644 17.2805 8.37988 16.7063 8.7131 16.0064C9.12853 15.1338 9.55915 14.5223 10.2252 13.8592C10.8991 13.1883 11.5164 12.7533 12.3749 12.3446C13.6323 11.746 14.3938 11.6237 16.8672 11.6232L18.69 11.6229L18.7307 10.7602C18.753 10.2856 18.7876 9.74078 18.8075 9.54935L18.8437 9.20124H9.99184H1.13992L1.17709 9.64016ZM14.56 13.5272C11.9546 14.0148 10.0018 16.19 9.82759 18.7983C9.79532 19.2812 9.80616 19.3742 9.92124 19.5997C10.0078 19.7694 10.1313 19.8955 10.2903 19.9767C10.5268 20.0973 10.6267 20.0985 20.4021 20.0985C30.1776 20.0985 30.2774 20.0973 30.514 19.9767C30.673 19.8955 30.7964 19.7694 30.883 19.5997C30.9981 19.3741 31.0089 19.2814 30.9765 18.7983C30.8127 16.3592 29.0929 14.287 26.6681 13.6073L26.1837 13.4715L20.5837 13.4597C16.1825 13.4505 14.8931 13.4649 14.56 13.5272ZM12.2416 22.029C11.6287 22.2415 11.2028 22.7327 11.0661 23.3845C10.9289 24.0384 11.1988 24.7572 11.735 25.1662C12.2645 25.57 11.7994 25.5506 20.5266 25.5329L28.4237 25.5169L28.7677 25.348C29.4171 25.0291 29.7531 24.4777 29.7531 23.7309C29.7531 22.9842 29.4171 22.4328 28.7677 22.1139L28.4237 21.945L20.4929 21.9314C12.9343 21.9184 12.5471 21.923 12.2416 22.029ZM10.2774 27.4882C10.0141 27.6273 9.80755 27.9824 9.80755 28.2964C9.80755 29.5184 10.7526 30.6656 11.9748 30.9271C12.4255 31.0236 28.3717 31.0246 28.8294 30.9282C29.6026 30.7654 30.2903 30.2481 30.6488 29.5595C31.1469 28.6028 31.0935 27.7809 30.514 27.4852C30.2774 27.3645 30.1803 27.3634 20.3894 27.366C10.6666 27.3687 10.5 27.3707 10.2774 27.4882Z" fill="white"/>
</svg>
