<svg width="32" height="32" viewBox="0 0 32 32" fill="none" xmlns="http://www.w3.org/2000/svg">
<rect width="32" height="32" fill="#6FDFA9"/>
<path fill-rule="evenodd" clip-rule="evenodd" d="M14.8643 1.05958C12.1792 1.44543 9.84501 3.14294 8.65991 5.57159C8.13414 6.64902 7.91718 7.51219 7.80386 8.977C7.77399 9.36356 7.74336 9.46512 7.61237 9.6117C7.29617 9.96567 6.72246 9.87979 6.51753 9.4478C6.43061 9.26459 6.41993 9.13738 6.45197 8.6674C6.53331 7.47345 6.83161 6.25771 7.28684 5.26522C7.51882 4.7595 7.54206 4.44603 7.36595 4.19859C7.12862 3.86522 6.76319 3.87174 5.82169 4.22624C3.40389 5.13655 1.67994 7.17389 1.10799 9.79684C0.962097 10.4659 0.964444 11.9626 1.11251 12.6523C1.57513 14.8078 2.87789 16.6534 4.65238 17.6672L5.07597 17.9093L5.07785 20.7917L5.07973 23.6741L5.21382 23.8736C5.29041 23.9876 5.43507 24.1031 5.55127 24.1432C5.81518 24.234 26.0616 24.2513 26.387 24.1609C26.5024 24.1288 26.6608 24.0344 26.7391 23.9511L26.8815 23.7995L26.8981 20.8544L26.9148 17.9093L27.3382 17.6625C31.1353 15.4497 32.1706 10.323 29.5376 6.77083C28.0906 4.81867 25.9126 3.72298 23.5071 3.73696C23.1036 3.73936 22.6546 3.76014 22.5094 3.78315L22.2453 3.82507L21.667 3.27948C20.4555 2.13654 19.0006 1.3872 17.4677 1.1167C16.7351 0.987434 15.5479 0.96137 14.8643 1.05958ZM8.92423 14.8456C9.07135 14.9927 9.12799 15.1103 9.15756 15.3299C9.27816 16.2256 9.81232 17.2725 10.9785 18.8989C11.3306 19.3901 11.212 19.9095 10.7137 20.0589C10.2739 20.1906 10.0506 19.998 9.22341 18.7737C8.25879 17.346 7.66912 15.7891 7.84776 15.142C7.9244 14.8643 8.20486 14.6513 8.49389 14.6513C8.68286 14.6513 8.76871 14.69 8.92423 14.8456ZM16.436 14.8456C16.574 14.9836 16.6414 15.1154 16.6686 15.3005C16.6896 15.4439 16.6986 16.4738 16.6885 17.5891C16.6679 19.862 16.6693 19.8546 16.2401 20.0348C16.0533 20.1133 15.9942 20.1147 15.7952 20.0447C15.669 20.0002 15.5105 19.8893 15.4431 19.7982C15.3251 19.639 15.3197 19.555 15.302 17.5969C15.2919 16.4772 15.3009 15.4439 15.322 15.3005C15.3772 14.9248 15.6608 14.6513 15.9953 14.6513C16.196 14.6513 16.2778 14.6873 16.436 14.8456ZM23.9116 14.8018C24.01 14.8846 24.114 15.0377 24.1428 15.142C24.2618 15.5731 24.0077 16.5307 23.5134 17.5137C22.992 18.5506 22.068 19.8563 21.7328 20.0297C21.4893 20.1556 21.1828 20.0891 20.9735 19.8651C20.7292 19.6034 20.7423 19.2752 21.012 18.8989C22.1782 17.2725 22.7124 16.2256 22.833 15.3299C22.9137 14.7303 23.4909 14.4477 23.9116 14.8018ZM5.45068 25.6647C5.11822 25.8287 5.07961 26.0033 5.08061 27.3399C5.08154 28.6865 5.14575 29.0909 5.44 29.6054C5.79041 30.2181 6.43631 30.7269 7.10438 30.9166C7.3518 30.9869 8.75034 31 16.0246 31C24.2584 31 24.6656 30.9951 24.9621 30.8917C25.9209 30.5574 26.6039 29.8298 26.8201 28.9121C26.9477 28.3708 26.9489 26.1662 26.8218 25.9203C26.6275 25.5444 27.4156 25.5699 16.0129 25.5713C6.71101 25.5725 5.61793 25.5822 5.45068 25.6647Z" fill="white"/>
</svg>
