<svg width="42" height="42" viewBox="0 0 42 42" fill="none" xmlns="http://www.w3.org/2000/svg">
<path fill-rule="evenodd" clip-rule="evenodd" d="M27.8028 0.231443C27.6567 0.304188 27.4563 0.478041 27.3575 0.61781C27.1895 0.855662 27.1763 0.973036 27.1529 2.44331C27.1315 3.78206 27.148 4.05751 27.2641 4.30444C27.689 5.20836 28.9712 5.20869 29.4045 4.30493C29.5474 4.007 29.5664 3.80021 29.5664 2.5476C29.5664 1.29499 29.5474 1.0882 29.4045 0.790273C29.1153 0.187224 28.3961 -0.0637064 27.8028 0.231443ZM19.4777 0.533458C18.3701 0.899882 17.6256 2.06544 17.7822 3.18792C17.9071 4.08253 17.7118 3.86903 26.6285 12.8567C35.9335 22.2356 35.2664 21.6346 36.3676 21.6313C37.6962 21.6273 38.7324 20.5967 38.749 19.2627C38.7634 18.1073 39.3962 18.8266 30.0627 9.39023C23.2232 2.47535 21.5938 0.86825 21.2476 0.696359C20.7371 0.442813 19.9662 0.371866 19.4777 0.533458ZM35.1025 2.67732C34.9633 2.74663 34.2286 3.43656 33.4699 4.21044C31.9933 5.71651 31.9081 5.85293 32.0308 6.51303C32.1012 6.89164 32.5542 7.34576 32.9332 7.41753C33.5411 7.53269 33.7986 7.36759 35.213 5.95617C36.8761 4.29659 37.0462 3.98215 36.6866 3.23222C36.4081 2.65157 35.672 2.39369 35.1025 2.67732ZM17.2586 6.92065C17.2581 6.96553 17.1516 7.46567 17.022 8.0321C16.1442 11.8687 14.3513 15.573 11.8891 18.6374L11.4064 19.2382L15.8048 23.6791L20.2033 28.12L20.452 27.9142C23.7076 25.2192 27.5129 23.2601 31.0643 22.4507C31.5987 22.3289 32.1179 22.2055 32.2182 22.1763C32.3781 22.1298 31.4726 21.1867 24.8301 14.4813C20.6663 10.278 17.2592 6.87578 17.2586 6.92065ZM35.0898 10.0398C34.6686 10.2494 34.4649 10.6047 34.4649 11.1299C34.4649 11.464 34.5113 11.6451 34.6454 11.835C34.9737 12.2995 35.2128 12.3559 36.8546 12.3559C38.2207 12.3559 38.3524 12.3428 38.6439 12.1774C38.9753 11.9894 39.2824 11.4856 39.2824 11.1299C39.2824 10.7742 38.9753 10.2704 38.6439 10.0824C38.3517 9.91661 38.2228 9.90402 36.8424 9.90574C35.6389 9.90721 35.3048 9.93279 35.0898 10.0398ZM6.5245 24.39C3.57061 27.3887 3.26221 27.7273 3.05842 28.1966C2.58493 29.2869 2.59513 30.315 3.09024 31.3864C3.31492 31.8726 3.57677 32.1679 5.50368 34.1084C7.43375 36.0521 7.72572 36.3145 8.23184 36.5605C8.77893 36.8264 8.83244 36.8359 9.7744 36.8359C10.7374 36.8359 10.7581 36.832 11.3532 36.533C11.9126 36.2521 12.188 35.9959 15.1542 32.9979L18.3521 29.7654L14.0595 25.432L9.76696 21.0986L6.5245 24.39ZM12.044 26.9545C12.534 27.1893 12.8225 27.8726 12.6519 28.3944C12.5179 28.8045 10.4267 30.8718 10.0675 30.9494C9.51167 31.0694 8.96499 30.8208 8.71602 30.3347C8.56388 30.0379 8.56202 29.4959 8.71205 29.21C8.87349 28.9023 10.7783 27.0115 11.0252 26.9137C11.3323 26.7922 11.739 26.8085 12.044 26.9545ZM23.0171 29.003C22.5556 29.3551 22.1234 29.6874 22.0566 29.7415C21.9533 29.825 22.0592 29.973 22.7576 30.7215C24.0757 32.1345 24.0683 32.3747 22.662 33.8275C22.1681 34.3378 21.7346 34.7453 21.6986 34.733C21.6626 34.7208 21.0922 34.1896 20.431 33.5526L19.2289 32.3944L17.5146 34.1264L15.8003 35.8584L18.639 38.6358C21.8862 41.8129 22.0073 41.9036 23.0024 41.9036C23.5105 41.9036 23.6948 41.8643 24.0789 41.6738C25.2025 41.1168 25.7064 39.8164 25.2627 38.6191C25.1226 38.241 24.9288 37.9829 24.278 37.3076L23.4676 36.4668L24.4941 35.4115C25.3055 34.5773 25.5721 34.2448 25.7669 33.8247C26.2646 32.7508 26.2651 31.6857 25.7682 30.6139C25.5842 30.2169 25.3154 29.8705 24.6895 29.224L23.8559 28.3629L23.0171 29.003Z" fill="white"/>
</svg>
