<svg width="33" height="32" viewBox="0 0 33 32" fill="none" xmlns="http://www.w3.org/2000/svg">
<path fill-rule="evenodd" clip-rule="evenodd" d="M14.5028 1.03416C14.0366 1.09741 13.2718 1.31141 12.7998 1.51066C11.7297 1.96241 11.4051 2.23622 8.45801 5.17322C6.57564 7.04922 5.69595 7.96854 5.62989 8.1286C5.4997 8.44435 5.5087 8.91373 5.65026 9.19141L5.76645 9.41935L5.52864 9.65154L5.29076 9.88379L5.0617 9.68272C4.68714 9.35379 4.27008 9.27016 3.92158 9.45404C3.82876 9.50298 3.14333 10.1569 2.39833 10.9072C1.25864 12.0549 1.0372 12.3076 1.0017 12.5007C0.908139 13.0095 0.901889 13.0017 3.24333 15.3449C5.13801 17.2411 5.47189 17.5494 5.66983 17.5854C6.15801 17.6741 6.22964 17.6242 7.67939 16.1865C8.42964 15.4425 9.08358 14.7578 9.13251 14.665C9.2352 14.4704 9.24826 14.1308 9.16189 13.9035C9.12901 13.8172 9.00345 13.6373 8.88283 13.5037L8.66351 13.261L8.89826 13.0318L9.13295 12.8026L9.37795 12.9275C9.68545 13.0843 10.112 13.0863 10.4403 12.9327C10.8158 12.757 16.2841 7.25716 16.2841 7.05522C16.2841 6.97254 16.1746 6.73422 16.041 6.5256C15.7086 6.0071 15.6385 5.75185 15.6725 5.18491C15.7227 4.34897 16.206 3.66622 17.0156 3.28735C17.7272 2.95435 18.5038 3.04097 19.1371 3.5241C19.469 3.77716 19.6827 3.78841 19.9066 3.5646C20.244 3.22716 20.1661 3.02697 19.479 2.46479C18.6063 1.75079 17.5755 1.27916 16.4762 1.09091C15.9383 0.998725 14.969 0.970912 14.5028 1.03416ZM13.1742 11.1936C12.3753 11.9931 11.7216 12.6752 11.7216 12.7095C11.7216 12.7437 13.1278 14.1777 14.8465 15.8961L17.9713 19.0205L19.4716 17.5212L20.9718 16.0219L17.8313 12.881C16.104 11.1534 14.6764 9.73997 14.6588 9.73997C14.6412 9.73997 13.9731 10.3941 13.1742 11.1936ZM22.0653 16.0044C21.8541 16.0585 21.5273 16.3549 19.9569 17.9166C18.3151 19.5493 18.0866 19.8004 17.9967 20.0709C17.8734 20.4422 17.9156 20.7913 18.1268 21.1462C18.2086 21.2837 20.4079 23.5222 23.0141 26.1205C28.102 31.1929 27.8731 30.99 28.506 30.99C28.9623 30.99 29.1974 30.8005 31.0443 28.9447C32.9371 27.0426 32.9725 26.9963 32.9698 26.4275C32.9674 25.9012 32.9323 25.8625 27.9531 20.8859C23.3304 16.2656 23.1803 16.1227 22.8508 16.0265C22.4703 15.9155 22.4183 15.914 22.0653 16.0044Z" fill="white"/>
</svg>
