<svg width="29" height="30" viewBox="0 0 29 30" fill="none" xmlns="http://www.w3.org/2000/svg">
<path fill-rule="evenodd" clip-rule="evenodd" d="M6.18599 6.94476V13.8895H5.43162H4.67725L4.69244 16.1303L4.70763 18.3711L5.44681 18.3875L6.18599 18.4039V19.3981V20.3923H5.43162H4.67725L4.69244 22.6331L4.70763 24.8739L5.44681 24.8903L6.18599 24.9067V27.4534V30H8.41803H10.6501V27.4522V24.9043L13.4184 24.8892L16.1867 24.8739L16.2019 22.6331L16.2171 20.3923H13.4336H10.6501V19.4018V18.4113L14.346 18.3842C18.3349 18.3549 18.491 18.344 19.6193 18.0151C23.0075 17.0273 25.5364 14.1431 26.1025 10.6209C26.2111 9.94536 26.225 8.5851 26.1299 7.93518C25.5857 4.21458 22.9443 1.22973 19.3753 0.302175C18.3851 0.0448166 18.4335 0.0466913 12.2009 0.0229649L6.18599 0V6.94476ZM18.0588 4.60785C19.769 4.95929 21.1589 6.2929 21.6183 8.02311C21.778 8.62471 21.7885 9.70482 21.6402 10.2866C21.3625 11.3763 20.7047 12.3605 19.8391 12.9815C19.369 13.3187 18.9864 13.5061 18.3785 13.6965L17.868 13.8565L14.259 13.8762L10.6501 13.896V9.20598V4.51605H14.131C17.063 4.51605 17.6824 4.53052 18.0588 4.60785Z" fill="white"/>
</svg>
