<svg width="38" height="38" viewBox="0 0 38 38" fill="none" xmlns="http://www.w3.org/2000/svg">
<path fill-rule="evenodd" clip-rule="evenodd" d="M13.8862 1.90779C8.82418 2.52507 4.48739 5.54643 2.25889 10.0084C-0.206748 14.9451 0.317038 20.7736 3.62211 25.1786C4.14861 25.8802 5.38004 27.1553 6.06368 27.7066C10.3236 31.1421 16.0068 31.9306 20.9933 29.7781C25.4466 27.8557 28.65 23.8193 29.5312 19.0199C29.595 18.6726 29.6327 18.3739 29.6149 18.3561C29.5972 18.3384 29.2335 18.7029 28.8068 19.1661C27.3305 20.7689 26.8688 21.1119 25.9993 21.2519C25.7499 21.292 25.5379 21.334 25.5282 21.3452C25.5185 21.3564 25.4285 21.5289 25.3282 21.7286C24.9658 22.4502 24.2393 23.4406 23.5342 24.1739C21.7354 26.0449 19.8207 27.0852 17.2433 27.592C16.3798 27.7619 14.3694 27.7627 13.4576 27.5936C8.83189 26.7359 5.25054 23.2666 4.27482 18.6983C4.08625 17.8153 4.01289 15.9774 4.13032 15.0798C4.68868 10.8146 7.60518 7.20057 11.6152 5.80479C12.957 5.33779 13.6965 5.22257 15.3505 5.22307C16.9456 5.2235 17.3835 5.28486 18.7433 5.69843C20.5869 6.25922 22.5846 7.52936 23.7896 8.90693C24.6723 9.916 25.5117 11.3127 25.9252 12.4606L26.0882 12.913L27.3368 11.6644L28.5855 10.4156L28.2462 9.78343C26.0132 5.62186 22.0402 2.76786 17.4219 2.00786C16.58 1.86936 14.6496 1.81472 13.8862 1.90779ZM32.529 9.58343C32.4112 9.64386 30.7484 11.2581 28.834 13.1706L25.3533 16.6479L23.5115 14.8149C22.4985 13.8067 21.5797 12.9476 21.4697 12.9058C21.2108 12.8074 20.8113 12.8087 20.6136 12.9087C20.5278 12.9521 19.1643 14.2774 17.5837 15.8537L14.7098 18.7199L13.3694 17.3908C11.8997 15.9336 11.7407 15.8291 11.2097 15.9721C10.9693 16.0369 10.5468 16.3995 8.85439 17.9939C7.72018 19.0626 6.78925 19.9851 6.78568 20.0441C6.77911 20.152 7.46561 21.3417 7.75768 21.7286L7.91497 21.9369L9.6869 20.1689L11.4589 18.401L12.7432 19.6868C13.4495 20.394 14.1291 21.0208 14.2533 21.0798C14.538 21.2149 14.873 21.2166 15.1219 21.0844C15.228 21.0281 16.5843 19.7102 18.1358 18.1559C19.6875 16.6015 20.9895 15.3298 21.0292 15.3298C21.069 15.3298 21.9049 16.1355 22.8867 17.1202C23.8685 18.105 24.7587 18.9568 24.8648 19.0131C25.1356 19.1569 25.6298 19.1413 25.8862 18.9809C26.004 18.9071 27.858 17.1068 30.006 14.9801C32.9518 12.0636 33.932 11.0511 33.9952 10.8599C34.274 10.0152 33.315 9.18036 32.529 9.58343ZM29.3015 25.5619C27.9848 27.5714 26.4291 29.0772 23.9204 30.7707L23.7433 30.8903L26.2076 33.3654C27.563 34.7267 28.8689 35.9828 29.1097 36.1567C30.9372 37.4765 33.3283 37.2737 34.8122 35.6731C35.6252 34.7961 35.9614 33.8552 35.9042 32.6164C35.8654 31.7761 35.6891 31.1901 35.277 30.5313C35.0694 30.1995 29.8934 24.9012 29.7767 24.9012C29.7535 24.9012 29.5396 25.1986 29.3015 25.5619Z" fill="white"/>
</svg>
