<svg width="32" height="32" viewBox="0 0 32 32" fill="none" xmlns="http://www.w3.org/2000/svg">
<g clip-path="url(#clip0_425_498)">
<rect width="32" height="32" fill="#6FDFA9"/>
<path fill-rule="evenodd" clip-rule="evenodd" d="M20.9805 1.29062V3.04623C20.9805 3.38052 20.8134 3.6927 20.5353 3.87818L17.9922 5.57422L15.4491 7.27026C15.1709 7.45574 15.0039 7.76792 15.0039 8.10221V9.32657V10.0859C15.0039 10.6382 15.4516 11.0859 16.0039 11.0859H24.002H32C32.5523 11.0859 33 10.6382 33 10.0859V9.33434V8.12039C33 7.78468 32.8315 7.47137 32.5515 7.28622L29.9785 5.58511L27.4055 3.88393C27.1255 3.69878 26.957 3.38547 26.957 3.04977V1.29374V-2.38419e-07C26.957 -0.552285 26.5093 -1 25.957 -1H23.9688H21.9805C21.4282 -1 20.9805 -0.552285 20.9805 -5.96046e-08V1.29062ZM-1 19.0215V21.9727C-1 22.5249 -0.552285 22.9727 -5.96046e-08 22.9727H6.00586H12.0117C12.564 22.9727 13.0117 22.5249 13.0117 21.9727V19.0215V16.0703C13.0117 15.518 12.564 15.0703 12.0117 15.0703H6.00586H1.19209e-07C-0.552285 15.0703 -1 15.518 -1 16.0703V19.0215ZM15.0039 24.0352V32C15.0039 32.5523 15.4516 33 16.0039 33H24.002H32C32.5523 33 33 32.5523 33 32V24.0352V16.0703C33 15.518 32.5523 15.0703 32 15.0703H24.002H16.0039C15.4516 15.0703 15.0039 15.518 15.0039 16.0703V24.0352ZM10.0234 18.1914C10.0234 18.7415 9.57747 19.1875 9.02734 19.1875H6.03906H3.05078C2.50065 19.1875 2.05469 18.7415 2.05469 18.1914C2.05469 17.6413 2.50065 17.1953 3.05078 17.1953H6.03906H9.02734C9.57747 17.1953 10.0234 17.6413 10.0234 18.1914ZM20.9805 18.2246V18.2578C20.9805 18.8079 20.5345 19.2539 19.9844 19.2539C19.4342 19.2539 18.9883 18.8079 18.9883 18.2578V18.2246V18.1914C18.9883 17.6413 19.4342 17.1953 19.9844 17.1953C20.5345 17.1953 20.9805 17.6413 20.9805 18.1914V18.2246ZM24.9648 18.2246V18.2578C24.9648 18.8079 24.5189 19.2539 23.9688 19.2539C23.4186 19.2539 22.9727 18.8079 22.9727 18.2578V18.2246V18.1914C22.9727 17.6413 23.4186 17.1953 23.9688 17.1953C24.5189 17.1953 24.9648 17.6413 24.9648 18.1914V18.2246ZM28.9492 18.2246V18.2578C28.9492 18.8079 28.5033 19.2539 27.9531 19.2539C27.403 19.2539 26.957 18.8079 26.957 18.2578V18.2246V18.1914C26.957 17.6413 27.403 17.1953 27.9531 17.1953C28.5033 17.1953 28.9492 17.6413 28.9492 18.1914V18.2246ZM28.9492 25.0312V28.0156C28.9492 28.5679 28.5015 29.0156 27.9492 29.0156H23.9688H19.9883C19.436 29.0156 18.9883 28.5679 18.9883 28.0156V25.0312V22.0469C18.9883 21.4946 19.436 21.0469 19.9883 21.0469H23.9688H27.9492C28.5015 21.0469 28.9492 21.4946 28.9492 22.0469V25.0312ZM-1 28.9824V32C-1 32.5523 -0.552285 33 -5.96046e-08 33H6.00586H12.0117C12.564 33 13.0117 32.5523 13.0117 32V28.9824V25.9648C13.0117 25.4126 12.564 24.9648 12.0117 24.9648H6.00586H1.19209e-07C-0.552285 24.9648 -1 25.4126 -1 25.9648V28.9824ZM10.0234 28.0195C10.0234 28.5697 9.57747 29.0156 9.02734 29.0156H6.03906H3.00649C2.48082 29.0156 2.05469 28.5895 2.05469 28.0638C2.05469 27.5403 2.07461 27.092 2.09898 27.0677C2.12329 27.0434 3.91625 27.0234 6.08336 27.0234H9.02734C9.57747 27.0234 10.0234 27.4694 10.0234 28.0195Z" fill="white"/>
</g>
<defs>
<clipPath id="clip0_425_498">
<rect width="32" height="32" fill="white"/>
</clipPath>
</defs>
</svg>
