<svg width="38" height="38" viewBox="0 0 38 38" fill="none" xmlns="http://www.w3.org/2000/svg">
<path fill-rule="evenodd" clip-rule="evenodd" d="M32.9005 0.755712C32.7826 0.769053 32.3483 0.815676 31.9355 0.859286C31.0739 0.950379 29.5185 1.22488 28.6829 1.43325C27.4602 1.73816 26.3668 2.09393 26.3262 2.20001C26.3034 2.25954 26.2553 2.59422 26.2193 2.94368C25.9459 5.59529 27.4685 8.81849 29.8266 10.5799C30.2789 10.9177 30.4195 11.0674 30.4985 11.2953C30.7745 12.0905 30.0412 12.9155 29.2525 12.697C29.1148 12.6588 28.7913 12.4767 28.5334 12.292C25.9834 10.4662 24.072 6.82017 24.072 3.78167C24.072 3.39412 24.0479 3.07731 24.0184 3.07766C23.9889 3.07795 23.5466 3.30626 23.0355 3.58492C17.1447 6.7965 13.2613 12.3559 11.9917 19.395C11.6553 21.2597 11.4963 23.633 11.5944 25.3244C11.6553 26.3737 11.5485 26.2645 12.6372 26.3894C13.8587 26.5296 17.3859 26.4503 17.5568 26.2788C17.5767 26.2589 17.6183 25.8399 17.6491 25.3476C17.7745 23.3539 18.4466 21.3332 19.5655 19.5869C20.7472 17.7424 22.6064 17.1551 24.4294 18.0504C24.7319 18.199 25.2276 18.6453 26.5783 19.9848C27.5439 20.9425 28.3607 21.7261 28.3935 21.7261C28.5703 21.7261 30.387 20.0518 31.3121 19.0363C34.8007 15.2066 36.7769 10.6968 37.2211 5.55161C37.3654 3.88036 37.2728 1.57907 37.0434 1.13379C36.8388 0.736919 36.6879 0.708946 34.8163 0.720781C33.8806 0.726662 33.0185 0.742442 32.9005 0.755712ZM16.6184 1.89029C16.0112 2.20812 13.8296 4.25363 12.7095 5.55527C11.1711 7.34307 9.68495 9.57708 8.62739 11.6915C8.09411 12.7578 7.7732 13.5825 7.77349 13.8858C7.77378 14.2177 7.98223 14.5803 8.27547 14.7592C8.48578 14.8875 10.6952 15.3752 10.7621 15.3082C10.7802 15.2899 10.9678 14.8141 11.1788 14.2508C12.8692 9.73854 15.7444 5.95615 19.563 3.22083L20.3081 2.68704L19.2651 2.34433C18.2039 1.99566 17.354 1.78557 17.0081 1.78636C16.9025 1.78665 16.7272 1.83341 16.6184 1.89029ZM30.8663 4.36782C31.0057 4.40663 31.2288 4.55137 31.3621 4.68937C31.569 4.90348 31.6088 5.00096 31.6334 5.35357C31.6574 5.6985 31.6343 5.80825 31.4936 6.01783C31.4008 6.15591 31.213 6.32533 31.0762 6.39426C30.5759 6.64645 29.9759 6.48686 29.6609 6.01783C29.5202 5.80825 29.4971 5.6985 29.5211 5.35357C29.5458 5.00046 29.5854 4.90362 29.7937 4.68794C30.0043 4.46996 30.2862 4.32493 30.5415 4.30327C30.5808 4.2999 30.727 4.32895 30.8663 4.36782ZM22.1352 19.9561C21.7407 20.1647 21.3994 20.6129 20.8983 21.5806C20.3444 22.6501 19.8543 24.2024 19.8543 24.8867V25.0973H24.215C26.6133 25.0973 28.5756 25.0724 28.5756 25.0421C28.5756 25.0117 27.4738 23.8837 26.1272 22.5354C23.5483 19.9531 23.3524 19.7943 22.7429 19.791C22.5722 19.7901 22.3191 19.8588 22.1352 19.9561ZM5.66437 23.2761C3.4769 23.5166 2.04075 23.7058 1.83987 23.7799C0.625466 24.2279 0.322222 25.9444 1.30458 26.8098C1.44727 26.9356 2.9825 27.7392 4.71618 28.5958L7.86842 30.1531L9.43311 33.3454C10.2937 35.1012 11.0845 36.6295 11.1905 36.7417C11.5213 37.0917 11.9996 37.291 12.5068 37.2902C13.3468 37.2889 14.0176 36.8046 14.2449 36.0357C14.3032 35.8384 14.4952 34.2407 14.6717 32.4852C14.8482 30.7296 15.0125 29.1351 15.0369 28.9418C15.0721 28.6617 15.0613 28.5978 14.9836 28.6277C14.8196 28.6907 12.3522 28.5495 11.6841 28.439C10.6434 28.2667 10.07 27.8872 9.73278 27.1477C9.52375 26.6892 9.41753 25.6422 9.41745 24.0393C9.41738 22.9738 9.40666 22.8744 9.29228 22.8824C9.22344 22.8872 7.59092 23.0644 5.66437 23.2761ZM19.8242 27.5539C19.9016 28.1016 20.1981 29.2896 20.3756 29.7627C20.7024 30.6336 21.3031 31.7159 21.837 32.3955L21.9638 32.557L24.6082 29.903L27.2524 27.2491H23.5168H19.7811L19.8242 27.5539ZM30.9347 31.8396V36.215L31.167 36.2149C31.4762 36.2148 32.7245 35.9081 33.2988 35.6912C34.4344 35.2623 35.6913 34.5054 35.9702 34.0824C36.2225 33.6998 36.2772 33.2199 36.1175 32.79C36.011 32.5035 35.5979 32.0532 33.5187 29.9568C32.159 28.5859 31.0214 27.4643 30.9906 27.4643C30.9598 27.4643 30.9347 29.4332 30.9347 31.8396ZM26.1242 31.4661L23.4948 34.1051L23.98 34.4559C25.2085 35.3446 26.9137 36.0216 28.4863 36.2452L28.7901 36.2884V32.5578C28.7901 30.5059 28.7819 28.8271 28.7719 28.8271C28.7618 28.8271 27.5704 30.0146 26.1242 31.4661Z" fill="white"/>
</svg>
