<svg width="38" height="38" viewBox="0 0 38 38" fill="none" xmlns="http://www.w3.org/2000/svg">
<path fill-rule="evenodd" clip-rule="evenodd" d="M18.8458 5.33618C18.7869 5.35811 16.3796 6.48218 13.4962 7.83425C10.6129 9.18625 8.20765 10.2748 8.15129 10.2532C8.09501 10.2315 6.90444 9.50047 5.50565 8.62861C3.10708 7.13347 2.94294 7.04332 2.61815 7.04332C2.22808 7.04332 1.98058 7.18961 1.71444 7.5774C1.57965 7.77382 1.55358 7.88739 1.57944 8.16539C1.59708 8.35497 1.67451 8.59604 1.75144 8.70111C1.82837 8.80625 3.03022 9.60854 4.42215 10.484C7.61115 12.4898 7.78822 12.5903 8.13287 12.5903C8.42394 12.5903 8.75929 12.4388 15.5244 9.25082C17.4101 8.36218 19.0013 7.63054 19.0604 7.62482C19.1194 7.61918 21.5584 8.97504 24.4803 10.638C27.4021 12.3009 29.9027 13.6863 30.0371 13.7165C30.1714 13.7468 30.3843 13.7429 30.51 13.7077C30.6358 13.6725 31.4933 13.1793 32.4156 12.6116C33.3379 12.044 34.1059 11.5928 34.1222 11.609C34.1384 11.6253 34.0938 11.924 34.0229 12.2728L33.8942 12.9068L34.0529 13.2345C34.3509 13.85 35.1216 14.0276 35.6722 13.6075C35.7954 13.5135 35.9324 13.3463 35.9767 13.2359C36.0209 13.1255 36.2349 12.2017 36.4523 11.183C36.7267 9.89697 36.8334 9.2559 36.8014 9.0854C36.7469 8.79475 36.4261 8.40597 36.1497 8.29554C35.8986 8.19518 32.3986 7.35654 32.231 7.35654C31.9595 7.35654 31.5136 7.64454 31.3589 7.91982C30.9897 8.57682 31.3237 9.28654 32.0964 9.48718C32.2532 9.52789 32.5208 9.59747 32.6911 9.64182L33.0006 9.72239L31.7268 10.5108C31.0262 10.9444 30.3984 11.3283 30.3319 11.364C30.2386 11.4139 29.2124 10.8597 25.8676 8.95311C23.4788 7.59147 21.0438 6.20918 20.4564 5.88125C19.4245 5.30525 19.1652 5.21754 18.8458 5.33618ZM16.2248 13.0289L16.0244 13.2013L16.005 21.2432L15.9857 29.2851H18.9887H21.9916L21.9723 21.2432L21.9529 13.2013L21.7525 13.0289L21.5521 12.8565H18.9887H16.4252L16.2248 13.0289ZM5.37979 15.5263C5.26094 15.5788 5.12437 15.7083 5.07622 15.814C5.00908 15.9613 4.98865 17.5562 4.98865 22.6456V29.2851H7.95294H10.9172V22.5475V15.81L10.733 15.6368L10.5487 15.4637L8.07229 15.4473C6.13165 15.4343 5.54908 15.4515 5.37979 15.5263ZM27.2354 16.6033L27.0601 16.7786V23.0319V29.2851H30.0255H32.9909L32.9719 23.0408L32.9529 16.7966L32.7798 16.6123L32.6066 16.428H30.0086H27.4107L27.2354 16.6033ZM1.28994 31.5468C0.51908 31.9267 0.53108 33.0509 1.31008 33.428C1.60272 33.5696 1.75094 33.5708 18.9887 33.5708H36.3722L36.6761 33.4237C37.4482 33.0499 37.4479 31.9104 36.6757 31.5439C36.4523 31.4379 34.9354 31.4281 18.9779 31.4296C3.04622 31.4311 1.50394 31.4413 1.28994 31.5468Z" fill="white"/>
</svg>
