<svg width="38" height="38" viewBox="0 0 38 38" fill="none" xmlns="http://www.w3.org/2000/svg">
<path fill-rule="evenodd" clip-rule="evenodd" d="M9.02666 3.12635C7.8193 3.451 6.8723 4.4115 6.5538 5.63435C6.39287 6.25207 6.39287 31.7748 6.5538 32.3925C6.87644 33.6311 7.82537 34.5831 9.05737 34.9041C9.41944 34.9984 10.3695 35.0134 15.9622 35.0134H22.4472V31.957C22.4472 28.5956 22.4629 28.4418 22.8865 27.6471C23.1532 27.1466 23.7856 26.5263 24.2892 26.2711C25.0466 25.8873 25.2239 25.8706 28.5337 25.8706H31.5901V15.957C31.5901 7.4 31.5755 5.9875 31.4835 5.63435C31.1609 4.39571 30.2119 3.44371 28.9799 3.12278C28.3653 2.96271 9.6228 2.966 9.02666 3.12635ZM24.216 10.0614C24.6317 10.3718 24.6954 10.5369 24.7212 11.3694L24.7452 12.144L25.5198 12.168C26.1671 12.1881 26.3268 12.2162 26.4914 12.3393C26.8661 12.6194 26.9829 12.8476 26.9829 13.2991C26.9829 13.7507 26.8661 13.9789 26.4914 14.259C26.3268 14.3821 26.1671 14.4102 25.5198 14.4303L24.7452 14.4543L24.7212 15.2289C24.6953 16.0657 24.6325 16.2259 24.2054 16.5447C23.9289 16.7512 23.2513 16.7512 22.9747 16.5447C22.5477 16.2259 22.4849 16.0657 22.4589 15.2289L22.4349 14.4543L21.6604 14.4303C20.8235 14.4044 20.6634 14.3416 20.3445 13.9145C20.138 13.6379 20.138 12.9604 20.3445 12.6838C20.6639 12.256 20.8229 12.1939 21.6665 12.1679L22.4472 12.1436V11.4761C22.4472 10.5643 22.6079 10.2072 23.1258 9.96743C23.4104 9.83564 23.9793 9.88471 24.216 10.0614ZM16.6329 12.2924C16.7939 12.3655 16.9896 12.5175 17.0677 12.6301C17.1458 12.7427 17.7172 14.1527 18.3375 15.7634C18.9578 17.3741 19.882 19.7527 20.3913 21.0491C21.4139 23.6524 21.438 23.7668 21.0672 24.2529C20.6007 24.8646 19.7203 24.8736 19.275 24.2712C19.1847 24.1491 18.8732 23.4307 18.5826 22.6749L18.0544 21.3006H16.1615H14.2687L13.7419 22.6749C13.4522 23.4307 13.1417 24.1646 13.0518 24.3059C12.4727 25.2162 11.0187 24.7691 11.0187 23.6806C11.0187 23.4586 11.5483 22.0172 13.0662 18.1081C14.1923 15.2078 15.1775 12.7427 15.2555 12.6301C15.412 12.4043 15.8833 12.1594 16.1615 12.1594C16.2597 12.1594 16.4719 12.2193 16.6329 12.2924ZM15.6534 17.7469L15.1809 18.9777L15.6712 18.9987C15.9409 19.0102 16.3822 19.0102 16.6518 18.9987L17.1421 18.9777L16.6697 17.7469C16.4098 17.0699 16.1812 16.5161 16.1615 16.5161C16.1419 16.5161 15.9132 17.0699 15.6534 17.7469ZM25.4079 28.2568C25.1205 28.3819 24.8202 28.7469 24.7688 29.0334C24.7461 29.1599 24.7367 30.3966 24.7481 31.7816L24.7687 34.2999L27.8398 31.2281L30.9109 28.1563L28.2684 28.1591C26.2332 28.1612 25.5757 28.1837 25.4079 28.2568Z" fill="white"/>
</svg>
