<svg width="38" height="38" viewBox="0 0 38 38" fill="none" xmlns="http://www.w3.org/2000/svg">
<path fill-rule="evenodd" clip-rule="evenodd" d="M17.5045 0.742912C17.367 0.759126 16.9495 0.805698 16.5767 0.846412C13.3815 1.19563 10.0449 2.60848 7.36161 4.74863C6.58754 5.36605 5.24918 6.7032 4.62132 7.48655C2.78518 9.77727 1.47496 12.5938 0.924036 15.4346C0.710321 16.5366 0.707393 17.0991 0.91375 17.3885C1.22968 17.8314 1.31125 17.8437 3.92825 17.8437C6.51404 17.8437 6.60796 17.8309 6.94289 17.4328C7.07132 17.2803 7.16146 17.0313 7.25032 16.5838C8.61968 9.6882 15.7933 5.51634 22.4687 7.73348C23.3983 8.04227 24.2195 8.43734 25.1473 9.0222C25.8815 9.48498 25.9061 9.49441 26.3124 9.46805L26.7274 9.44113L28.4749 7.69598C30.3257 5.84763 30.4317 5.70405 30.3332 5.17927C30.2657 4.81948 30.0788 4.61734 29.302 4.06434C26.978 2.40984 24.3183 1.33605 21.484 0.908126C20.5852 0.772412 18.1217 0.670126 17.5045 0.742912ZM32.2187 7.70448C31.9995 7.79491 28.7492 11.0184 28.6068 11.2866C28.396 11.6837 28.4705 12.048 28.9012 12.7269C30.4555 15.1767 31.0816 17.7489 30.7864 20.4715C30.2343 25.5628 26.4131 29.7466 21.4072 30.7407C20.9597 30.8296 20.7108 30.9197 20.5582 31.0481C20.1601 31.3831 20.1473 31.477 20.1473 34.0628C20.1473 36.6631 20.1619 36.7632 20.584 37.0638C20.8975 37.287 21.1787 37.299 22.1711 37.1314C26.1269 36.4634 29.9587 34.3536 32.5806 31.3998C37.5117 25.8447 38.6728 18.1068 35.5677 11.4943C34.9454 10.1691 33.6439 8.14363 33.209 7.8237C32.9885 7.66134 32.4736 7.59934 32.2187 7.70448ZM17.416 11.6338C17.2527 11.7201 17.093 11.8843 17.0052 12.0564C16.865 12.3314 16.8616 12.4688 16.8616 17.9193C16.8616 24.0904 16.841 23.8093 17.3168 24.1487C17.5262 24.298 17.6262 24.3093 18.9098 24.3301C20.179 24.3505 20.3007 24.3413 20.5695 24.2041C20.7591 24.1073 20.9095 23.9583 21.0035 23.7741C21.144 23.4988 21.1473 23.3637 21.1473 17.9098V12.3274L20.9872 12.0425C20.7071 11.5441 20.4972 11.4861 18.9895 11.4897C17.8303 11.4925 17.653 11.5088 17.416 11.6338ZM10.9762 13.7913C10.408 14.1171 10.433 13.8783 10.433 18.9746C10.433 23.9772 10.4187 23.8137 10.8882 24.1487C11.0976 24.298 11.1977 24.3093 12.4812 24.3301C13.7505 24.3505 13.8721 24.3413 14.141 24.2041C14.3305 24.1073 14.481 23.9583 14.575 23.7741C14.7145 23.5005 14.7187 23.3613 14.7187 19.012C14.7187 14.6776 14.7141 14.5221 14.5759 14.2366C14.4848 14.0485 14.3323 13.8848 14.1555 13.7854C13.8978 13.6406 13.7836 13.6295 12.5662 13.6306C11.3406 13.6317 11.2362 13.6423 10.9762 13.7913ZM23.8325 18.0848C23.3012 18.4064 23.2965 18.4327 23.2932 21.1186C23.2899 23.7536 23.3016 23.8321 23.7454 24.1487C23.9547 24.298 24.0548 24.3093 25.3384 24.3301C26.6076 24.3505 26.7292 24.3413 26.9981 24.2041C27.1877 24.1073 27.3381 23.9583 27.4321 23.7741C27.5677 23.5084 27.5759 23.3566 27.5759 21.1241C27.5759 18.8031 27.5727 18.7503 27.4157 18.4711C27.1362 17.9736 26.9255 17.9151 25.418 17.9155C24.171 17.9158 24.0989 17.9236 23.8325 18.0848ZM1.27311 20.4196C0.974036 20.5775 0.71875 20.9996 0.71875 21.3361C0.71875 21.4529 0.798107 21.9765 0.895107 22.4996C2.03854 28.6674 6.20746 33.7639 12.02 36.1C13.3674 36.6415 15.1153 37.0959 16.4027 37.2395C16.9656 37.3023 17.3615 37.121 17.575 36.7027C17.7105 36.437 17.7187 36.2851 17.7187 34.0586C17.7187 31.4745 17.7062 31.3833 17.305 31.0457C17.1846 30.9444 16.9632 30.8396 16.8131 30.8127C12.0072 29.9527 8.18611 26.2443 7.25032 21.5321C7.16146 21.0847 7.07132 20.8357 6.94289 20.6831C6.60725 20.2843 6.51604 20.272 3.91746 20.2754C1.69182 20.2784 1.52311 20.2876 1.27311 20.4196Z" fill="white"/>
</svg>
