<svg width="35" height="36" viewBox="0 0 35 36" fill="none" xmlns="http://www.w3.org/2000/svg">
<path fill-rule="evenodd" clip-rule="evenodd" d="M13.1022 0.0759882C10.5697 0.333668 8.04735 1.32175 5.87226 2.90822C5.06627 3.49613 3.58554 4.94672 2.98418 5.73763C1.11644 8.19397 0.117931 10.9797 0.0105454 14.034C-0.0533901 15.8539 0.171376 17.4209 0.740133 19.1196C1.4498 21.2391 2.66897 23.1918 4.28316 24.7943C6.64963 27.1435 9.6402 28.5865 12.981 28.9911C13.8804 29.1001 16.1792 29.041 17.0362 28.8869C19.0289 28.5286 20.802 27.8565 22.4058 26.8516L23.0263 26.4627L27.3748 30.9467C29.7665 33.4128 31.8228 35.5136 31.9442 35.615C32.7054 36.2509 34.0295 36.0756 34.6105 35.2623C34.9024 34.8537 34.9929 34.5861 34.9993 34.112C35.0097 33.348 34.9595 33.2878 30.3645 28.5535C28.0658 26.1851 26.1121 24.1612 26.0229 24.056L25.8607 23.8647L26.2403 23.3824C28.813 20.1134 29.8099 15.8133 28.9705 11.6064C28.551 9.50432 27.4528 7.19337 26.0524 5.4656C22.9159 1.59603 18.0532 -0.427762 13.1022 0.0759882ZM16.0099 3.89707C20.6077 4.50482 24.2492 7.84608 25.2249 12.3523C25.4187 13.2477 25.4911 15.0386 25.3679 15.8926C25.0148 18.3408 23.9765 20.4319 22.2757 22.1204C20.6358 23.7484 18.6018 24.7808 16.2945 25.1564C15.5203 25.2824 13.82 25.283 12.9899 25.1575C9.99887 24.7053 7.28962 22.9819 5.6251 20.4725C5.03026 19.5757 4.71037 18.9263 4.38133 17.9478C4.02338 16.8834 3.88098 16.0861 3.83533 14.8902C3.60624 8.89369 8.47887 3.85478 14.5553 3.8044C14.9451 3.80116 15.5997 3.84282 16.0099 3.89707Z" fill="#4CE833"/>
</svg>
