<svg width="36" height="39" viewBox="0 0 36 39" fill="none" xmlns="http://www.w3.org/2000/svg">
<path fill-rule="evenodd" clip-rule="evenodd" d="M0.581543 0.151778C0.073208 0.420182 0 0.683641 0 2.24521C0 3.82185 0.0718594 4.07414 0.597504 4.34232C0.972011 4.5334 1.27593 4.5334 1.65044 4.34232C2.09778 4.11408 2.24794 3.75726 2.24794 2.92259V2.24521H4.52579H6.80355L6.85069 2.751C6.87661 3.02915 7.30162 9.03962 7.79505 16.1075C8.28847 23.1754 8.72922 29.1437 8.77433 29.3704C9.05105 30.7593 9.99181 32.1529 11.1518 32.8922C11.5205 33.1272 11.6681 33.2634 11.639 33.3418C11.2369 34.4232 11.1698 34.8838 11.3102 35.5976C11.4482 36.299 11.7405 36.8465 12.248 37.3539C13.8431 38.9491 16.5195 38.561 17.5545 36.5844C17.9708 35.7893 18.0645 35.0465 17.8664 34.1098L17.815 33.8663H21.3555H24.896L24.8445 34.1098C24.5715 35.4014 24.87 36.4883 25.7357 37.3539C27.3308 38.9491 30.0071 38.561 31.0422 36.5844C31.4585 35.7893 31.5521 35.0465 31.3541 34.1098L31.3026 33.8663H32.0643C32.6798 33.8663 32.8827 33.8374 33.1217 33.7155C33.4541 33.5458 33.7192 33.1141 33.7192 32.7423C33.7192 32.3705 33.4541 31.9388 33.1217 31.7692C32.8299 31.6204 32.6992 31.6184 23.3599 31.6184C13.0168 31.6184 13.4262 31.6348 12.6634 31.1885C11.8935 30.738 11.234 29.8986 11.0213 29.0983C10.976 28.9282 10.9133 28.4148 10.8818 27.9576L10.8246 27.1263L20.2675 27.1031C30.5714 27.0779 29.9124 27.1052 30.9176 26.6619C32.3924 26.0117 33.6023 24.6385 34.077 23.0762C34.1584 22.8083 34.6244 19.787 35.1125 16.3623L36 10.1356L35.8578 9.82018C35.7796 9.64664 35.612 9.43084 35.4854 9.34055L35.2553 9.17637L22.4045 9.13891L9.55376 9.10144L9.27217 5.01768C8.95551 0.424528 8.95746 0.435468 8.39757 0.149829C8.10878 0.00243922 7.97541 -0.0025812 4.48015 0.000565923C1.02566 0.00371304 0.849048 0.0106067 0.581543 0.151778ZM21.7815 13.7149C22.0621 13.8216 24.4006 16.144 24.5836 16.4979C24.7678 16.8541 24.7657 17.1623 24.5765 17.5332C24.4068 17.8659 23.9751 18.1307 23.6027 18.1307C23.3267 18.1307 22.9688 17.961 22.6855 17.696L22.4794 17.5032V19.6183C22.4794 21.5902 22.4692 21.7534 22.3286 22.0291C22.1581 22.3633 21.7268 22.6266 21.3499 22.6266C21.0014 22.6266 20.5385 22.3352 20.3736 22.012C20.244 21.7579 20.2315 21.5471 20.2315 19.6183V17.5032L20.0254 17.696C19.7421 17.961 19.3842 18.1307 19.1083 18.1307C18.7358 18.1307 18.3041 17.8659 18.1344 17.5332C17.945 17.1619 17.9432 16.8536 18.1282 16.4979C18.2981 16.1712 20.5407 13.9288 20.8684 13.758C21.1334 13.6199 21.4873 13.6032 21.7815 13.7149ZM15.1381 34.0171C15.4706 34.1868 15.7356 34.6185 15.7356 34.9903C15.7356 35.563 15.1816 36.1142 14.6061 36.1142C14.0549 36.1142 13.4877 35.5442 13.4877 34.9903C13.4877 34.6299 13.7528 34.1878 14.0692 34.0208C14.4308 33.83 14.7689 33.8288 15.1381 34.0171ZM28.6258 34.0171C28.9582 34.1868 29.2233 34.6185 29.2233 34.9903C29.2233 35.563 28.6693 36.1142 28.0938 36.1142C27.5426 36.1142 26.9753 35.5442 26.9753 34.9903C26.9753 34.6299 27.2405 34.1878 27.5569 34.0208C27.9184 33.83 28.2566 33.8288 28.6258 34.0171Z" fill="#4CE833"/>
</svg>
