<svg width="38" height="38" viewBox="0 0 38 38" fill="none" xmlns="http://www.w3.org/2000/svg">
<path fill-rule="evenodd" clip-rule="evenodd" d="M18.2192 0.0956073C17.593 0.25218 17.1243 0.519551 16.6522 0.989567C15.9664 1.67233 15.6077 2.59431 15.6657 3.52579L15.6908 3.92878L11.3033 6.47222L6.91585 9.01566L5.05675 9.06099C3.40409 9.10119 3.14879 9.12407 2.75742 9.2672C1.51301 9.7222 0.593499 10.6463 0.17193 11.8656L0 12.3628V23.5465V34.7303L0.169847 35.2214C0.59573 36.4524 1.54685 37.4043 2.77452 37.8282L3.27202 38H19H34.728L35.2255 37.8282C36.4532 37.4043 37.4043 36.4524 37.8302 35.2214L38 34.7303V23.5465V12.3628L37.8281 11.8656C37.4066 10.6468 36.4894 9.72466 35.2426 9.26638C34.8464 9.12073 34.621 9.10141 32.9921 9.07339L31.1819 9.04226L26.7455 6.48329L22.3092 3.9244L22.3343 3.52357C22.4346 1.92113 21.2713 0.406449 19.6842 0.0728682C19.1884 -0.0313899 18.6965 -0.0237359 18.2192 0.0956073ZM19.5225 2.36892C19.8542 2.53806 20.1155 2.96571 20.1155 3.3395C20.1155 3.88873 19.5495 4.44866 18.9945 4.44866C18.6486 4.44866 18.1892 4.15967 18.0256 3.83916C17.751 3.30123 17.9234 2.71395 18.4492 2.39582C18.8052 2.18047 19.1365 2.17215 19.5225 2.36892ZM17.2524 6.16487C17.7666 6.50893 18.224 6.63095 19 6.63095C19.7963 6.63095 20.2101 6.51502 20.8317 6.11768L21.2155 5.87231L23.9456 7.44554L26.6757 9.01878L22.8379 9.03802C20.727 9.04858 17.2754 9.04858 15.1677 9.03802L11.3353 9.01878L14.0653 7.44331C15.5667 6.57685 16.8311 5.88992 16.875 5.91689C16.919 5.9438 17.0888 6.05541 17.2524 6.16487ZM10.4809 14.4249C10.7124 14.657 10.7356 14.7375 11.0746 16.487C11.4843 18.6018 11.4969 18.6592 11.5388 18.6173C11.5562 18.5999 11.837 17.7205 12.1628 16.6632C12.4886 15.6058 12.7954 14.6626 12.8446 14.5672C13.0589 14.1515 13.7275 14.055 14.0877 14.3877C14.2778 14.5633 14.3977 14.8805 14.9376 16.6356C15.2834 17.7596 15.5842 18.629 15.6062 18.5677C15.6281 18.5064 15.8003 17.6704 15.9888 16.7099C16.4097 14.565 16.428 14.505 16.721 14.3265C17.1888 14.0414 17.7934 14.2398 17.9559 14.7316C18.0328 14.9645 17.966 15.3764 17.3609 18.3971C16.9861 20.2688 16.631 21.8936 16.5719 22.0079C16.3983 22.3433 16.0483 22.5196 15.6281 22.4835C15.0017 22.4294 14.9315 22.3068 14.2364 20.0539C13.9023 18.9709 13.6065 18.0434 13.5792 17.9929C13.5519 17.9425 13.2658 18.7617 12.9434 19.8135C12.6211 20.8653 12.299 21.843 12.2278 21.986C11.9094 22.6255 10.9543 22.6889 10.5658 22.0964C10.4325 21.8931 9.11234 15.3986 9.11056 14.9376C9.10907 14.5568 9.51361 14.1834 9.92759 14.1834C10.181 14.1834 10.2854 14.229 10.4809 14.4249ZM23.3577 14.436C23.565 14.6431 23.6106 14.7449 23.6106 15.0008C23.6106 15.2566 23.565 15.3585 23.3577 15.5656L23.1049 15.8182H21.9448H20.7847V16.6728V17.5274H21.8333H22.8818L23.1346 17.78C23.3419 17.9871 23.3875 18.0889 23.3875 18.3448C23.3875 18.6006 23.3419 18.7024 23.1346 18.9095L22.8818 19.1622H21.8333H20.7847V20.0168V20.8714H21.9448H23.1049L23.3577 21.124C23.565 21.3311 23.6106 21.4329 23.6106 21.6888C23.6106 21.9446 23.565 22.0464 23.3577 22.2535L23.1049 22.5062H21.3796H19.6544L19.4016 22.2535L19.1487 22.0009V18.3448V14.6887L19.4016 14.436L19.6544 14.1834H21.3796H23.1049L23.3577 14.436ZM26.1485 14.2997C26.5721 14.5187 26.5851 14.626 26.5851 17.8965V20.8714H27.4849H28.3847L28.6376 21.124C28.8448 21.3311 28.8904 21.4329 28.8904 21.6888C28.8904 21.9446 28.8448 22.0464 28.6376 22.2535L28.3847 22.5062H26.9607C25.8135 22.5062 25.4929 22.4835 25.3114 22.3898C24.8818 22.1679 24.8748 22.1023 24.8748 18.3582C24.8748 16.0142 24.901 14.8734 24.9589 14.7076C25.1165 14.2555 25.6855 14.0605 26.1485 14.2997ZM8.85229 25.0713C9.42288 25.2165 10.1961 25.6042 10.3794 25.837C10.5933 26.1088 10.5711 26.5984 10.3321 26.8823C10.0226 27.2499 9.73008 27.2582 9.01135 26.9201C8.47348 26.6671 8.33858 26.634 7.8454 26.6348C6.44453 26.6371 5.36432 27.7181 5.35845 29.1234C5.35651 29.6086 5.38879 29.7505 5.5976 30.1743C6.04765 31.0879 6.86097 31.6048 7.8454 31.603C8.47727 31.6018 8.74045 31.4967 9.22887 31.0505C9.39678 30.8971 9.60879 30.7479 9.70011 30.719C10.3011 30.5283 10.94 31.1693 10.7431 31.7655C10.6435 32.0671 10.0047 32.662 9.52543 32.8995C8.43191 33.4416 7.11068 33.4109 5.91194 32.8156C4.93539 32.3308 4.07849 31.2426 3.7939 30.126C3.24011 27.9531 4.61153 25.6524 6.80431 25.0758C7.3459 24.9333 8.30222 24.9313 8.85229 25.0713ZM16.3631 25.0713C17.8404 25.4473 19.0314 26.6374 19.4077 28.1137C19.9658 30.3034 18.5798 32.6043 16.3631 33.1685C14.9641 33.5245 13.4656 33.1016 12.4186 32.0553C11.5987 31.236 11.1918 30.2623 11.1918 29.1199C11.1918 27.2298 12.4833 25.5575 14.3151 25.0758C14.8567 24.9333 15.813 24.9313 16.3631 25.0713ZM22.7612 25.1106C23.0631 25.2971 23.1159 25.4337 23.8421 27.907C24.1442 28.9361 24.4125 29.7386 24.4383 29.6905C24.4641 29.6423 24.7424 28.7015 25.0567 27.5998C25.371 26.498 25.6806 25.5077 25.7449 25.399C26.1128 24.7765 27.1657 24.8387 27.4359 25.4988C27.4899 25.6307 27.8231 27.2515 28.1764 29.1005C28.7797 32.2582 28.8122 32.4778 28.712 32.7174C28.4333 33.3841 27.5124 33.3973 27.2157 32.7389C27.1567 32.608 26.9722 31.7653 26.8057 30.8662C26.6393 29.967 26.4832 29.1647 26.4589 29.0832C26.4313 28.9903 26.2155 29.6319 25.8793 30.8067C25.5846 31.8361 25.288 32.7631 25.22 32.8668C24.9107 33.3384 24.152 33.4129 23.7541 33.0107C23.5817 32.8364 23.4429 32.4586 22.9817 30.9089C22.6725 29.8698 22.4089 29.009 22.3961 28.9961C22.3831 28.9832 22.2313 29.7665 22.0587 30.7368C21.886 31.7071 21.6974 32.608 21.6395 32.7389C21.3486 33.3963 20.4238 33.3841 20.1459 32.7192C20.047 32.4826 20.0813 32.2371 20.6632 29.0221C21.006 27.128 21.3263 25.504 21.375 25.413C21.6045 24.9844 22.3082 24.8309 22.7612 25.1106ZM34.0661 25.2111C34.4064 25.5511 34.4197 25.958 34.1022 26.3134L33.8854 26.5561L32.7079 26.5933L31.5303 26.6304V27.4479V28.2653L32.5714 28.3041C33.144 28.3255 33.6723 28.3714 33.7454 28.4061C33.9252 28.4913 34.0959 28.8389 34.0959 29.1199C34.0959 29.4008 33.9252 29.7484 33.7454 29.8336C33.6723 29.8683 33.144 29.9142 32.5714 29.9356L31.5303 29.9744V30.7918V31.6093L32.7079 31.6464L33.8854 31.6836L34.1022 31.9263C34.4197 32.2817 34.4064 32.6886 34.0661 33.0286L33.8133 33.2813H32.0881H30.3628L30.11 33.0286L29.8571 32.7759V29.1199V25.4638L30.11 25.2111L30.3628 24.9585H32.0881H33.8133L34.0661 25.2111ZM14.8167 26.674C13.2781 27.0363 12.4339 28.7157 13.0785 30.1317C13.6521 31.3919 15.1331 31.9636 16.3601 31.3985C18.5221 30.4028 18.266 27.3007 15.9726 26.7038C15.5044 26.582 15.2367 26.5751 14.8167 26.674Z" fill="#4CE833"/>
</svg>
