<svg width="44" height="37" viewBox="0 0 44 37" fill="none" xmlns="http://www.w3.org/2000/svg">
<path fill-rule="evenodd" clip-rule="evenodd" d="M11.1793 3.66246C5.435 5.69263 0.632625 7.42872 0.507316 7.52055C-0.220271 8.05363 -0.153657 9.1722 0.632711 9.62662C0.769725 9.70589 5.58742 11.4428 11.3387 13.4865C20.1873 16.631 21.8484 17.1961 22.1397 17.1617C22.5223 17.1164 42.9936 9.85848 43.3885 9.628C43.8162 9.3785 44 9.05025 44 8.53593C44 8.02118 43.8165 7.69397 43.3868 7.44223C43.2488 7.36141 38.5086 5.66113 32.853 3.66375C25.194 0.958929 22.4493 0.0245305 22.0967 0.0018096C21.6572 -0.0264194 20.8751 0.235818 11.1793 3.66246ZM39.5892 13.7651L38.3628 14.207V19.3471V24.4871L37.8541 24.9958C37.462 25.3879 37.314 25.6101 37.2086 25.965C36.9006 27.002 37.1431 27.9542 37.9005 28.6819L38.3569 29.1205L38.3814 32.4847C38.4051 35.7507 38.4111 35.856 38.587 36.0918C39.1428 36.8371 40.1648 36.8371 40.7205 36.0918C40.8965 35.8558 40.9024 35.7517 40.926 32.4256L40.9503 29.0022L41.1748 28.8821C41.5166 28.6992 41.9654 28.0546 42.1191 27.5259C42.3982 26.5659 42.0944 25.5341 41.3361 24.8667L40.9447 24.5222V18.9173C40.9447 15.8347 40.9157 13.3149 40.8802 13.3178C40.8446 13.3208 40.2637 13.522 39.5892 13.7651ZM9.03051 18.4979C9.05753 21.4882 9.06089 21.5376 9.26185 21.9458C9.79846 23.0356 11.3004 23.9556 13.7581 24.7002C18.6838 26.1925 25.3308 26.1933 30.2728 24.7021C32.707 23.9675 34.2235 23.0334 34.7643 21.9355C34.959 21.5403 34.9639 21.4664 34.9907 18.4979C35.0098 16.3831 34.9902 15.4641 34.926 15.4641C34.8753 15.4641 32.152 16.4216 28.8741 17.5921L22.9143 19.7201L22.0106 19.7191L21.1069 19.7182L15.1572 17.5912C11.8848 16.4213 9.1615 15.4641 9.1053 15.4641C9.02784 15.4641 9.00976 16.1987 9.03051 18.4979Z" fill="#4CE833"/>
</svg>
