<svg width="36" height="34" viewBox="0 0 36 34" fill="none" xmlns="http://www.w3.org/2000/svg">
<path fill-rule="evenodd" clip-rule="evenodd" d="M15.2216 0.0384442C14.6971 0.109622 13.8367 0.350446 13.3057 0.574671C12.1018 1.08305 11.7366 1.39118 8.42111 4.69632C6.30341 6.80746 5.31376 7.84201 5.23944 8.02213C5.09297 8.37746 5.1031 8.90567 5.26236 9.21817L5.39307 9.47467L5.12553 9.73596L4.85792 9.99732L4.60022 9.77106C4.17883 9.40089 3.70963 9.30679 3.31757 9.51371C3.21315 9.56878 2.44203 10.3047 1.60389 11.149C0.321733 12.4406 0.0726138 12.725 0.0326759 12.9423C-0.0725829 13.5149 -0.0796143 13.506 2.55453 16.143C4.68607 18.2768 5.06168 18.6237 5.28437 18.6642C5.83358 18.7641 5.91416 18.708 7.54515 17.09C8.38918 16.2528 9.12487 15.4823 9.17993 15.3778C9.29545 15.1589 9.31015 14.7767 9.21297 14.5209C9.17599 14.4237 9.03473 14.2213 8.89902 14.071L8.6523 13.7978L8.91639 13.5399L9.18042 13.282L9.45605 13.4226C9.80199 13.599 10.2819 13.6013 10.6512 13.4284C11.0736 13.2307 17.2255 7.04147 17.2255 6.81422C17.2255 6.72116 17.1024 6.45298 16.952 6.21821C16.5781 5.63471 16.4992 5.34747 16.5375 4.70947C16.594 3.76875 17.1376 3.00042 18.0485 2.57406C18.849 2.19932 19.7227 2.2968 20.4352 2.84048C20.8085 3.12527 21.049 3.13793 21.3009 2.88606C21.6805 2.50633 21.5929 2.28105 20.8198 1.64839C19.838 0.844894 18.6784 0.314154 17.4417 0.102307C16.8365 -0.00143533 15.746 -0.0327339 15.2216 0.0384442ZM13.7269 11.4713C12.8281 12.371 12.0926 13.1387 12.0926 13.1772C12.0926 13.2157 13.6746 14.8294 15.6082 16.7633L19.1237 20.2793L20.8115 18.5921L22.4993 16.9048L18.9662 13.3702C17.0229 11.4261 15.4168 9.83549 15.3971 9.83549C15.3773 9.83549 14.6257 10.5716 13.7269 11.4713ZM23.7295 16.8851C23.4918 16.946 23.1242 17.2796 21.3575 19.037C19.5104 20.8743 19.2533 21.1569 19.1522 21.4613C19.0135 21.8791 19.061 22.2721 19.2986 22.6715C19.3906 22.8262 21.8648 25.3452 24.7969 28.2693C30.5207 33.9774 30.2633 33.7491 30.9752 33.7491C31.4886 33.7491 31.7531 33.5359 33.8309 31.4474C35.9603 29.3069 36.0002 29.2549 35.9972 28.6147C35.9944 28.0224 35.955 27.9789 30.3533 22.3785C25.1527 17.1791 24.9839 17.0182 24.6132 16.91C24.1851 16.7851 24.1265 16.7834 23.7295 16.8851Z" fill="#4CE833"/>
</svg>
