<svg width="35" height="34" viewBox="0 0 35 34" fill="none" xmlns="http://www.w3.org/2000/svg">
<path fill-rule="evenodd" clip-rule="evenodd" d="M30.7018 0.0791331C30.2402 0.231451 29.7899 0.520923 29.4425 0.888544C29.2735 1.06736 26.6808 4.16417 23.6809 7.77049C19.1432 13.2253 18.2436 14.3435 18.3285 14.4233C18.7415 14.8114 22.6666 17.6923 22.7141 17.6423C22.7473 17.6075 25.2762 14.5893 28.334 10.9352C31.3917 7.28118 33.9801 4.12258 34.0858 3.91614C34.2223 3.64979 34.2885 3.38246 34.3136 2.99578C34.3459 2.49888 34.3285 2.40865 34.1166 1.97459C33.7964 1.31885 33.0436 0.553429 32.438 0.267786C31.8726 0.000984706 31.1698 -0.0753621 30.7018 0.0791331ZM4.0158 1.1058C2.07093 1.39429 0.524547 3.02025 0.105148 5.21771C0.0180956 5.67362 0 7.36233 0 15.0121V24.2555L0.428187 23.8377C0.663652 23.6078 0.963234 23.3463 1.09377 23.2564C1.76688 22.7933 3.22503 22.2135 4.33772 21.9666L4.7659 21.8717V11.4488V1.02592L4.59835 1.03508C4.50624 1.04011 4.24404 1.07194 4.0158 1.1058ZM6.40418 16.6701V23.456L5.26856 23.4876C4.28611 23.5149 4.0566 23.5458 3.56728 23.7164C2.74509 24.0031 2.11815 24.3999 1.52658 25.0081C0.387825 26.1788 -0.0991903 27.5863 0.0767757 29.1983C0.369432 31.8796 1.9395 33.5404 4.45657 33.8312C4.86107 33.8779 10.5301 33.9059 19.6804 33.9062C32.313 33.9068 34.2945 33.8922 34.5206 33.7969C35.0316 33.5817 34.9996 34.3793 34.9996 21.853C34.9996 9.49741 35.0233 10.172 34.583 9.96976C34.4624 9.91436 33.8376 9.88425 32.8083 9.88425H31.2199L27.1978 14.7075C24.9857 17.3603 23.0967 19.6047 23 19.695C22.9033 19.7853 21.4737 20.6362 19.823 21.586C16.6369 23.4192 16.3636 23.5403 15.6479 23.4362C14.4309 23.2593 13.5226 22.2322 13.522 21.0322C13.5218 20.5194 13.5521 20.4352 14.7773 17.5415C15.4678 15.9105 16.1193 14.4579 16.225 14.3134C16.3307 14.1689 17.1565 13.1555 18.06 12.0613C18.9635 10.9671 19.7285 10.0297 19.76 9.97809C19.8055 9.90332 18.4566 9.88425 13.1106 9.88425H6.40418V16.6701ZM16.2132 18.3494C15.608 19.7837 15.1137 21.0306 15.1148 21.1203C15.1197 21.5102 15.7877 21.9727 16.1768 21.8557C16.3784 21.795 21.4447 18.8718 21.4419 18.8177C21.4396 18.7701 17.5204 15.8175 17.4017 15.7738C17.3465 15.7536 16.9031 16.7145 16.2132 18.3494Z" fill="#4CE833"/>
</svg>
