<svg width="325" height="242" viewBox="0 0 325 242" fill="none" xmlns="http://www.w3.org/2000/svg">
    <path d="M7.53191 59.3295L9.022 55.4476C8.82969 55.4538 8.6052 55.4526 8.34855 55.444C8.0919 55.4355 7.80541 55.4005 7.48909 55.3391C7.18482 55.2723 6.85842 55.172 6.50988 55.0382C5.4817 54.6435 4.80624 54.1243 4.4835 53.4805C4.16411 52.8281 4.19674 52.0008 4.58139 50.9988L5.73533 47.9926L6.87243 48.4291L5.76866 51.3046C5.51111 51.9755 5.48333 52.5297 5.68532 52.9671C5.89936 53.3992 6.3767 53.7574 7.11734 54.0417C7.50073 54.1888 7.9052 54.2941 8.33075 54.3575C8.76502 54.4242 9.12922 54.4391 9.42337 54.402L11.0941 50.0497L12.2443 50.4912L8.68208 59.771L7.53191 59.3295ZM12.3866 61.193L14.6143 55.3899L12.2616 54.4868L12.653 53.4673L18.5084 55.715L18.117 56.7345L15.7644 55.8314L13.5368 61.6345L12.3866 61.193ZM19.9746 64.2557C19.4605 64.0584 19.0295 63.788 18.6815 63.4444C18.3368 63.0922 18.0739 62.6963 17.8927 62.2569C17.7148 61.8087 17.625 61.3393 17.6234 60.8488C17.6217 60.3583 17.7112 59.8778 17.8918 59.4073C18.0758 58.928 18.3325 58.5067 18.6619 58.1433C18.9914 57.7799 19.3705 57.4955 19.7992 57.2902C20.2313 57.0762 20.6915 56.9579 21.18 56.9355C21.6806 56.9077 22.1879 56.9925 22.702 57.1898C23.2074 57.3838 23.6324 57.6569 23.977 58.0092C24.325 58.3527 24.588 58.7486 24.7658 59.1967C24.9558 59.6395 25.0516 60.1062 25.0532 60.5967C25.0549 61.0872 24.9637 61.5721 24.7798 62.0513C24.5992 62.5218 24.3441 62.9388 24.0147 63.3022C23.6852 63.6656 23.3045 63.9544 22.8724 64.1684C22.4437 64.3737 21.979 64.4903 21.4785 64.5181C20.99 64.5405 20.4887 64.4531 19.9746 64.2557ZM19.0631 59.8719C18.8825 60.3424 18.8188 60.8078 18.872 61.2682C18.934 61.7318 19.0914 62.1422 19.3443 62.4992C19.6005 62.8474 19.9377 63.1019 20.3559 63.2624C20.7742 63.4229 21.1967 63.4552 21.6235 63.3591C22.059 63.2663 22.4505 63.0667 22.7981 62.7602C23.1577 62.4484 23.4279 62.0572 23.6085 61.5867C23.7891 61.1162 23.8484 60.6491 23.7865 60.1854C23.7332 59.7251 23.5758 59.3148 23.3143 58.9544C23.0614 58.5974 22.7258 58.3387 22.3076 58.1781C21.8894 58.0176 21.4652 57.9897 21.035 58.0945C20.6083 58.1906 20.2167 58.3902 19.8604 58.6934C19.5128 58.9998 19.2471 59.3927 19.0631 59.8719ZM28.1618 67.2485L30.7807 60.4259L34.9893 62.0414L34.598 63.0609L31.5396 61.8869L29.3119 67.69L28.1618 67.2485ZM36.4782 70.5909C35.9641 70.3935 35.5331 70.1231 35.1851 69.7796C34.8404 69.4273 34.5775 69.0315 34.3963 68.592C34.2184 68.1438 34.1286 67.6745 34.127 67.184C34.1253 66.6935 34.2148 66.2129 34.3954 65.7424C34.5794 65.2632 34.8361 64.8419 35.1655 64.4785C35.495 64.115 35.8741 63.8307 36.3028 63.6253C36.7349 63.4113 37.1951 63.2931 37.6836 63.2706C38.1842 63.2428 38.6915 63.3276 39.2056 63.5249C39.7109 63.7189 40.136 63.9921 40.4806 64.3443C40.8286 64.6878 41.0916 65.0837 41.2694 65.5319C41.4594 65.9747 41.5552 66.4413 41.5568 66.9318C41.5585 67.4223 41.4673 67.9072 41.2834 68.3865C41.1027 68.857 40.8477 69.2739 40.5183 69.6374C40.1888 70.0008 39.8081 70.2895 39.376 70.5035C38.9473 70.7089 38.4826 70.8254 37.9821 70.8532C37.4936 70.8757 36.9923 70.7882 36.4782 70.5909ZM35.5667 66.207C35.3861 66.6776 35.3224 67.143 35.3756 67.6033C35.4376 68.067 35.595 68.4773 35.8478 68.8343C36.1041 69.1826 36.4413 69.437 36.8595 69.5975C37.2778 69.7581 37.7003 69.7903 38.1271 69.6942C38.5626 69.6014 38.9541 69.4018 39.3017 69.0954C39.6613 68.7835 39.9314 68.3924 40.1121 67.9218C40.2927 67.4513 40.352 66.9842 40.2901 66.5206C40.2368 66.0602 40.0794 65.6499 39.8178 65.2896C39.565 64.9326 39.2294 64.6738 38.8112 64.5133C38.3929 64.3527 37.9688 64.3248 37.5386 64.4297C37.1118 64.5258 36.7203 64.7254 36.364 65.0285C36.0164 65.3349 35.7507 65.7278 35.5667 66.207ZM43.0325 72.9569L45.2601 67.1537L42.9075 66.2506L43.2988 65.2312L49.1543 67.4789L48.7629 68.4983L46.4103 67.5952L44.1827 73.3984L43.0325 72.9569ZM50.6205 76.0196C50.1064 75.8222 49.6754 75.5518 49.3274 75.2083C48.9827 74.856 48.7198 74.4602 48.5385 74.0207C48.3607 73.5725 48.2709 73.1032 48.2693 72.6127C48.2676 72.1222 48.3571 71.6417 48.5377 71.1711C48.7216 70.6919 48.9784 70.2706 49.3078 69.9072C49.6373 69.5438 50.0163 69.2594 50.4451 69.0541C50.8771 68.84 51.3374 68.7218 51.8259 68.6993C52.3264 68.6715 52.8338 68.7563 53.3478 68.9537C53.8532 69.1477 54.2782 69.4208 54.6229 69.773C54.9709 70.1165 55.2338 70.5124 55.4117 70.9606C55.6016 71.4034 55.6974 71.87 55.6991 72.3606C55.7008 72.8511 55.6096 73.3359 55.4256 73.8152C55.245 74.2857 54.99 74.7027 54.6605 75.0661C54.3311 75.4295 53.9503 75.7182 53.5183 75.9322C53.0895 76.1376 52.6249 76.2541 52.1244 76.2819C51.6359 76.3044 51.1346 76.2169 50.6205 76.0196ZM49.709 71.6357C49.5284 72.1063 49.4647 72.5717 49.5179 73.032C49.5799 73.4957 49.7373 73.906 49.9901 74.263C50.2463 74.6113 50.5836 74.8657 51.0018 75.0262C51.42 75.1868 51.8426 75.219 52.2694 75.1229C52.7049 75.0302 53.0964 74.8305 53.444 74.5241C53.8036 74.2123 54.0737 73.8211 54.2543 73.3506C54.435 72.88 54.4943 72.4129 54.4323 71.9493C54.3791 71.489 54.2217 71.0786 53.9601 70.7183C53.7073 70.3613 53.3717 70.1025 52.9535 69.942C52.5352 69.7814 52.111 69.7536 51.6809 69.8584C51.2541 69.9545 50.8626 70.1541 50.5063 70.4572C50.1587 70.7637 49.8929 71.1565 49.709 71.6357ZM55.5018 77.7434L58.1208 70.9208L61.6497 72.2754C62.0592 72.4326 62.3673 72.6458 62.5738 72.9151C62.7838 73.1756 62.9056 73.4573 62.9393 73.7602C62.9817 74.0664 62.9477 74.3632 62.8373 74.6508C62.6968 75.0167 62.4826 75.3144 62.1946 75.5438C61.91 75.7644 61.5737 75.8853 61.1857 75.9063C61.5343 76.1701 61.7738 76.4969 61.904 76.8868C62.0376 77.268 62.0225 77.6721 61.8586 78.0991C61.7114 78.4824 61.4945 78.7741 61.2078 78.974C60.9211 79.1738 60.5838 79.2843 60.1958 79.3053C59.8112 79.3176 59.4011 79.2402 58.9654 79.0729L55.5018 77.7434ZM56.9108 77.3545L59.2503 78.2525C59.4594 78.3328 59.6669 78.3524 59.8725 78.3114C60.087 78.2738 60.2755 78.1862 60.4383 78.0487C60.601 77.9113 60.7192 77.7467 60.7928 77.555C60.873 77.3458 60.897 77.1401 60.8647 76.9378C60.8445 76.73 60.77 76.5465 60.6412 76.3871C60.5245 76.2223 60.3616 76.0998 60.1525 76.0195L57.7737 75.1064L56.9108 77.3545ZM58.0647 74.3483L60.1951 75.1661C60.4043 75.2464 60.6073 75.2644 60.8043 75.22C61.0046 75.1669 61.1818 75.07 61.3358 74.9292C61.4899 74.7884 61.6037 74.6221 61.6773 74.4304C61.7876 74.1429 61.7871 73.8577 61.6757 73.575C61.573 73.2957 61.3735 73.0991 61.0772 72.9854L58.9076 72.1526L58.0647 74.3483ZM62.6113 80.4724L65.2252 73.6629L66.3754 74.1044L64.3534 79.3717L70.1969 75.5563L71.2425 75.9577L68.6235 82.7803L67.4733 82.3388L69.4551 77.1761L63.7091 80.8939L62.6113 80.4724ZM72.1212 84.123L74.3488 78.3198L71.9962 77.4167L72.3875 76.3973L78.2429 78.645L77.8516 79.6644L75.499 78.7613L73.2714 84.5645L72.1212 84.123ZM76.7663 85.906L79.3853 79.0834L80.5354 79.525L79.6424 81.8514L81.3415 82.5037C82.1431 82.8114 82.6701 83.2486 82.9224 83.8153C83.1868 84.3767 83.1936 84.9841 82.9427 85.6377C82.7755 86.0733 82.5335 86.4303 82.2167 86.7086C81.9086 86.9902 81.5419 87.1644 81.1164 87.231C80.6909 87.2976 80.2168 87.2306 79.694 87.0299L76.7663 85.906ZM78.2627 85.4457L79.8834 86.0678C80.2057 86.1916 80.4862 86.2293 80.7247 86.1809C80.9753 86.1271 81.1887 86.0141 81.3648 85.8417C81.5409 85.6694 81.6758 85.4612 81.7694 85.2173C81.8598 84.982 81.8998 84.7474 81.8896 84.5136C81.8794 84.2797 81.7975 84.0633 81.6439 83.8644C81.4903 83.6655 81.2393 83.4992 80.8907 83.3654L79.2962 82.7533L78.2627 85.4457ZM85.3272 86.0281C85.4476 85.7144 85.5928 85.4403 85.7629 85.2056C85.9416 84.9743 86.1496 84.7842 86.3867 84.6353C86.6359 84.481 86.9229 84.3713 87.2479 84.306C87.4449 84.2617 87.6653 84.2213 87.9092 84.185C88.1618 84.152 88.408 84.0965 88.6478 84.0187C88.8998 83.9354 89.1268 83.8126 89.3291 83.6503C89.5347 83.4793 89.6944 83.2457 89.8081 82.9494C89.9352 82.6183 89.9621 82.3137 89.8889 82.0357C89.8277 81.7523 89.6969 81.5071 89.4964 81.3002C89.2959 81.0933 89.0563 80.9363 88.7774 80.8293C88.4899 80.7189 88.198 80.6718 87.9019 80.6881C87.6057 80.7044 87.325 80.7716 87.0597 80.8897C86.8065 81.0024 86.5754 81.1487 86.3664 81.3284L85.791 80.5226C86.0849 80.2256 86.4198 80.0042 86.7957 79.8586C87.1802 79.7163 87.5762 79.6483 87.9836 79.6548C88.391 79.6612 88.7864 79.738 89.1698 79.8852C89.4922 80.0089 89.7858 80.1816 90.0507 80.4032C90.3276 80.6195 90.5479 80.879 90.7116 81.1818C90.884 81.4879 90.984 81.8263 91.0118 82.1968C91.0395 82.5673 90.9714 82.9661 90.8075 83.393C90.6804 83.7242 90.5281 83.9906 90.3507 84.1924C90.1732 84.3943 89.9726 84.5522 89.7489 84.6663C89.5339 84.7837 89.3011 84.8692 89.0505 84.923C88.7999 84.9768 88.5423 85.0229 88.2776 85.0612C88.025 85.0942 87.7718 85.142 87.5178 85.2045C87.2726 85.2703 87.0412 85.3914 86.8235 85.5678C86.6179 85.7388 86.4415 86.016 86.2944 86.3994L85.3272 86.0281ZM84.2947 88.7959L84.8767 87.2798L85.8439 87.6511L85.2619 89.1672L84.2947 88.7959Z" fill="#111111"/>
    <path d="M76.4639 189.532L79.0366 179.931L80.2536 180.257L79.1412 184.409L80.4259 184.753L84.7027 181.449L86.1091 181.826L81.2926 185.521L83.7798 191.493L82.2923 191.094L80.1558 185.869L78.8441 185.518L77.681 189.858L76.4639 189.532ZM85.0757 189.651C85.1965 189.201 85.4266 188.847 85.766 188.59C86.1168 188.326 86.5417 188.165 87.0408 188.105C87.5399 188.046 88.0869 188.096 88.682 188.255C88.9975 188.34 89.3238 188.456 89.6609 188.604C90.0004 188.744 90.2921 188.899 90.536 189.071L90.6737 188.557C90.8187 188.016 90.7699 187.549 90.5275 187.155C90.2875 186.753 89.87 186.472 89.275 186.312C88.8873 186.209 88.4939 186.18 88.0946 186.228C87.7068 186.269 87.2795 186.367 86.8128 186.522L86.6047 185.568C87.149 185.376 87.6716 185.264 88.1724 185.234C88.6757 185.195 89.1753 185.242 89.6711 185.375C90.5726 185.617 91.2172 186.06 91.6048 186.705C91.9948 187.341 92.0703 188.105 91.8311 188.997L91.0303 191.986C90.9917 192.13 90.9897 192.246 91.0245 192.332C91.0707 192.412 91.1602 192.475 91.293 192.52L91.0466 193.44C90.9246 193.426 90.8173 193.412 90.7247 193.397C90.6412 193.384 90.5724 193.371 90.5183 193.356C90.2388 193.281 90.0475 193.148 89.9443 192.956C89.8501 192.766 89.817 192.584 89.8448 192.408L89.9374 191.954C89.5246 192.269 89.0413 192.468 88.4874 192.551C87.9336 192.635 87.4133 192.611 86.9265 192.481C86.4577 192.355 86.0638 192.148 85.7449 191.86C85.4284 191.562 85.21 191.224 85.0896 190.844C84.9716 190.454 84.967 190.057 85.0757 189.651ZM89.5395 191.384C89.6815 191.286 89.8009 191.183 89.8978 191.074C89.9972 190.956 90.0589 190.851 90.0831 190.761L90.3186 189.882C90.0681 189.699 89.7969 189.539 89.5048 189.403C89.2152 189.258 88.9217 189.145 88.6242 189.066C88.0201 188.904 87.4962 188.894 87.0523 189.036C86.6199 189.171 86.3481 189.446 86.237 189.861C86.1766 190.086 86.176 190.323 86.2353 190.571C86.3059 190.812 86.4403 191.032 86.6385 191.23C86.8457 191.43 87.125 191.577 87.4766 191.672C87.8463 191.771 88.2172 191.793 88.5894 191.738C88.964 191.674 89.2807 191.556 89.5395 191.384ZM92.5573 193.845L94.4487 186.786L95.6388 187.104L94.8597 190.012L95.6441 190.222L98.6409 187.909L99.9932 188.271L96.4394 190.986L98.4127 195.414L97.0334 195.044L95.3506 191.317L94.5662 191.107L93.7473 194.163L92.5573 193.845ZM102.26 196.589C101.729 196.447 101.272 196.223 100.89 195.918C100.51 195.603 100.207 195.237 99.981 194.819C99.7572 194.392 99.6189 193.935 99.566 193.447C99.513 192.959 99.5518 192.472 99.6822 191.985C99.8151 191.489 100.026 191.044 100.316 190.648C100.606 190.252 100.953 189.929 101.358 189.68C101.765 189.422 102.211 189.257 102.694 189.183C103.189 189.103 103.702 189.135 104.234 189.277C104.757 189.417 105.208 189.644 105.588 189.959C105.97 190.264 106.273 190.63 106.497 191.057C106.732 191.478 106.876 191.932 106.929 192.42C106.982 192.907 106.942 193.399 106.809 193.895C106.678 194.382 106.468 194.823 106.179 195.219C105.889 195.615 105.541 195.942 105.133 196.2C104.728 196.449 104.278 196.613 103.783 196.693C103.3 196.767 102.792 196.732 102.26 196.589ZM100.896 192.325C100.765 192.812 100.751 193.281 100.852 193.733C100.962 194.188 101.161 194.58 101.45 194.908C101.741 195.228 102.103 195.446 102.536 195.562C102.969 195.678 103.392 195.666 103.807 195.525C104.23 195.388 104.598 195.148 104.912 194.807C105.237 194.459 105.465 194.042 105.595 193.555C105.726 193.068 105.736 192.598 105.626 192.143C105.525 191.691 105.325 191.299 105.028 190.968C104.739 190.639 104.378 190.417 103.945 190.301C103.513 190.185 103.088 190.202 102.671 190.351C102.257 190.491 101.888 190.731 101.565 191.069C101.252 191.411 101.029 191.829 100.896 192.325ZM110.396 198.769C109.864 198.627 109.403 198.402 109.012 198.094C108.632 197.78 108.325 197.412 108.09 196.992C107.866 196.565 107.723 196.106 107.661 195.616C107.608 195.128 107.648 194.637 107.781 194.141C107.96 193.474 108.276 192.906 108.73 192.438C109.184 191.971 109.726 191.642 110.356 191.454C110.996 191.268 111.667 191.269 112.37 191.457C113.082 191.648 113.654 191.985 114.085 192.467C114.528 192.944 114.819 193.495 114.961 194.122C115.113 194.743 115.105 195.369 114.936 196C114.912 196.09 114.883 196.179 114.85 196.267C114.828 196.348 114.807 196.41 114.786 196.453L108.93 194.884C108.843 195.353 108.859 195.797 108.979 196.216C109.11 196.628 109.324 196.984 109.62 197.286C109.918 197.578 110.27 197.779 110.676 197.888C111.109 198.004 111.543 198.004 111.98 197.889C112.426 197.777 112.768 197.564 113.006 197.251L113.958 197.811C113.713 198.112 113.401 198.357 113.022 198.545C112.652 198.736 112.239 198.853 111.783 198.895C111.336 198.939 110.874 198.897 110.396 198.769ZM109.111 194.048L113.925 195.338C114.012 194.868 113.99 194.428 113.859 194.016C113.728 193.604 113.513 193.251 113.214 192.959C112.916 192.666 112.555 192.463 112.131 192.35C111.716 192.239 111.307 192.235 110.902 192.339C110.497 192.443 110.135 192.641 109.815 192.932C109.505 193.226 109.27 193.598 109.111 194.048ZM118.705 200.851L120.597 193.792L126.452 195.361L124.561 202.42L123.371 202.101L124.979 196.097L121.504 195.166L119.895 201.17L118.705 200.851ZM129.531 203.897C128.999 203.754 128.542 203.53 128.16 203.225C127.78 202.911 127.478 202.544 127.251 202.126C127.028 201.699 126.889 201.242 126.836 200.754C126.783 200.266 126.822 199.779 126.953 199.292C127.086 198.797 127.297 198.351 127.586 197.955C127.876 197.559 128.223 197.237 128.628 196.988C129.036 196.729 129.481 196.564 129.964 196.49C130.459 196.41 130.973 196.442 131.505 196.584C132.028 196.724 132.479 196.952 132.858 197.266C133.24 197.571 133.543 197.937 133.767 198.364C134.002 198.785 134.146 199.239 134.199 199.727C134.252 200.214 134.212 200.706 134.079 201.202C133.949 201.689 133.739 202.13 133.449 202.526C133.159 202.922 132.811 203.249 132.404 203.507C131.999 203.756 131.549 203.92 131.054 204C130.57 204.074 130.063 204.039 129.531 203.897ZM128.166 199.632C128.036 200.119 128.021 200.588 128.122 201.041C128.232 201.495 128.432 201.887 128.72 202.215C129.012 202.535 129.374 202.753 129.806 202.869C130.239 202.985 130.663 202.973 131.077 202.832C131.5 202.695 131.869 202.455 132.183 202.114C132.508 201.766 132.735 201.349 132.866 200.862C132.996 200.375 133.006 199.905 132.896 199.45C132.795 198.998 132.596 198.606 132.298 198.275C132.009 197.947 131.649 197.724 131.216 197.608C130.783 197.492 130.358 197.509 129.941 197.658C129.527 197.798 129.159 198.038 128.836 198.377C128.522 198.718 128.299 199.136 128.166 199.632ZM134.566 205.101L136.457 198.042L137.688 198.371L139.072 203.699L142.948 199.781L144.152 200.103L142.26 207.162L141.124 206.858L142.556 201.516L139.135 204.977L138.378 204.774L137.133 200.063L135.702 205.405L134.566 205.101ZM147.268 208.649C146.736 208.507 146.274 208.281 145.883 207.974C145.504 207.659 145.196 207.292 144.961 206.872C144.737 206.444 144.594 205.986 144.532 205.496C144.48 205.008 144.519 204.516 144.652 204.02C144.831 203.353 145.147 202.786 145.601 202.318C146.055 201.85 146.597 201.522 147.228 201.333C147.867 201.147 148.538 201.148 149.241 201.337C149.954 201.528 150.525 201.864 150.956 202.347C151.399 202.823 151.691 203.375 151.832 204.002C151.984 204.623 151.976 205.249 151.807 205.88C151.783 205.97 151.754 206.059 151.721 206.146C151.699 206.228 151.678 206.289 151.657 206.332L145.801 204.763C145.714 205.233 145.73 205.677 145.85 206.095C145.981 206.507 146.195 206.864 146.491 207.166C146.789 207.458 147.142 207.659 147.547 207.767C147.98 207.883 148.415 207.884 148.851 207.769C149.297 207.656 149.639 207.444 149.877 207.131L150.829 207.69C150.584 207.992 150.272 208.237 149.893 208.425C149.523 208.616 149.11 208.732 148.654 208.774C148.208 208.819 147.745 208.777 147.268 208.649ZM145.982 203.927L150.796 205.217C150.883 204.748 150.861 204.307 150.73 203.895C150.599 203.483 150.384 203.131 150.085 202.838C149.787 202.546 149.426 202.343 149.002 202.229C148.587 202.118 148.178 202.115 147.773 202.219C147.368 202.323 147.006 202.521 146.687 202.812C146.376 203.105 146.141 203.477 145.982 203.927ZM160.771 213.905L161.216 212.242L152.156 209.814L154.048 202.755L155.238 203.074L153.629 209.078L156.414 209.825L158.023 203.82L159.227 204.143L157.618 210.147L160.39 210.89L161.999 204.886L163.189 205.204L161.58 211.209L162.554 211.47L161.826 214.188L160.771 213.905ZM166.68 213.851C166.148 213.708 165.687 213.483 165.296 213.175C164.916 212.861 164.609 212.494 164.374 212.073C164.15 211.646 164.007 211.187 163.945 210.697C163.892 210.21 163.932 209.718 164.065 209.222C164.244 208.555 164.56 207.988 165.014 207.52C165.468 207.052 166.01 206.724 166.64 206.535C167.28 206.349 167.951 206.35 168.654 206.538C169.366 206.729 169.938 207.066 170.369 207.549C170.812 208.025 171.103 208.576 171.245 209.204C171.397 209.824 171.389 210.45 171.22 211.081C171.196 211.171 171.167 211.26 171.134 211.348C171.112 211.429 171.091 211.491 171.07 211.534L165.214 209.965C165.127 210.434 165.143 210.878 165.263 211.297C165.394 211.709 165.608 212.066 165.904 212.367C166.202 212.66 166.554 212.86 166.96 212.969C167.393 213.085 167.827 213.086 168.264 212.971C168.71 212.858 169.052 212.645 169.29 212.332L170.242 212.892C169.997 213.193 169.685 213.438 169.306 213.627C168.936 213.817 168.523 213.934 168.067 213.976C167.62 214.02 167.158 213.979 166.68 213.851ZM165.395 209.129L170.209 210.419C170.296 209.95 170.274 209.509 170.143 209.097C170.012 208.685 169.797 208.333 169.498 208.04C169.2 207.747 168.839 207.544 168.415 207.431C168 207.32 167.591 207.316 167.186 207.42C166.781 207.525 166.419 207.722 166.099 208.013C165.789 208.307 165.554 208.679 165.395 209.129ZM171.569 215.016L173.46 207.957L174.65 208.276L173.868 211.196L177.546 212.182L178.329 209.261L179.519 209.58L177.627 216.639L176.437 216.32L177.263 213.237L173.585 212.251L172.759 215.335L171.569 215.016ZM179.532 217.149L181.42 210.104L182.61 210.423L181.15 215.873L186.562 211.467L187.644 211.757L185.753 218.816L184.563 218.497L185.994 213.156L180.668 217.454L179.532 217.149ZM190.742 220.298C190.21 220.155 189.748 219.93 189.357 219.623C188.978 219.308 188.67 218.941 188.435 218.52C188.211 218.093 188.069 217.635 188.007 217.145C187.954 216.657 187.994 216.165 188.127 215.669C188.305 215.002 188.622 214.435 189.076 213.967C189.529 213.499 190.071 213.171 190.702 212.982C191.341 212.796 192.012 212.797 192.716 212.986C193.428 213.176 193.999 213.513 194.43 213.996C194.873 214.472 195.165 215.024 195.306 215.651C195.459 216.272 195.45 216.897 195.281 217.528C195.257 217.619 195.228 217.708 195.195 217.795C195.173 217.876 195.152 217.938 195.131 217.981L189.275 216.412C189.188 216.881 189.205 217.325 189.324 217.744C189.456 218.156 189.669 218.513 189.965 218.814C190.264 219.107 190.616 219.308 191.021 219.416C191.454 219.532 191.889 219.533 192.325 219.418C192.771 219.305 193.113 219.093 193.352 218.78L194.303 219.339C194.058 219.641 193.746 219.885 193.367 220.074C192.997 220.265 192.584 220.381 192.129 220.423C191.682 220.468 191.22 220.426 190.742 220.298ZM189.456 215.576L194.27 216.866C194.357 216.397 194.335 215.956 194.204 215.544C194.073 215.132 193.858 214.78 193.56 214.487C193.261 214.195 192.9 213.992 192.476 213.878C192.062 213.767 191.652 213.764 191.247 213.868C190.842 213.972 190.48 214.169 190.161 214.461C189.85 214.754 189.615 215.126 189.456 215.576ZM100.926 214.722L102.818 207.663L106.469 208.641C106.893 208.755 107.221 208.935 107.455 209.181C107.691 209.418 107.841 209.685 107.907 209.983C107.981 210.283 107.978 210.582 107.898 210.88C107.797 211.258 107.615 211.577 107.353 211.835C107.092 212.084 106.771 212.239 106.387 212.301C106.761 212.527 107.034 212.827 107.204 213.201C107.377 213.566 107.404 213.97 107.285 214.411C107.179 214.808 106.994 215.121 106.73 215.349C106.465 215.578 106.142 215.723 105.758 215.785C105.377 215.837 104.961 215.803 104.51 215.682L100.926 214.722ZM102.287 214.188L104.707 214.837C104.924 214.895 105.132 214.892 105.332 214.83C105.542 214.77 105.72 214.663 105.868 214.51C106.015 214.356 106.115 214.18 106.169 213.982C106.227 213.765 106.229 213.558 106.176 213.36C106.134 213.156 106.04 212.981 105.896 212.836C105.762 212.684 105.588 212.579 105.371 212.521L102.91 211.862L102.287 214.188ZM103.12 211.078L105.325 211.668C105.541 211.726 105.745 211.723 105.936 211.658C106.13 211.584 106.296 211.47 106.434 211.313C106.573 211.157 106.668 210.98 106.722 210.782C106.801 210.484 106.771 210.201 106.631 209.931C106.499 209.664 106.28 209.489 105.974 209.407L103.729 208.806L103.12 211.078ZM108.282 216.693L110.173 209.634L111.364 209.953L110.719 212.36L112.152 212.744C112.981 212.966 113.551 213.346 113.861 213.883C114.183 214.414 114.253 215.017 114.072 215.693C113.951 216.144 113.748 216.525 113.462 216.834C113.185 217.147 112.838 217.358 112.422 217.469C112.006 217.58 111.528 217.563 110.987 217.418L108.282 216.693ZM109.722 216.079L111.074 216.441C111.408 216.53 111.691 216.539 111.923 216.466C112.167 216.386 112.367 216.251 112.524 216.061C112.681 215.872 112.794 215.65 112.861 215.398C112.926 215.155 112.942 214.917 112.907 214.686C112.873 214.454 112.769 214.247 112.595 214.066C112.421 213.884 112.154 213.745 111.794 213.648L110.469 213.293L109.722 216.079ZM114.651 218.4L116.539 211.354L117.729 211.673L115.841 218.718L114.651 218.4ZM121.055 220.26C119.892 219.949 119.107 219.362 118.7 218.499C118.294 217.636 118.262 216.565 118.605 215.285C118.839 214.41 119.108 213.695 119.412 213.138C119.718 212.573 120.067 212.135 120.46 211.825C120.854 211.506 121.296 211.281 121.785 211.151C122.277 211.012 122.819 210.935 123.412 210.92L126.644 210.815L126.436 211.861L123.293 211.961C122.754 211.99 122.283 212.086 121.882 212.25C121.481 212.413 121.133 212.667 120.837 213.013C120.541 213.359 120.279 213.835 120.049 214.44C120.411 214.025 120.862 213.749 121.401 213.613C121.942 213.469 122.524 213.479 123.146 213.646C123.813 213.825 124.348 214.118 124.751 214.526C125.165 214.926 125.432 215.409 125.552 215.972C125.683 216.529 125.663 217.127 125.491 217.768C125.307 218.453 125.012 219.016 124.603 219.457C124.195 219.899 123.691 220.194 123.091 220.342C122.491 220.49 121.812 220.463 121.055 220.26ZM121.33 219.233C122.06 219.428 122.681 219.367 123.191 219.05C123.712 218.726 124.069 218.208 124.259 217.496C124.445 216.801 124.398 216.185 124.117 215.646C123.837 215.107 123.327 214.738 122.587 214.54C122.155 214.424 121.738 214.409 121.338 214.495C120.948 214.584 120.601 214.776 120.3 215.072C120.01 215.362 119.797 215.759 119.662 216.264C119.541 216.714 119.518 217.143 119.592 217.55C119.679 217.949 119.865 218.299 120.152 218.598C120.442 218.888 120.834 219.1 121.33 219.233ZM129.821 222.609C129.244 222.455 128.769 222.173 128.396 221.764C128.022 221.354 127.764 220.894 127.621 220.382L126.476 224.655L125.286 224.336L127.949 214.397L129.004 214.68L128.649 216.005C129.044 215.647 129.502 215.398 130.023 215.257C130.546 215.107 131.074 215.104 131.606 215.246C132.093 215.377 132.512 215.596 132.865 215.903C133.217 216.21 133.497 216.574 133.702 216.997C133.908 217.419 134.033 217.873 134.077 218.358C134.132 218.836 134.096 219.315 133.968 219.793C133.789 220.46 133.489 221.036 133.069 221.523C132.658 222.012 132.169 222.359 131.602 222.565C131.037 222.761 130.443 222.776 129.821 222.609ZM129.732 221.484C130.083 221.578 130.418 221.59 130.736 221.521C131.066 221.445 131.362 221.312 131.626 221.122C131.901 220.925 132.135 220.683 132.327 220.397C132.52 220.11 132.661 219.8 132.751 219.466C132.845 219.115 132.871 218.764 132.829 218.415C132.797 218.068 132.7 217.743 132.54 217.439C132.389 217.137 132.183 216.879 131.922 216.664C131.672 216.443 131.376 216.286 131.033 216.194C130.817 216.136 130.58 216.117 130.324 216.135C130.077 216.156 129.829 216.215 129.581 216.313C129.335 216.401 129.114 216.521 128.919 216.672C128.724 216.822 128.575 217 128.472 217.204L127.933 219.219C127.986 219.562 128.091 219.889 128.249 220.202C128.407 220.515 128.614 220.788 128.87 221.021C129.129 221.245 129.416 221.399 129.732 221.484ZM134.476 221.523C134.597 221.072 134.827 220.718 135.166 220.461C135.517 220.198 135.942 220.036 136.441 219.977C136.94 219.917 137.487 219.967 138.082 220.127C138.398 220.211 138.724 220.328 139.061 220.476C139.401 220.615 139.692 220.771 139.936 220.942L140.074 220.429C140.219 219.888 140.17 219.42 139.928 219.027C139.688 218.624 139.27 218.343 138.675 218.184C138.287 218.08 137.894 218.052 137.495 218.1C137.107 218.141 136.68 218.239 136.213 218.394L136.005 217.44C136.549 217.247 137.072 217.136 137.573 217.106C138.076 217.067 138.575 217.114 139.071 217.247C139.973 217.488 140.617 217.931 141.005 218.576C141.395 219.212 141.47 219.977 141.231 220.869L140.43 223.858C140.392 224.002 140.39 224.117 140.425 224.204C140.471 224.284 140.56 224.347 140.693 224.392L140.447 225.311C140.325 225.298 140.217 225.284 140.125 225.269C140.041 225.256 139.972 225.242 139.918 225.228C139.639 225.153 139.448 225.02 139.344 224.828C139.25 224.638 139.217 224.455 139.245 224.279L139.337 223.826C138.925 224.14 138.441 224.339 137.888 224.423C137.334 224.506 136.813 224.483 136.327 224.352C135.858 224.227 135.464 224.02 135.145 223.731C134.829 223.434 134.61 223.095 134.49 222.715C134.372 222.326 134.367 221.929 134.476 221.523ZM138.94 223.255C139.082 223.158 139.201 223.055 139.298 222.946C139.397 222.827 139.459 222.723 139.483 222.633L139.719 221.754C139.468 221.571 139.197 221.411 138.905 221.275C138.615 221.13 138.322 221.017 138.024 220.937C137.42 220.776 136.896 220.766 136.452 220.908C136.02 221.043 135.748 221.318 135.637 221.733C135.577 221.958 135.576 222.195 135.635 222.442C135.706 222.684 135.84 222.903 136.039 223.101C136.246 223.302 136.525 223.449 136.877 223.543C137.246 223.642 137.617 223.664 137.989 223.609C138.364 223.546 138.681 223.428 138.94 223.255ZM143.609 226.159L145.218 220.155L142.784 219.502L143.066 218.448L149.125 220.071L148.842 221.126L146.408 220.473L144.799 226.478L143.609 226.159ZM148.415 227.447L150.307 220.388L151.497 220.706L150.852 223.114L152.61 223.585C153.439 223.807 154.009 224.187 154.319 224.724C154.641 225.254 154.711 225.858 154.53 226.534C154.409 226.985 154.206 227.365 153.92 227.675C153.643 227.987 153.296 228.199 152.88 228.31C152.464 228.42 151.985 228.403 151.444 228.258L148.415 227.447ZM149.855 226.832L151.532 227.282C151.866 227.371 152.148 227.379 152.381 227.306C152.624 227.226 152.825 227.092 152.982 226.902C153.139 226.712 153.251 226.491 153.319 226.239C153.384 225.995 153.399 225.758 153.365 225.526C153.33 225.295 153.226 225.088 153.053 224.906C152.879 224.725 152.612 224.585 152.251 224.489L150.602 224.047L149.855 226.832ZM156.942 226.673C157.029 226.349 157.145 226.061 157.289 225.81C157.443 225.561 157.63 225.35 157.85 225.177C158.082 224.998 158.356 224.859 158.672 224.76C158.863 224.695 159.078 224.632 159.317 224.57C159.565 224.511 159.804 224.43 160.034 224.328C160.276 224.218 160.489 224.073 160.673 223.89C160.86 223.698 160.994 223.449 161.076 223.143C161.168 222.8 161.163 222.495 161.061 222.226C160.971 221.95 160.815 221.72 160.594 221.535C160.373 221.35 160.118 221.219 159.83 221.142C159.532 221.062 159.237 221.046 158.944 221.093C158.651 221.14 158.379 221.237 158.128 221.382C157.888 221.52 157.673 221.69 157.484 221.891L156.828 221.149C157.089 220.823 157.399 220.568 157.757 220.384C158.125 220.202 158.512 220.093 158.918 220.057C159.323 220.021 159.725 220.056 160.121 220.162C160.455 220.252 160.765 220.393 161.052 220.585C161.35 220.771 161.596 221.007 161.79 221.291C161.994 221.577 162.129 221.903 162.195 222.269C162.261 222.634 162.235 223.038 162.117 223.48C162.025 223.822 161.901 224.103 161.746 224.322C161.591 224.542 161.408 224.72 161.197 224.857C160.995 224.996 160.773 225.105 160.529 225.185C160.286 225.265 160.034 225.337 159.775 225.403C159.527 225.462 159.28 225.536 159.034 225.625C158.797 225.716 158.58 225.861 158.382 226.059C158.195 226.25 158.049 226.545 157.943 226.941L156.942 226.673ZM156.204 229.534L156.625 227.965L157.625 228.233L157.205 229.802L156.204 229.534Z" fill="#111111"/>
    <path d="M233.191 170.163L235.27 166.562C235.079 166.538 234.857 166.502 234.605 166.453C234.353 166.404 234.076 166.325 233.773 166.215C233.483 166.101 233.176 165.951 232.853 165.764C231.899 165.214 231.313 164.595 231.095 163.909C230.882 163.215 231.043 162.403 231.58 161.473L233.19 158.684L234.245 159.293L232.705 161.961C232.345 162.583 232.231 163.126 232.362 163.59C232.506 164.05 232.922 164.479 233.609 164.875C233.964 165.081 234.347 165.248 234.758 165.377C235.176 165.511 235.534 165.582 235.83 165.592L238.161 161.554L239.228 162.17L234.258 170.779L233.191 170.163ZM237.694 172.763L240.802 167.38L238.62 166.12L239.166 165.174L244.598 168.31L244.052 169.256L241.869 167.996L238.761 173.379L237.694 172.763ZM244.71 176.975C244.233 176.7 243.849 176.365 243.559 175.971C243.274 175.569 243.076 175.137 242.966 174.675C242.861 174.204 242.845 173.727 242.92 173.242C242.996 172.757 243.159 172.297 243.411 171.86C243.668 171.416 243.987 171.04 244.369 170.732C244.752 170.425 245.171 170.203 245.626 170.068C246.086 169.924 246.559 169.879 247.045 169.933C247.544 169.984 248.032 170.147 248.509 170.423C248.978 170.693 249.355 171.029 249.64 171.431C249.93 171.825 250.128 172.257 250.233 172.728C250.352 173.195 250.373 173.671 250.298 174.155C250.223 174.64 250.057 175.105 249.801 175.549C249.549 175.986 249.231 176.358 248.849 176.665C248.467 176.972 248.046 177.198 247.586 177.342C247.13 177.478 246.653 177.52 246.154 177.469C245.668 177.415 245.187 177.25 244.71 176.975ZM244.495 172.502C244.243 172.939 244.108 173.389 244.088 173.852C244.077 174.319 244.168 174.749 244.362 175.141C244.561 175.525 244.854 175.829 245.242 176.053C245.63 176.277 246.042 176.375 246.479 176.347C246.923 176.324 247.341 176.188 247.732 175.939C248.136 175.688 248.464 175.344 248.716 174.907C248.968 174.471 249.1 174.019 249.111 173.551C249.131 173.088 249.04 172.658 248.838 172.261C248.644 171.869 248.353 171.561 247.965 171.337C247.577 171.113 247.162 171.019 246.721 171.055C246.284 171.084 245.866 171.219 245.467 171.463C245.076 171.711 244.752 172.058 244.495 172.502ZM253.88 182.108L256.988 176.724L254.805 175.464L255.351 174.519L260.783 177.655L260.237 178.6L258.055 177.34L254.947 182.724L253.88 182.108ZM258.761 182.485C258.994 182.08 259.308 181.798 259.702 181.638C260.109 181.474 260.562 181.428 261.059 181.5C261.557 181.571 262.072 181.761 262.606 182.069C262.888 182.233 263.174 182.43 263.461 182.66C263.753 182.882 263.994 183.108 264.185 183.337L264.451 182.876C264.731 182.391 264.805 181.927 264.673 181.485C264.545 181.034 264.215 180.654 263.681 180.346C263.334 180.146 262.961 180.017 262.563 179.959C262.178 179.898 261.74 179.883 261.249 179.912L261.295 178.936C261.87 178.891 262.404 178.919 262.895 179.02C263.391 179.112 263.862 179.287 264.306 179.543C265.115 180.01 265.623 180.605 265.83 181.328C266.042 182.043 265.917 182.801 265.455 183.601L263.908 186.281C263.834 186.41 263.802 186.521 263.813 186.614C263.837 186.703 263.907 186.787 264.024 186.865L263.548 187.689C263.433 187.645 263.333 187.603 263.248 187.565C263.171 187.531 263.108 187.5 263.059 187.472C262.809 187.327 262.658 187.149 262.608 186.937C262.566 186.729 262.582 186.544 262.654 186.381L262.861 185.967C262.381 186.164 261.862 186.231 261.306 186.169C260.749 186.106 260.253 185.949 259.816 185.697C259.396 185.454 259.069 185.152 258.836 184.791C258.607 184.422 258.484 184.038 258.466 183.64C258.452 183.233 258.551 182.848 258.761 182.485ZM262.624 185.313C262.786 185.256 262.929 185.187 263.051 185.107C263.177 185.018 263.264 184.933 263.31 184.853L263.765 184.064C263.571 183.823 263.35 183.598 263.103 183.391C262.861 183.176 262.607 182.991 262.34 182.837C261.798 182.525 261.295 182.379 260.829 182.402C260.377 182.421 260.043 182.616 259.828 182.988C259.712 183.19 259.65 183.418 259.643 183.673C259.649 183.924 259.722 184.171 259.862 184.414C260.01 184.661 260.242 184.875 260.557 185.057C260.888 185.249 261.241 185.366 261.615 185.409C261.993 185.445 262.33 185.413 262.624 185.313ZM264.902 188.471L268.556 182.142L269.623 182.758L268.118 185.365L268.821 185.771L272.315 184.312L273.527 185.012L269.392 186.715L270.152 191.502L268.915 190.788L268.254 186.753L267.551 186.347L265.969 189.087L264.902 188.471ZM273.564 193.634C273.087 193.359 272.704 193.024 272.414 192.63C272.129 192.229 271.931 191.796 271.821 191.334C271.715 190.864 271.7 190.386 271.775 189.901C271.85 189.417 272.014 188.956 272.266 188.519C272.522 188.075 272.842 187.699 273.224 187.392C273.606 187.084 274.025 186.863 274.481 186.727C274.941 186.583 275.414 186.538 275.9 186.592C276.399 186.643 276.887 186.806 277.363 187.082C277.832 187.352 278.209 187.689 278.495 188.09C278.785 188.484 278.982 188.916 279.088 189.387C279.206 189.854 279.228 190.33 279.153 190.815C279.078 191.299 278.912 191.764 278.655 192.208C278.403 192.645 278.086 193.017 277.704 193.324C277.322 193.632 276.9 193.857 276.44 194.001C275.984 194.137 275.507 194.179 275.009 194.128C274.523 194.074 274.041 193.909 273.564 193.634ZM273.35 189.162C273.098 189.598 272.962 190.048 272.943 190.511C272.931 190.978 273.023 191.408 273.216 191.8C273.415 192.185 273.708 192.489 274.096 192.713C274.484 192.937 274.897 193.035 275.333 193.006C275.778 192.983 276.196 192.847 276.587 192.599C276.991 192.347 277.319 192.003 277.571 191.566C277.823 191.13 277.955 190.678 277.966 190.21C277.985 189.747 277.894 189.317 277.692 188.92C277.498 188.528 277.207 188.22 276.819 187.996C276.431 187.772 276.017 187.678 275.575 187.715C275.139 187.743 274.721 187.879 274.322 188.122C273.93 188.371 273.606 188.717 273.35 189.162ZM280.859 197.845C280.382 197.57 279.994 197.233 279.696 196.835C279.411 196.433 279.209 195.999 279.091 195.532C278.985 195.061 278.966 194.581 279.033 194.092C279.108 193.607 279.274 193.142 279.531 192.698C279.876 192.1 280.328 191.633 280.888 191.299C281.447 190.965 282.056 190.788 282.714 190.769C283.379 190.754 284.027 190.929 284.658 191.293C285.296 191.662 285.761 192.135 286.053 192.713C286.357 193.287 286.496 193.896 286.47 194.538C286.457 195.177 286.287 195.779 285.96 196.345C285.914 196.426 285.863 196.505 285.808 196.581C285.766 196.653 285.729 196.708 285.698 196.743L280.448 193.712C280.243 194.143 280.143 194.576 280.151 195.012C280.171 195.444 280.285 195.844 280.493 196.212C280.705 196.571 280.993 196.856 281.357 197.066C281.745 197.29 282.165 197.403 282.616 197.405C283.076 197.412 283.461 197.295 283.773 197.054L284.547 197.841C284.232 198.069 283.868 198.225 283.453 198.309C283.046 198.397 282.617 198.403 282.166 198.325C281.723 198.253 281.287 198.093 280.859 197.845ZM280.839 192.952L285.155 195.444C285.361 195.013 285.454 194.582 285.433 194.15C285.413 193.718 285.297 193.322 285.085 192.962C284.872 192.602 284.576 192.313 284.196 192.093C283.824 191.879 283.429 191.769 283.011 191.765C282.593 191.761 282.192 191.858 281.808 192.057C281.432 192.26 281.109 192.558 280.839 192.952ZM225.018 180.409C225.321 179.884 225.707 179.422 226.174 179.023C226.654 178.621 227.187 178.315 227.772 178.103C228.37 177.888 228.994 177.806 229.643 177.858C230.297 177.901 230.948 178.11 231.594 178.483C232.362 178.926 232.918 179.485 233.262 180.158C233.611 180.823 233.761 181.507 233.71 182.21L232.527 182.271C232.567 181.809 232.515 181.396 232.369 181.032C232.237 180.665 232.043 180.348 231.787 180.082C231.539 179.82 231.27 179.605 230.979 179.437C230.502 179.162 230.021 179.014 229.538 178.993C229.062 178.977 228.605 179.058 228.168 179.237C227.731 179.416 227.331 179.67 226.968 179.999C226.618 180.325 226.327 180.691 226.093 181.095C225.837 181.539 225.662 182.01 225.57 182.506C225.485 183.007 225.485 183.492 225.57 183.961C225.655 184.43 225.825 184.863 226.082 185.259C226.338 185.655 226.681 185.976 227.109 186.224C227.408 186.396 227.746 186.521 228.122 186.598C228.497 186.675 228.886 186.684 229.287 186.624C229.692 186.556 230.078 186.391 230.445 186.129L231.068 187.151C230.642 187.477 230.158 187.682 229.613 187.766C229.069 187.851 228.522 187.837 227.972 187.724C227.431 187.617 226.938 187.434 226.494 187.178C225.904 186.837 225.434 186.399 225.086 185.864C224.742 185.32 224.51 184.734 224.389 184.103C224.28 183.47 224.277 182.832 224.378 182.19C224.492 181.544 224.705 180.951 225.018 180.409ZM231.71 187.652C231.944 187.247 232.258 186.965 232.652 186.805C233.059 186.641 233.511 186.595 234.009 186.667C234.506 186.739 235.022 186.928 235.555 187.236C235.838 187.4 236.123 187.597 236.41 187.827C236.702 188.05 236.944 188.275 237.135 188.504L237.401 188.043C237.681 187.558 237.755 187.094 237.623 186.652C237.495 186.201 237.164 185.821 236.631 185.513C236.283 185.313 235.911 185.184 235.513 185.126C235.127 185.066 234.689 185.05 234.198 185.079L234.244 184.103C234.82 184.058 235.353 184.086 235.845 184.187C236.341 184.279 236.812 184.454 237.256 184.71C238.064 185.177 238.572 185.772 238.78 186.495C238.992 187.211 238.867 187.968 238.405 188.768L236.858 191.448C236.783 191.577 236.752 191.688 236.763 191.781C236.787 191.87 236.857 191.954 236.973 192.032L236.497 192.856C236.383 192.812 236.283 192.77 236.198 192.732C236.12 192.698 236.057 192.667 236.009 192.639C235.758 192.494 235.608 192.316 235.558 192.104C235.516 191.896 235.531 191.711 235.604 191.548L235.81 191.134C235.33 191.331 234.812 191.398 234.255 191.336C233.699 191.273 233.202 191.116 232.766 190.864C232.346 190.621 232.019 190.319 231.785 189.958C231.557 189.589 231.433 189.205 231.415 188.807C231.402 188.4 231.5 188.015 231.71 187.652ZM235.574 190.48C235.736 190.423 235.878 190.354 236 190.274C236.127 190.185 236.213 190.1 236.26 190.02L236.715 189.232C236.52 188.99 236.3 188.765 236.053 188.558C235.811 188.343 235.556 188.158 235.29 188.004C234.748 187.692 234.245 187.547 233.779 187.569C233.326 187.588 232.993 187.783 232.778 188.155C232.661 188.357 232.599 188.585 232.593 188.84C232.598 189.091 232.671 189.338 232.812 189.581C232.96 189.828 233.191 190.042 233.507 190.224C233.838 190.416 234.191 190.533 234.564 190.576C234.943 190.612 235.279 190.58 235.574 190.48ZM237.852 193.638L241.506 187.309L242.573 187.925L241.061 190.544L244.359 192.448L245.871 189.829L246.938 190.445L243.284 196.774L242.217 196.158L243.813 193.394L240.515 191.49L238.919 194.254L237.852 193.638ZM245.173 197.865L250.143 189.257L256.787 193.093L251.817 201.701L250.726 201.071L255.136 193.433L250.675 190.857L246.265 198.495L245.173 197.865ZM253.694 202.785L257.341 196.468L258.408 197.084L255.587 201.97L261.955 199.116L262.925 199.676L259.271 206.005L258.204 205.389L260.969 200.6L254.712 203.373L253.694 202.785ZM273.039 202.476L268.069 211.084L266.978 210.454L269.239 206.538L264.498 203.801L262.237 207.717L261.146 207.087L266.116 198.479L267.207 199.109L265.058 202.831L269.799 205.568L271.948 201.846L273.039 202.476ZM272.325 210.13C272.493 209.839 272.679 209.591 272.884 209.386C273.097 209.186 273.332 209.03 273.589 208.92C273.859 208.807 274.16 208.744 274.491 208.73C274.693 208.717 274.917 208.712 275.163 208.714C275.418 208.721 275.67 208.705 275.919 208.665C276.181 208.622 276.424 208.537 276.649 208.408C276.879 208.271 277.073 208.065 277.232 207.791C277.409 207.483 277.484 207.187 277.455 206.901C277.439 206.611 277.348 206.349 277.182 206.113C277.017 205.877 276.805 205.685 276.546 205.535C276.279 205.381 275.998 205.289 275.703 205.259C275.408 205.229 275.12 205.251 274.84 205.326C274.572 205.398 274.321 205.506 274.086 205.651L273.644 204.765C273.981 204.518 274.346 204.352 274.74 204.267C275.142 204.186 275.544 204.181 275.946 204.251C276.347 204.321 276.725 204.459 277.081 204.664C277.38 204.837 277.643 205.053 277.87 205.314C278.11 205.571 278.287 205.861 278.401 206.186C278.523 206.515 278.569 206.865 278.539 207.236C278.508 207.606 278.379 207.989 278.15 208.385C277.973 208.692 277.78 208.932 277.574 209.103C277.367 209.275 277.144 209.399 276.905 209.477C276.674 209.559 276.431 209.607 276.175 209.621C275.919 209.635 275.658 209.64 275.39 209.637C275.136 209.63 274.878 209.638 274.617 209.66C274.365 209.686 274.117 209.77 273.875 209.91C273.645 210.047 273.427 210.293 273.222 210.648L272.325 210.13ZM270.872 212.703L271.684 211.296L272.581 211.814L271.769 213.221L270.872 212.703Z" fill="#111111"/>
    <path d="M260.931 79.2182L259.855 75.2019C259.703 75.3199 259.52 75.4509 259.308 75.5949C259.095 75.7388 258.843 75.8789 258.551 76.0151C258.265 76.1399 257.942 76.2506 257.582 76.3473C256.518 76.6323 255.666 76.6093 255.027 76.2782C254.385 75.938 253.925 75.2496 253.647 74.2128L252.814 71.1026L253.99 70.7873L254.787 73.7624C254.973 74.4566 255.277 74.9212 255.697 75.1564C256.124 75.3801 256.721 75.3894 257.487 75.184C257.884 75.0777 258.273 74.9252 258.655 74.7263C259.045 74.525 259.349 74.323 259.565 74.1201L258.358 69.6169L259.548 69.2981L262.121 78.8994L260.931 79.2182ZM265.954 77.8724L264.345 71.8682L261.911 72.5204L261.628 71.4656L267.686 69.8423L267.969 70.8971L265.535 71.5493L267.144 77.5535L265.954 77.8724ZM273.893 75.89C273.361 76.0326 272.853 76.0671 272.37 75.9938C271.884 75.9114 271.438 75.7457 271.034 75.4967C270.626 75.2386 270.278 74.9117 269.988 74.5158C269.698 74.12 269.488 73.6786 269.358 73.1918C269.225 72.696 269.185 72.2042 269.238 71.7166C269.291 71.2289 269.43 70.776 269.657 70.3579C269.88 69.9308 270.183 69.5646 270.565 69.2593C270.954 68.9426 271.414 68.713 271.946 68.5705C272.469 68.4304 272.973 68.4015 273.459 68.4839C273.943 68.5573 274.388 68.723 274.795 68.981C275.209 69.2276 275.561 69.5488 275.851 69.9447C276.14 70.3406 276.352 70.7864 276.484 71.2822C276.615 71.7691 276.654 72.2563 276.601 72.744C276.548 73.2316 276.41 73.689 276.186 74.1161C275.96 74.5342 275.652 74.9016 275.264 75.2183C274.882 75.5236 274.425 75.7475 273.893 75.89ZM270.579 72.8792C270.709 73.366 270.931 73.78 271.245 74.1211C271.567 74.4598 271.936 74.6993 272.35 74.8395C272.762 74.9706 273.185 74.9782 273.617 74.8623C274.05 74.7463 274.411 74.5241 274.7 74.1955C274.997 73.8644 275.197 73.4728 275.298 73.0206C275.406 72.5569 275.394 72.0817 275.264 71.5948C275.133 71.108 274.907 70.6952 274.584 70.3565C274.271 70.0154 273.902 69.776 273.479 69.6382C273.064 69.498 272.641 69.4859 272.208 69.6019C271.775 69.7178 271.416 69.9446 271.129 70.2822C270.84 70.6108 270.641 71.0025 270.531 71.4571C270.43 71.9093 270.446 72.3834 270.579 72.8792ZM284.006 73.0352L282.398 67.031L279.963 67.6832L279.681 66.6284L285.739 65.0051L286.022 66.0599L283.588 66.7121L285.196 72.7163L284.006 73.0352ZM287.724 69.8504C287.604 69.3996 287.626 68.9781 287.791 68.5859C287.963 68.1823 288.251 67.83 288.653 67.5289C289.056 67.2278 289.554 66.9975 290.149 66.8381C290.465 66.7535 290.806 66.6912 291.172 66.6511C291.535 66.602 291.866 66.5907 292.163 66.6174L292.025 66.1036C291.88 65.5627 291.604 65.1824 291.198 64.9629C290.789 64.7343 290.287 64.6997 289.692 64.8591C289.304 64.963 288.949 65.1354 288.627 65.3763C288.312 65.6057 287.991 65.9043 287.664 66.272L287.007 65.5495C287.382 65.1108 287.779 64.7532 288.198 64.4768C288.614 64.1913 289.07 63.9821 289.566 63.8493C290.467 63.6077 291.247 63.6693 291.905 64.034C292.561 64.3898 293.009 65.0139 293.248 65.9064L294.049 68.895C294.087 69.0392 294.143 69.1402 294.217 69.1978C294.297 69.244 294.406 69.2535 294.543 69.2263L294.79 70.1458C294.677 70.1953 294.577 70.2366 294.489 70.2697C294.411 70.3005 294.344 70.3231 294.29 70.3376C294.011 70.4125 293.778 70.3926 293.593 70.278C293.417 70.161 293.297 70.0193 293.233 69.8528L293.086 69.4138C292.886 69.8926 292.567 70.3066 292.129 70.6558C291.691 71.0051 291.229 71.2449 290.742 71.3753C290.273 71.501 289.828 71.5186 289.408 71.4283C288.985 71.329 288.627 71.1449 288.332 70.8759C288.036 70.5979 287.833 70.2561 287.724 69.8504ZM292.456 69.1187C292.531 68.9635 292.582 68.8144 292.612 68.6713C292.639 68.5191 292.64 68.398 292.616 68.3078L292.38 67.4288C292.072 67.3955 291.757 67.3929 291.436 67.4209C291.113 67.44 290.802 67.4893 290.505 67.569C289.901 67.7309 289.442 67.9843 289.128 68.3291C288.822 68.6626 288.724 69.0366 288.835 69.4513C288.895 69.6767 289.013 69.8819 289.188 70.0669C289.37 70.2404 289.596 70.3634 289.867 70.4358C290.147 70.5058 290.462 70.4937 290.814 70.3995C291.183 70.3004 291.516 70.1341 291.811 69.9005C292.103 69.6578 292.318 69.3973 292.456 69.1187ZM296.3 69.741L294.409 62.6821L295.599 62.3632L296.378 65.2706L297.162 65.0605L298.601 61.5588L299.953 61.1964L298.233 65.3243L302.156 68.1721L300.776 68.5417L297.456 66.1558L296.671 66.366L297.49 69.4222L296.3 69.741ZM306.076 67.2666C305.544 67.4091 305.036 67.4437 304.553 67.3703C304.067 67.288 303.622 67.1223 303.217 66.8732C302.809 66.6152 302.461 66.2883 302.171 65.8924C301.881 65.4966 301.671 65.0552 301.541 64.5684C301.408 64.0725 301.368 63.5808 301.421 63.0932C301.474 62.6055 301.614 62.1526 301.84 61.7345C302.063 61.3074 302.366 60.9412 302.748 60.6359C303.137 60.3192 303.597 60.0896 304.129 59.9471C304.652 59.807 305.156 59.7781 305.642 59.8605C306.126 59.9339 306.571 60.0996 306.978 60.3576C307.392 60.6042 307.744 60.9254 308.034 61.3213C308.323 61.7171 308.535 62.163 308.668 62.6588C308.798 63.1456 308.837 63.6329 308.784 64.1205C308.731 64.6082 308.593 65.0656 308.369 65.4927C308.143 65.9108 307.835 66.2782 307.447 66.5949C307.065 66.9002 306.608 67.1241 306.076 67.2666ZM302.762 64.2558C302.892 64.7426 303.114 65.1566 303.428 65.4977C303.75 65.8364 304.119 66.0758 304.533 66.216C304.945 66.3472 305.368 66.3548 305.8 66.2389C306.233 66.1229 306.594 65.9006 306.883 65.572C307.181 65.241 307.38 64.8494 307.481 64.3971C307.589 63.9335 307.577 63.4582 307.447 62.9714C307.316 62.4846 307.09 62.0718 306.767 61.7331C306.454 61.392 306.085 61.1526 305.662 61.0148C305.247 60.8746 304.824 60.8625 304.391 60.9784C303.958 61.0944 303.599 61.3212 303.312 61.6588C303.023 61.9874 302.824 62.379 302.714 62.8337C302.613 63.2859 302.629 63.76 302.762 64.2558ZM314.212 65.0866C313.68 65.2291 313.168 65.2649 312.675 65.194C312.189 65.1116 311.739 64.9471 311.325 64.7005C310.918 64.4425 310.565 64.1167 310.266 63.7233C309.977 63.3274 309.765 62.8816 309.633 62.3857C309.454 61.7186 309.444 61.069 309.603 60.4369C309.762 59.8049 310.068 59.2496 310.519 58.7711C310.98 58.2902 311.562 57.9555 312.265 57.7671C312.977 57.5762 313.641 57.5821 314.255 57.7845C314.877 57.9756 315.405 58.3074 315.841 58.78C316.283 59.2412 316.589 59.7874 316.758 60.4185C316.782 60.5086 316.802 60.6 316.817 60.6925C316.839 60.7737 316.851 60.838 316.854 60.8855L310.999 62.4544C311.158 62.9046 311.394 63.2809 311.707 63.5836C312.027 63.8748 312.39 64.077 312.797 64.1901C313.202 64.2942 313.607 64.2919 314.013 64.1832C314.446 64.0673 314.823 63.8504 315.143 63.5326C315.473 63.2123 315.663 62.8571 315.713 62.4668L316.817 62.4754C316.755 62.8591 316.607 63.2272 316.373 63.5798C316.148 63.93 315.849 64.2372 315.475 64.5016C315.111 64.7636 314.689 64.9586 314.212 65.0866ZM310.737 61.6404L315.552 60.3505C315.392 59.9003 315.153 59.5297 314.833 59.2385C314.514 58.9473 314.151 58.7496 313.747 58.6455C313.342 58.5413 312.928 58.5461 312.504 58.6596C312.089 58.7707 311.733 58.9725 311.434 59.2651C311.136 59.5576 310.921 59.9099 310.79 60.3219C310.668 60.7315 310.65 61.171 310.737 61.6404ZM259.955 98.1146L258.346 92.1104L255.912 92.7627L255.63 91.7079L261.688 90.0846L261.971 91.1393L259.536 91.7916L261.145 97.7958L259.955 98.1146ZM267.935 96.1214C267.403 96.264 266.891 96.2997 266.398 96.2288C265.912 96.1464 265.462 95.9819 265.049 95.7353C264.641 95.4773 264.288 95.1515 263.99 94.7581C263.7 94.3622 263.489 93.9164 263.356 93.4206C263.177 92.7534 263.167 92.1038 263.326 91.4718C263.486 90.8397 263.791 90.2844 264.242 89.8059C264.703 89.325 265.285 88.9903 265.988 88.8019C266.7 88.6111 267.364 88.6169 267.978 88.8193C268.6 89.0104 269.128 89.3422 269.564 89.8149C270.007 90.2761 270.312 90.8222 270.481 91.4533C270.506 91.5434 270.525 91.6348 270.54 91.7274C270.562 91.8085 270.574 91.8728 270.578 91.9203L264.722 93.4893C264.881 93.9394 265.117 94.3158 265.43 94.6184C265.75 94.9096 266.113 95.1118 266.521 95.2249C266.925 95.329 267.331 95.3268 267.736 95.2181C268.169 95.1021 268.546 94.8852 268.866 94.5674C269.196 94.2471 269.386 93.8919 269.436 93.5017L270.54 93.5103C270.478 93.8939 270.331 94.262 270.096 94.6146C269.871 94.9648 269.572 95.2721 269.198 95.5364C268.834 95.7984 268.413 95.9934 267.935 96.1214ZM264.46 92.6752L269.275 91.3853C269.115 90.9352 268.876 90.5645 268.556 90.2733C268.237 89.9821 267.875 89.7844 267.47 89.6803C267.065 89.5762 266.651 89.5809 266.227 89.6944C265.812 89.8055 265.456 90.0074 265.157 90.2999C264.859 90.5925 264.644 90.9447 264.513 91.3567C264.391 91.7663 264.373 92.2058 264.46 92.6752ZM271.4 87.4821L273.962 89.5785L274.128 89.7659L274.192 89.5169L275.349 86.4241L276.674 86.069L275.014 90.3113L278.579 93.1243L277.254 93.4794L274.696 91.3966L274.52 91.2263L274.466 91.4582L273.292 94.5411L271.967 94.8962L273.648 90.6773L270.089 87.8336L271.4 87.4821ZM279.603 92.85L279.197 91.3355L280.198 91.0673L280.604 92.5819L279.603 92.85ZM282.418 92.0958L280.526 85.0368L281.716 84.718L282.495 87.6254L283.28 87.4152L284.718 83.9136L286.071 83.5512L284.35 87.6791L288.273 90.5269L286.894 90.8965L283.573 88.5106L282.789 88.7208L283.608 91.777L282.418 92.0958ZM288.342 88.3198C288.221 87.8691 288.244 87.4476 288.409 87.0554C288.581 86.6518 288.868 86.2994 289.271 85.9983C289.673 85.6972 290.172 85.467 290.767 85.3076C291.083 85.223 291.423 85.1607 291.789 85.1206C292.153 85.0714 292.484 85.0602 292.781 85.0869L292.643 84.573C292.498 84.0321 292.222 83.6519 291.815 83.4323C291.406 83.2037 290.904 83.1692 290.309 83.3286C289.922 83.4325 289.567 83.6048 289.245 83.8457C288.929 84.0752 288.608 84.3737 288.282 84.7415L287.624 84.019C288 83.5803 288.397 83.2227 288.815 82.9462C289.232 82.6607 289.688 82.4516 290.184 82.3187C291.085 82.0772 291.865 82.1387 292.523 82.5035C293.179 82.8592 293.626 83.4834 293.865 84.3759L294.666 87.3644C294.705 87.5087 294.761 87.6096 294.834 87.6673C294.914 87.7135 295.023 87.7229 295.161 87.6957L295.407 88.6153C295.295 88.6647 295.195 88.706 295.107 88.7392C295.028 88.7699 294.962 88.7926 294.908 88.8071C294.628 88.882 294.396 88.8621 294.211 88.7475C294.034 88.6305 293.914 88.4887 293.85 88.3223L293.704 87.8832C293.504 88.362 293.184 88.7761 292.747 89.1253C292.309 89.4745 291.846 89.7144 291.36 89.8448C290.891 89.9704 290.446 89.9881 290.026 89.8978C289.603 89.7985 289.245 89.6144 288.95 89.3454C288.653 89.0674 288.451 88.7255 288.342 88.3198ZM293.074 87.5882C293.148 87.433 293.2 87.2838 293.229 87.1407C293.256 86.9886 293.258 86.8674 293.233 86.7773L292.998 85.8983C292.689 85.865 292.375 85.8624 292.054 85.8904C291.73 85.9094 291.42 85.9588 291.122 86.0385C290.518 86.2004 290.06 86.4537 289.746 86.7986C289.439 87.132 289.341 87.5061 289.453 87.9208C289.513 88.1462 289.631 88.3514 289.806 88.5363C289.988 88.7098 290.214 88.8328 290.485 88.9052C290.764 88.9753 291.08 88.9632 291.431 88.8689C291.801 88.7699 292.133 88.6036 292.428 88.3699C292.721 88.1273 292.936 87.8667 293.074 87.5882ZM300.768 87.3239C300.191 87.4785 299.638 87.472 299.11 87.3043C298.582 87.1365 298.128 86.8668 297.748 86.4951L298.893 90.7684L297.703 91.0873L295.04 81.1479L296.095 80.8653L296.45 82.1905C296.613 81.6829 296.886 81.238 297.266 80.8557C297.645 80.4645 298.1 80.1976 298.632 80.0551C299.118 79.9247 299.591 79.9042 300.05 79.9939C300.509 80.0835 300.933 80.2598 301.322 80.5226C301.712 80.7855 302.046 81.1161 302.327 81.5143C302.614 81.9012 302.822 82.3335 302.95 82.8113C303.129 83.4784 303.158 84.1277 303.037 84.7591C302.925 85.3881 302.675 85.9334 302.287 86.395C301.896 86.8476 301.39 87.1572 300.768 87.3239ZM300.127 86.394C300.479 86.2998 300.775 86.1431 301.016 85.924C301.263 85.6934 301.453 85.4299 301.587 85.1333C301.726 84.8253 301.808 84.4991 301.832 84.1545C301.855 83.81 301.822 83.471 301.733 83.1374C301.639 82.7858 301.486 82.4692 301.276 82.1874C301.074 81.9033 300.828 81.6697 300.537 81.4867C300.255 81.3013 299.948 81.1808 299.614 81.1253C299.287 81.0583 298.952 81.0708 298.609 81.1626C298.393 81.2205 298.179 81.3215 297.966 81.4654C297.762 81.607 297.577 81.7821 297.411 81.991C297.242 82.1908 297.111 82.4047 297.018 82.6326C296.924 82.8606 296.884 83.0888 296.897 83.3173L297.437 85.3322C297.654 85.6025 297.909 85.8336 298.202 86.0257C298.495 86.2177 298.811 86.3505 299.15 86.424C299.486 86.4886 299.812 86.4786 300.127 86.394ZM307.074 85.4891L305.465 79.4849L303.031 80.1371L302.749 79.0823L308.807 77.459L309.09 78.5138L306.655 79.166L308.264 85.1702L307.074 85.4891ZM310.792 82.3043C310.671 81.8535 310.694 81.4321 310.859 81.0399C311.031 80.6363 311.319 80.2839 311.721 79.9828C312.124 79.6817 312.622 79.4515 313.217 79.292C313.533 79.2075 313.874 79.1451 314.24 79.105C314.603 79.0559 314.934 79.0447 315.231 79.0714L315.093 78.5575C314.948 78.0166 314.672 77.6364 314.266 77.4168C313.857 77.1882 313.354 77.1537 312.759 77.3131C312.372 77.417 312.017 77.5893 311.695 77.8302C311.38 78.0596 311.059 78.3582 310.732 78.726L310.075 78.0035C310.45 77.5648 310.847 77.2072 311.266 76.9307C311.682 76.6452 312.138 76.4361 312.634 76.3032C313.535 76.0616 314.315 76.1232 314.973 76.488C315.629 76.8437 316.077 77.4678 316.316 78.3603L317.116 81.3489C317.155 81.4932 317.211 81.5941 317.285 81.6517C317.365 81.6979 317.473 81.7074 317.611 81.6802L317.857 82.5998C317.745 82.6492 317.645 82.6905 317.557 82.7237C317.479 82.7544 317.412 82.7771 317.358 82.7915C317.079 82.8664 316.846 82.8466 316.661 82.732C316.485 82.6149 316.365 82.4732 316.301 82.3067L316.154 81.8677C315.954 82.3465 315.635 82.7605 315.197 83.1098C314.759 83.459 314.297 83.6988 313.81 83.8293C313.341 83.9549 312.896 83.9726 312.476 83.8823C312.053 83.783 311.695 83.5988 311.4 83.3298C311.104 83.0518 310.901 82.71 310.792 82.3043ZM315.524 81.5727C315.599 81.4175 315.65 81.2683 315.68 81.1252C315.706 80.973 315.708 80.8519 315.684 80.7617L315.448 79.8828C315.14 79.8495 314.825 79.8468 314.504 79.8749C314.181 79.8939 313.87 79.9433 313.573 80.023C312.969 80.1848 312.51 80.4382 312.196 80.7831C311.89 81.1165 311.792 81.4906 311.903 81.9053C311.963 82.1307 312.081 82.3358 312.256 82.5208C312.438 82.6943 312.664 82.8173 312.935 82.8897C313.214 82.9597 313.53 82.9476 313.882 82.8534C314.251 82.7544 314.584 82.588 314.878 82.3544C315.171 82.1118 315.386 81.8512 315.524 81.5727ZM319.34 79.1443C319.253 78.8197 319.21 78.5126 319.209 78.2228C319.218 77.9306 319.274 77.6545 319.379 77.3947C319.49 77.1234 319.657 76.8659 319.882 76.6221C320.015 76.4705 320.17 76.3083 320.346 76.1355C320.531 75.9603 320.697 75.7707 320.846 75.5668C321 75.3513 321.112 75.1185 321.18 74.8683C321.246 74.6091 321.238 74.3263 321.156 74.0198C321.064 73.6772 320.907 73.4149 320.684 73.233C320.468 73.0397 320.218 72.9183 319.934 72.8687C319.65 72.8191 319.364 72.833 319.076 72.9103C318.778 72.99 318.514 73.1235 318.284 73.3108C318.054 73.498 317.867 73.7174 317.722 73.9689C317.583 74.2089 317.482 74.463 317.419 74.7313L316.479 74.4177C316.543 74.0045 316.683 73.6286 316.902 73.2899C317.129 72.9487 317.41 72.661 317.743 72.4267C318.077 72.1925 318.442 72.0222 318.838 71.9159C319.172 71.8265 319.511 71.7936 319.855 71.8173C320.206 71.8295 320.537 71.9099 320.848 72.0587C321.167 72.205 321.447 72.4199 321.687 72.7034C321.927 72.9869 322.107 73.3495 322.225 73.7912C322.317 74.1338 322.35 74.4389 322.325 74.7065C322.3 74.974 322.231 75.2197 322.117 75.4435C322.012 75.6649 321.874 75.8709 321.703 76.0617C321.532 76.2525 321.35 76.4412 321.159 76.6278C320.974 76.803 320.797 76.9905 320.628 77.1903C320.469 77.3877 320.353 77.6217 320.28 77.8923C320.214 78.1515 320.235 78.4795 320.341 78.8761L319.34 79.1443ZM320.132 81.9904L319.711 80.4217L320.712 80.1536L321.132 81.7222L320.132 81.9904Z" fill="#111111"/>
    <rect x="113.696" y="43.2056" width="126.031" height="126.031" rx="17.0156" transform="rotate(15 113.696 43.2056)" fill="white" stroke="#D9D9D9" stroke-width="1.96875"/>
    <path d="M143.03 128.876C143.595 126.767 144.323 124.842 145.213 123.102C146.187 121.314 147.479 119.788 149.089 118.523C150.7 117.259 152.761 116.292 155.272 115.623C156.354 115.277 157.726 114.902 159.388 114.5C161.117 114.115 162.805 113.614 164.455 112.996C166.122 112.312 167.602 111.401 168.896 110.264C170.274 109.079 171.21 107.563 171.704 105.717C172.199 103.872 172.153 102.199 171.565 100.699C171.044 99.2166 170.146 97.9516 168.873 96.9037C167.665 95.8735 166.237 95.1376 164.589 94.696C162.677 94.1837 160.848 94.153 159.102 94.6037C157.374 94.9885 155.824 95.6329 154.451 96.5369C153.078 97.4409 151.861 98.4221 150.8 99.4803L143.787 91.2419C145.698 88.857 147.931 86.9824 150.487 85.6182C153.109 84.2716 155.904 83.4661 158.872 83.2014C161.906 82.9545 164.906 83.2284 167.872 84.0233C170.378 84.6946 172.744 85.7525 174.971 87.1972C177.216 88.576 179.115 90.3214 180.669 92.4335C182.223 94.5456 183.266 96.9803 183.799 99.7374C184.332 102.495 184.14 105.587 183.221 109.015C182.656 111.125 181.889 112.933 180.92 114.44C180.017 115.964 178.927 117.262 177.651 118.333C176.458 119.356 175.061 120.218 173.46 120.92C171.859 121.621 170.168 122.264 168.387 122.846C166.39 123.442 164.369 123.995 162.324 124.507C160.345 125.037 158.577 125.835 157.019 126.901C155.545 127.92 154.508 129.549 153.907 131.791L143.03 128.876ZM137.054 151.97L140.71 138.323L151.687 141.265L148.03 154.911L137.054 151.97Z" fill="#F13C3C"/>
    <rect x="242.455" y="16.6845" width="47.2572" height="47.2572" rx="9.62861" transform="rotate(-15 242.455 16.6845)" fill="white" stroke="#D9D9D9" stroke-width="0.742781"/>
    <path d="M268.119 39.1861C267.906 38.3902 267.78 37.6241 267.743 36.8877C267.724 36.1197 267.858 35.3773 268.146 34.6604C268.434 33.9435 268.925 33.2388 269.619 32.5463C269.907 32.2291 270.285 31.848 270.752 31.4029C271.244 30.9512 271.701 30.4688 272.124 29.9557C272.539 29.4178 272.851 28.841 273.06 28.2254C273.286 27.5783 273.306 26.9065 273.119 26.21C272.933 25.5136 272.602 24.9758 272.127 24.5965C271.677 24.2106 271.145 23.9665 270.531 23.8644C269.943 23.7557 269.337 23.7846 268.715 23.9512C267.994 24.1445 267.391 24.4794 266.905 24.9561C266.413 25.4078 266.028 25.9109 265.75 26.4652C265.472 27.0195 265.26 27.5696 265.113 28.1155L261.267 26.7467C261.441 25.607 261.818 24.5732 262.395 23.6453C262.998 22.7107 263.759 21.9203 264.679 21.2739C265.624 20.621 266.656 20.1445 267.775 19.8446C268.72 19.5913 269.693 19.4907 270.693 19.5425C271.687 19.5695 272.636 19.7816 273.543 20.1786C274.449 20.5756 275.249 21.1742 275.943 21.9745C276.637 22.7748 277.158 23.8217 277.504 25.115C277.718 25.911 277.808 26.6465 277.776 27.3216C277.768 27.9901 277.657 28.6197 277.442 29.2104C277.245 29.7696 276.952 30.3149 276.561 30.8461C276.17 31.3774 275.739 31.9062 275.266 32.4325C274.726 33.0038 274.171 33.5659 273.599 34.1189C273.052 34.6653 272.625 35.2596 272.317 35.9019C272.028 36.5126 271.996 37.2408 272.223 38.0865L268.119 39.1861ZM270.523 47.859L269.143 42.7105L273.285 41.6008L274.664 46.7494L270.523 47.859Z" fill="#F13C3C"/>
    <rect x="164.345" y="19.625" width="31.5115" height="31.5115" rx="7.75574" transform="rotate(-45 164.345 19.625)" stroke="#D9D9D9" stroke-width="0.488512"/>
    <path d="M186.219 23.6799C185.836 23.2967 185.512 22.9015 185.249 22.4943C184.986 22.0632 184.818 21.5962 184.746 21.0933C184.674 20.5903 184.722 20.0275 184.89 19.4048C184.95 19.1294 185.039 18.7881 185.159 18.381C185.291 17.9618 185.393 17.5367 185.465 17.1056C185.524 16.6626 185.512 16.2315 185.429 15.8123C185.345 15.3693 185.135 14.9801 184.8 14.6448C184.465 14.3095 184.099 14.1119 183.704 14.052C183.321 13.9802 182.938 14.0161 182.555 14.1598C182.183 14.2915 181.848 14.5071 181.549 14.8064C181.201 15.1537 180.968 15.5429 180.848 15.974C180.716 16.3931 180.663 16.8063 180.687 17.2134C180.71 17.6206 180.77 18.0037 180.866 18.363L178.226 18.848C177.95 18.1415 177.825 17.429 177.848 16.7105C177.884 15.98 178.058 15.2795 178.369 14.6089C178.693 13.9263 179.124 13.3156 179.663 12.7767C180.118 12.3217 180.639 11.9444 181.225 11.6451C181.8 11.3337 182.411 11.1421 183.058 11.0703C183.704 10.9984 184.357 11.0763 185.015 11.3038C185.674 11.5313 186.315 11.9564 186.937 12.5791C187.321 12.9623 187.614 13.3515 187.818 13.7467C188.033 14.1299 188.177 14.525 188.249 14.9322C188.321 15.3154 188.332 15.7225 188.285 16.1536C188.237 16.5847 188.165 17.0278 188.069 17.4828C187.949 17.9858 187.818 18.4887 187.674 18.9917C187.542 19.4827 187.494 19.9616 187.53 20.4287C187.566 20.8717 187.788 21.2969 188.195 21.704L186.219 23.6799ZM190.44 27.8292L187.961 25.3504L189.955 23.3565L192.434 25.8353L190.44 27.8292Z" fill="#F13C3C"/>
    <rect x="50.4168" y="5.47982" width="47.2572" height="47.2572" rx="9.62861" transform="rotate(21 50.4168 5.47982)" stroke="#D9D9D9" stroke-width="0.742781"/>
    <path d="M57.9585 38.7669C58.2538 37.9976 58.6027 37.3041 59.0054 36.6864C59.4412 36.0538 59.9863 35.5321 60.6405 35.1213C61.2946 34.7105 62.106 34.4289 63.0747 34.2767C63.4943 34.1895 64.0239 34.1032 64.6635 34.0177C65.3271 33.9415 65.9806 33.82 66.6238 33.6532C67.2763 33.4623 67.8677 33.1791 68.398 32.8035C68.9616 32.413 69.3726 31.8812 69.631 31.2081C69.8894 30.535 69.938 29.9055 69.7768 29.3196C69.6396 28.7429 69.3527 28.2328 68.9161 27.7894C68.5035 27.3552 67.9968 27.0228 67.3958 26.7921C66.6986 26.5245 66.0136 26.4408 65.3408 26.5411C64.6771 26.6173 64.0699 26.7979 63.5192 27.083C62.9685 27.3681 62.4732 27.6882 62.0335 28.0435L59.7268 24.6757C60.5379 23.8562 61.4498 23.2409 62.4626 22.8298C63.4995 22.4279 64.58 22.2359 65.704 22.2536C66.8521 22.2806 67.967 22.5017 69.0488 22.917C69.9623 23.2677 70.8084 23.7579 71.5871 24.3878C72.3751 24.9937 73.0189 25.7235 73.5186 26.5773C74.0183 27.4311 74.3138 28.3858 74.4051 29.4413C74.4964 30.4969 74.3021 31.6497 73.8223 32.8997C73.527 33.669 73.1678 34.3172 72.7448 34.8444C72.3458 35.3808 71.8858 35.8248 71.3647 36.1764C70.8768 36.5132 70.3187 36.7816 69.6903 36.9817C69.0618 37.1817 68.4019 37.3559 67.7106 37.5043C66.9379 37.649 66.1579 37.7771 65.3704 37.8885C64.6069 38.0092 63.912 38.2389 63.2855 38.5776C62.6922 38.9015 62.2388 39.4721 61.925 40.2895L57.9585 38.7669ZM54.8055 47.1964L56.7156 42.2202L60.7182 43.7566L58.808 48.7328L54.8055 47.1964Z" fill="#F13C3C"/>
    <rect x="272.136" y="118.507" width="47.2572" height="47.2572" rx="9.62861" transform="rotate(30 272.136 118.507)" stroke="#D9D9D9" stroke-width="0.742781"/>
    <path d="M274.378 152.566C274.79 151.853 275.243 151.222 275.737 150.675C276.266 150.118 276.886 149.688 277.597 149.385C278.307 149.082 279.153 148.93 280.133 148.932C280.561 148.911 281.098 148.909 281.743 148.924C282.41 148.953 283.075 148.935 283.736 148.871C284.41 148.785 285.039 148.597 285.621 148.309C286.239 148.012 286.728 147.551 287.089 146.926C287.449 146.302 287.596 145.688 287.528 145.084C287.483 144.493 287.279 143.944 286.917 143.438C286.578 142.945 286.129 142.537 285.572 142.215C284.925 141.842 284.262 141.652 283.581 141.646C282.914 141.617 282.286 141.701 281.698 141.896C281.109 142.091 280.57 142.33 280.08 142.612L278.328 138.925C279.258 138.243 280.255 137.777 281.319 137.53C282.406 137.295 283.503 137.275 284.611 137.468C285.741 137.674 286.807 138.067 287.811 138.646C288.658 139.136 289.417 139.752 290.088 140.496C290.771 141.218 291.293 142.039 291.653 142.961C292.013 143.882 292.155 144.871 292.08 145.928C292.006 146.985 291.633 148.093 290.964 149.253C290.552 149.966 290.096 150.551 289.595 151.005C289.117 151.472 288.594 151.839 288.024 152.105C287.489 152.361 286.896 152.539 286.244 152.638C285.592 152.737 284.913 152.806 284.207 152.845C283.421 152.867 282.631 152.871 281.836 152.858C281.063 152.858 280.34 152.976 279.669 153.213C279.032 153.44 278.495 153.932 278.057 154.691L274.378 152.566ZM269.945 160.399L272.61 155.783L276.323 157.926L273.658 162.542L269.945 160.399Z" fill="#F13C3C"/>
    <rect x="0.507329" y="158.136" width="47.2572" height="47.2572" rx="9.62861" transform="rotate(-30 0.507329 158.136)" stroke="#D9D9D9" stroke-width="0.742781"/>
    <path d="M31.1202 173.229C30.7082 172.515 30.3888 171.808 30.1621 171.106C29.9449 170.369 29.8824 169.617 29.9748 168.85C30.0672 168.083 30.3591 167.276 30.8504 166.427C31.0467 166.046 31.3129 165.58 31.649 165.029C32.0074 164.466 32.3242 163.881 32.5994 163.277C32.8617 162.649 33.0137 162.012 33.0555 161.363C33.1068 160.679 32.9522 160.025 32.5917 159.401C32.2312 158.776 31.7725 158.343 31.2157 158.099C30.6812 157.843 30.1042 157.745 29.4849 157.805C28.8879 157.852 28.3106 158.037 27.7531 158.359C27.1064 158.732 26.6103 159.212 26.2647 159.798C25.9063 160.362 25.6646 160.947 25.5396 161.555C25.4145 162.162 25.3517 162.748 25.351 163.314L21.2821 162.987C21.1556 161.841 21.2514 160.745 21.5693 159.699C21.9095 158.64 22.4402 157.68 23.1614 156.817C23.9049 155.942 24.7783 155.215 25.7818 154.636C26.6292 154.146 27.5427 153.797 28.5223 153.588C29.4891 153.357 30.4614 153.316 31.4394 153.465C32.4174 153.614 33.3453 153.985 34.223 154.579C35.1008 155.172 35.8744 156.049 36.5439 157.208C36.9559 157.922 37.2337 158.609 37.3771 159.269C37.5429 159.917 37.5984 160.554 37.5437 161.18C37.4985 161.771 37.3558 162.374 37.1158 162.988C36.8758 163.602 36.5959 164.225 36.2762 164.856C35.9024 165.547 35.511 166.234 35.102 166.916C34.7153 167.585 34.4565 168.27 34.3255 168.97C34.2039 169.635 34.3619 170.346 34.7997 171.105L31.1202 173.229ZM35.6868 180.984L33.0218 176.368L36.7347 174.224L39.3998 178.84L35.6868 180.984Z" fill="#F13C3C"/>
</svg>
